RecursiveMonoVar-CasualHeavy.ufo
<glyph name="exclam" format="1">
  <advance width="600"/>
  <unicode hex="0021"/>
  <outline>
    <contour>
      <point x="375" y="321" type="line"/>
      <point x="403" y="384"/>
      <point x="425" y="459"/>
      <point x="425" y="566" type="curve"/>
      <point x="425" y="619" type="line" smooth="yes"/>
      <point x="425" y="682"/>
      <point x="342" y="710"/>
      <point x="260" y="710" type="curve" smooth="yes"/>
      <point x="220" y="710"/>
      <point x="193" y="707"/>
      <point x="160" y="700" type="curve"/>
      <point x="170" y="664"/>
      <point x="176" y="626"/>
      <point x="176" y="584" type="curve" smooth="yes"/>
      <point x="176" y="576" type="line"/>
      <point x="176" y="499"/>
      <point x="195" y="392"/>
      <point x="228" y="359" type="curve" smooth="yes"/>
      <point x="255" y="332"/>
      <point x="288" y="321"/>
      <point x="353" y="321" type="curve"/>
    </contour>
    <contour>
      <point x="430" y="0" type="curve"/>
      <point x="430" y="131" type="line" smooth="yes"/>
      <point x="430" y="220"/>
      <point x="379" y="251"/>
      <point x="280" y="251" type="curve" smooth="yes"/>
      <point x="231" y="251"/>
      <point x="202" y="247"/>
      <point x="170" y="239" type="curve"/>
      <point x="170" y="108" type="line" smooth="yes"/>
      <point x="170" y="19"/>
      <point x="221" y="-12"/>
      <point x="320" y="-12" type="curve" smooth="yes"/>
      <point x="369" y="-12"/>
      <point x="398" y="-8"/>
    </contour>
  </outline>
</glyph>
<glyph name="dollar" format="1">
  <advance width="600"/>
  <unicode hex="0024"/>
  <outline>
    <contour>
      <point x="350" y="720" type="curve" smooth="yes"/>
      <point x="179" y="720"/>
      <point x="48" y="643"/>
      <point x="48" y="505" type="curve" smooth="yes"/>
      <point x="48" y="500" type="line" smooth="yes"/>
      <point x="48" y="467"/>
      <point x="134" y="406"/>
      <point x="250" y="409" type="curve"/>
      <point x="241" y="430"/>
      <point x="238" y="455"/>
      <point x="238" y="474" type="curve" smooth="yes"/>
      <point x="238" y="508"/>
      <point x="263" y="524"/>
      <point x="366" y="524" type="curve" smooth="yes"/>
      <point x="442" y="524"/>
      <point x="491" y="516"/>
      <point x="544" y="488" type="curve"/>
      <point x="548" y="488" type="line"/>
      <point x="562" y="522"/>
      <point x="570" y="552"/>
      <point x="570" y="588" type="curve" smooth="yes"/>
      <point x="570" y="625"/>
      <point x="563" y="659"/>
      <point x="537" y="685" type="curve" smooth="yes"/>
      <point x="513" y="710"/>
      <point x="456" y="720"/>
    </contour>
    <contour>
      <point x="409" y="387" type="curve" smooth="yes"/>
      <point x="299" y="423" type="line" smooth="yes"/>
      <point x="270" y="432"/>
      <point x="238" y="446"/>
      <point x="238" y="474" type="curve" smooth="yes"/>
      <point x="238" y="521"/>
      <point x="241" y="548"/>
      <point x="254" y="568" type="curve"/>
      <point x="139" y="572"/>
      <point x="48" y="560"/>
      <point x="48" y="500" type="curve" smooth="yes"/>
      <point x="48" y="415"/>
      <point x="83" y="349"/>
      <point x="237" y="295" type="curve" smooth="yes"/>
      <point x="336" y="260" type="line" smooth="yes"/>
      <point x="383" y="243"/>
      <point x="399" y="227"/>
      <point x="399" y="187" type="curve" smooth="yes"/>
      <point x="399" y="166"/>
      <point x="399" y="153"/>
      <point x="399" y="132" type="curve"/>
      <point x="483" y="128"/>
      <point x="582" y="155"/>
      <point x="582" y="193" type="curve"/>
      <point x="582" y="265"/>
      <point x="547" y="342"/>
    </contour>
    <contour>
      <point x="300" y="-25" type="curve" smooth="yes"/>
      <point x="498" y="-25"/>
      <point x="582" y="70"/>
      <point x="582" y="180" type="curve" smooth="yes"/>
      <point x="582" y="193" type="line" smooth="yes"/>
      <point x="582" y="222"/>
      <point x="526" y="251"/>
      <point x="447" y="259" type="curve"/>
      <point x="447" y="246"/>
      <point x="447" y="241"/>
      <point x="447" y="233" type="curve" smooth="yes"/>
      <point x="447" y="200"/>
      <point x="374" y="168"/>
      <point x="300" y="168" type="curve" smooth="yes"/>
      <point x="193" y="168"/>
      <point x="112" y="200"/>
      <point x="45" y="253" type="curve"/>
      <point x="41" y="253" type="line"/>
      <point x="36" y="237"/>
      <point x="33" y="209"/>
      <point x="33" y="175" type="curve" smooth="yes"/>
      <point x="33" y="104"/>
      <point x="48" y="61"/>
      <point x="82" y="27" type="curve" smooth="yes"/>
      <point x="117" y="-8"/>
      <point x="202" y="-25"/>
    </contour>
    <contour>
      <point x="392" y="439" type="line"/>
      <point x="477" y="729" type="line" smooth="yes"/>
      <point x="504" y="821"/>
      <point x="461" y="885"/>
      <point x="367" y="885" type="curve" smooth="yes"/>
      <point x="348" y="885"/>
      <point x="312" y="880"/>
      <point x="289" y="871" type="curve"/>
      <point x="303" y="839"/>
      <point x="312" y="807"/>
      <point x="312" y="763" type="curve"/>
      <point x="312" y="488" type="line" smooth="yes"/>
      <point x="312" y="456"/>
      <point x="358" y="439"/>
      <point x="388" y="439" type="curve" smooth="yes"/>
    </contour>
    <contour>
      <point x="243" y="244" type="line"/>
      <point x="158" y="-39" type="line" smooth="yes"/>
      <point x="130" y="-132"/>
      <point x="174" y="-195"/>
      <point x="268" y="-195" type="curve" smooth="yes"/>
      <point x="286" y="-195"/>
      <point x="322" y="-190"/>
      <point x="346" y="-181" type="curve"/>
      <point x="332" y="-149"/>
      <point x="323" y="-117"/>
      <point x="323" y="-73" type="curve"/>
      <point x="323" y="193" type="line" smooth="yes"/>
      <point x="323" y="224"/>
      <point x="277" y="244"/>
      <point x="247" y="244" type="curve" smooth="yes"/>
    </contour>
  </outline>
</glyph>
<glyph name="percent" format="1">
  <advance width="600"/>
  <unicode hex="0025"/>
  <outline>
    <contour>
      <point x="95" y="662" type="curve"/>
      <point x="124" y="662"/>
      <point x="139" y="628"/>
      <point x="139" y="575" type="curve" smooth="yes"/>
      <point x="139" y="573" type="line" smooth="yes"/>
      <point x="139" y="548"/>
      <point x="129" y="539"/>
      <point x="109" y="539" type="curve" smooth="yes"/>
      <point x="95" y="539"/>
      <point x="86" y="544"/>
      <point x="75" y="565" type="curve"/>
      <point x="40" y="524"/>
      <point x="78" y="356"/>
      <point x="155" y="356" type="curve" smooth="yes"/>
      <point x="252" y="356"/>
      <point x="314" y="428"/>
      <point x="314" y="542" type="curve" smooth="yes"/>
      <point x="314" y="548" type="line" smooth="yes"/>
      <point x="314" y="641"/>
      <point x="248" y="710"/>
      <point x="162" y="710" type="curve" smooth="yes"/>
      <point x="126" y="710"/>
      <point x="95" y="690"/>
    </contour>
    <contour>
      <point x="198" y="432" type="curve"/>
      <point x="161" y="432"/>
      <point x="138" y="470"/>
      <point x="138" y="524" type="curve" smooth="yes"/>
      <point x="138" y="527" type="line" smooth="yes"/>
      <point x="138" y="553"/>
      <point x="151" y="571"/>
      <point x="169" y="571" type="curve" smooth="yes"/>
      <point x="202" y="571"/>
      <point x="211" y="565"/>
      <point x="236" y="541" type="curve"/>
      <point x="266" y="575"/>
      <point x="222" y="710"/>
      <point x="162" y="710" type="curve" smooth="yes"/>
      <point x="68" y="710"/>
      <point x="5" y="637"/>
      <point x="5" y="529" type="curve" smooth="yes"/>
      <point x="5" y="523" type="line" smooth="yes"/>
      <point x="5" y="420"/>
      <point x="62" y="356"/>
      <point x="155" y="356" type="curve" smooth="yes"/>
      <point x="187" y="356"/>
      <point x="198" y="385"/>
    </contour>
    <contour>
      <point x="376" y="296" type="curve"/>
      <point x="405" y="296"/>
      <point x="420" y="262"/>
      <point x="420" y="209" type="curve" smooth="yes"/>
      <point x="420" y="207" type="line" smooth="yes"/>
      <point x="420" y="182"/>
      <point x="410" y="173"/>
      <point x="390" y="173" type="curve" smooth="yes"/>
      <point x="376" y="173"/>
      <point x="367" y="178"/>
      <point x="356" y="199" type="curve"/>
      <point x="321" y="158"/>
      <point x="359" y="-10"/>
      <point x="436" y="-10" type="curve" smooth="yes"/>
      <point x="533" y="-10"/>
      <point x="595" y="62"/>
      <point x="595" y="176" type="curve" smooth="yes"/>
      <point x="595" y="182" type="line" smooth="yes"/>
      <point x="595" y="275"/>
      <point x="529" y="344"/>
      <point x="443" y="344" type="curve" smooth="yes"/>
      <point x="407" y="344"/>
      <point x="376" y="324"/>
    </contour>
    <contour>
      <point x="479" y="66" type="curve"/>
      <point x="442" y="66"/>
      <point x="419" y="104"/>
      <point x="419" y="158" type="curve" smooth="yes"/>
      <point x="419" y="161" type="line" smooth="yes"/>
      <point x="419" y="187"/>
      <point x="432" y="205"/>
      <point x="450" y="205" type="curve" smooth="yes"/>
      <point x="483" y="205"/>
      <point x="492" y="199"/>
      <point x="517" y="175" type="curve"/>
      <point x="547" y="209"/>
      <point x="503" y="344"/>
      <point x="443" y="344" type="curve" smooth="yes"/>
      <point x="349" y="344"/>
      <point x="286" y="271"/>
      <point x="286" y="163" type="curve" smooth="yes"/>
      <point x="286" y="157" type="line" smooth="yes"/>
      <point x="286" y="54"/>
      <point x="343" y="-10"/>
      <point x="436" y="-10" type="curve" smooth="yes"/>
      <point x="468" y="-10"/>
      <point x="479" y="19"/>
    </contour>
    <contour>
      <point x="332" y="397" type="curve"/>
      <point x="352" y="387"/>
      <point x="377" y="381"/>
      <point x="411" y="381" type="curve" smooth="yes"/>
      <point x="453" y="381"/>
      <point x="482" y="392"/>
      <point x="519" y="429" type="curve" smooth="yes"/>
      <point x="574" y="484"/>
      <point x="591" y="570"/>
      <point x="591" y="630" type="curve" smooth="yes"/>
      <point x="591" y="690"/>
      <point x="546" y="717"/>
      <point x="473" y="717" type="curve" smooth="yes"/>
      <point x="438" y="717"/>
      <point x="424" y="715"/>
      <point x="394" y="708" type="curve"/>
      <point x="394" y="593"/>
      <point x="375" y="484"/>
    </contour>
    <contour>
      <point x="268" y="303" type="curve"/>
      <point x="248" y="313"/>
      <point x="223" y="319"/>
      <point x="189" y="319" type="curve" smooth="yes"/>
      <point x="147" y="319"/>
      <point x="118" y="308"/>
      <point x="81" y="271" type="curve" smooth="yes"/>
      <point x="26" y="216"/>
      <point x="9" y="130"/>
      <point x="9" y="70" type="curve" smooth="yes"/>
      <point x="9" y="10"/>
      <point x="54" y="-17"/>
      <point x="127" y="-17" type="curve" smooth="yes"/>
      <point x="162" y="-17"/>
      <point x="176" y="-15"/>
      <point x="206" y="-8" type="curve"/>
      <point x="206" y="107"/>
      <point x="225" y="215"/>
    </contour>
  </outline>
</glyph>
<glyph name="ampersand" format="1">
  <advance width="600"/>
  <unicode hex="0026"/>
  <outline>
    <contour>
      <point x="328" y="720" type="curve" smooth="yes"/>
      <point x="145" y="720"/>
      <point x="72" y="605"/>
      <point x="72" y="535" type="curve" smooth="yes"/>
      <point x="72" y="479"/>
      <point x="117" y="443"/>
      <point x="240" y="443" type="curve"/>
      <point x="237" y="453"/>
      <point x="236" y="459"/>
      <point x="236" y="470" type="curve" smooth="yes"/>
      <point x="236" y="497"/>
      <point x="276" y="516"/>
      <point x="336" y="516" type="curve" smooth="yes"/>
      <point x="401" y="516"/>
      <point x="445" y="508"/>
      <point x="497" y="487" type="curve"/>
      <point x="501" y="487" type="line"/>
      <point x="510" y="506"/>
      <point x="514" y="533"/>
      <point x="514" y="562" type="curve"/>
      <point x="514" y="613"/>
      <point x="506" y="659"/>
      <point x="480" y="685" type="curve" smooth="yes"/>
      <point x="454" y="711"/>
      <point x="412" y="720"/>
    </contour>
    <contour>
      <point x="279" y="416" type="curve" smooth="yes"/>
      <point x="258" y="461"/>
      <point x="251" y="484"/>
      <point x="251" y="519" type="curve" smooth="yes"/>
      <point x="251" y="562"/>
      <point x="257" y="589"/>
      <point x="273" y="619" type="curve"/>
      <point x="179" y="638"/>
      <point x="72" y="601"/>
      <point x="72" y="535" type="curve" smooth="yes"/>
      <point x="72" y="532" type="line" smooth="yes"/>
      <point x="72" y="480"/>
      <point x="87" y="430"/>
      <point x="131" y="352" type="curve" smooth="yes"/>
      <point x="183" y="261"/>
      <point x="261" y="164"/>
      <point x="331" y="94" type="curve" smooth="yes"/>
      <point x="427" y="-2"/>
      <point x="470" y="-14"/>
      <point x="504" y="-14" type="curve" smooth="yes"/>
      <point x="509" y="-14" type="line" smooth="yes"/>
      <point x="551" y="-14"/>
      <point x="582" y="21"/>
      <point x="582" y="109" type="curve" smooth="yes"/>
      <point x="582" y="154"/>
      <point x="580" y="177"/>
      <point x="574" y="210" type="curve"/>
      <point x="570" y="210" type="line"/>
      <point x="556" y="203"/>
      <point x="545" y="201"/>
      <point x="524" y="201" type="curve" smooth="yes"/>
      <point x="483" y="201"/>
      <point x="427" y="223"/>
      <point x="387" y="263" type="curve" smooth="yes"/>
      <point x="340" y="309"/>
      <point x="307" y="357"/>
    </contour>
    <contour>
      <point x="201" y="-14" type="curve" smooth="yes"/>
      <point x="293" y="-14"/>
      <point x="352" y="46"/>
      <point x="365" y="81" type="curve" smooth="yes"/>
      <point x="377" y="113"/>
      <point x="360" y="153"/>
      <point x="313" y="171" type="curve"/>
      <point x="287" y="149"/>
      <point x="264" y="139"/>
      <point x="236" y="139" type="curve" smooth="yes"/>
      <point x="207" y="139"/>
      <point x="181" y="162"/>
      <point x="181" y="186" type="curve" smooth="yes"/>
      <point x="181" y="189" type="line" smooth="yes"/>
      <point x="181" y="225"/>
      <point x="198" y="258"/>
      <point x="237" y="279" type="curve"/>
      <point x="227" y="311"/>
      <point x="196" y="372"/>
      <point x="161" y="365" type="curve" smooth="yes"/>
      <point x="85" y="352"/>
      <point x="7" y="278"/>
      <point x="7" y="169" type="curve" smooth="yes"/>
      <point x="7" y="166" type="line" smooth="yes"/>
      <point x="7" y="58"/>
      <point x="84" y="-14"/>
    </contour>
    <contour>
      <point x="452" y="446" type="curve" smooth="yes"/>
      <point x="430" y="446"/>
      <point x="412" y="444"/>
      <point x="393" y="440" type="curve"/>
      <point x="393" y="431"/>
      <point x="393" y="423"/>
      <point x="393" y="415" type="curve" smooth="yes"/>
      <point x="393" y="349"/>
      <point x="388" y="310"/>
      <point x="373" y="263" type="curve" smooth="yes"/>
      <point x="363" y="232"/>
      <point x="386" y="209"/>
      <point x="433" y="194" type="curve"/>
      <point x="507" y="226"/>
      <point x="582" y="312"/>
      <point x="582" y="366" type="curve" smooth="yes"/>
      <point x="582" y="381" type="line" smooth="yes"/>
      <point x="582" y="418"/>
      <point x="528" y="446"/>
    </contour>
  </outline>
</glyph>
<glyph name="parenright" format="1">
  <advance width="600"/>
  <unicode hex="0029"/>
  <outline>
    <contour>
      <point x="337" y="-118" type="curve" smooth="yes"/>
      <point x="414" y="-41"/>
      <point x="470" y="101"/>
      <point x="470" y="270" type="curve" smooth="yes"/>
      <point x="470" y="285" type="line" smooth="yes"/>
      <point x="470" y="454"/>
      <point x="414" y="596"/>
      <point x="337" y="673" type="curve" smooth="yes"/>
      <point x="289" y="721"/>
      <point x="258" y="729"/>
      <point x="206" y="729" type="curve" smooth="yes"/>
      <point x="144" y="729"/>
      <point x="106" y="706"/>
      <point x="76" y="676" type="curve"/>
      <point x="76" y="672" type="line"/>
      <point x="186" y="567"/>
      <point x="240" y="436"/>
      <point x="240" y="285" type="curve" smooth="yes"/>
      <point x="240" y="270" type="line" smooth="yes"/>
      <point x="240" y="119"/>
      <point x="186" y="-12"/>
      <point x="76" y="-117" type="curve"/>
      <point x="76" y="-121" type="line"/>
      <point x="106" y="-151"/>
      <point x="144" y="-174"/>
      <point x="206" y="-174" type="curve" smooth="yes"/>
      <point x="258" y="-174"/>
      <point x="289" y="-166"/>
    </contour>
  </outline>
</glyph>
<glyph name="asterisk" format="1">
  <advance width="600"/>
  <unicode hex="002A"/>
  <outline>
    <contour>
      <point x="201" y="563" type="curve"/>
      <point x="218" y="535"/>
      <point x="228" y="509"/>
      <point x="238" y="466" type="curve" smooth="yes"/>
      <point x="273" y="309" type="line"/>
      <point x="227" y="156" type="line" smooth="yes"/>
      <point x="204" y="82"/>
      <point x="249" y="40"/>
      <point x="315" y="40" type="curve"/>
      <point x="349" y="40"/>
      <point x="372" y="44"/>
      <point x="400" y="55" type="curve"/>
      <point x="383" y="83"/>
      <point x="373" y="109"/>
      <point x="363" y="152" type="curve" smooth="yes"/>
      <point x="328" y="309" type="line"/>
      <point x="374" y="462" type="line" smooth="yes"/>
      <point x="397" y="536"/>
      <point x="352" y="578"/>
      <point x="286" y="578" type="curve" smooth="yes"/>
      <point x="252" y="578"/>
      <point x="229" y="574"/>
    </contour>
    <contour>
      <point x="483" y="510" type="curve"/>
      <point x="280" y="336" type="line"/>
      <point x="98" y="279" type="line" smooth="yes"/>
      <point x="50" y="264"/>
      <point x="46" y="223"/>
      <point x="76" y="171" type="curve"/>
      <point x="89" y="149"/>
      <point x="102" y="133"/>
      <point x="120" y="118" type="curve"/>
      <point x="323" y="293" type="line"/>
      <point x="505" y="349" type="line" smooth="yes"/>
      <point x="553" y="364"/>
      <point x="557" y="405"/>
      <point x="527" y="457" type="curve" smooth="yes"/>
      <point x="514" y="479"/>
      <point x="501" y="496"/>
    </contour>
    <contour>
      <point x="562" y="255" type="curve"/>
      <point x="310" y="344" type="line"/>
      <point x="170" y="473" type="line" smooth="yes"/>
      <point x="133" y="507"/>
      <point x="95" y="490"/>
      <point x="65" y="438" type="curve"/>
      <point x="53" y="416"/>
      <point x="45" y="397"/>
      <point x="41" y="374" type="curve"/>
      <point x="294" y="285" type="line"/>
      <point x="434" y="156" type="line" smooth="yes"/>
      <point x="471" y="122"/>
      <point x="508" y="139"/>
      <point x="538" y="191" type="curve"/>
      <point x="551" y="213"/>
      <point x="559" y="233"/>
    </contour>
  </outline>
</glyph>
<glyph name="plus" format="1">
  <advance width="600"/>
  <unicode hex="002B"/>
  <outline>
    <contour>
      <point x="561" y="194" type="line"/>
      <point x="561" y="202"/>
      <point x="561" y="209"/>
      <point x="561" y="218" type="curve" smooth="yes"/>
      <point x="561" y="304"/>
      <point x="550" y="353"/>
      <point x="525" y="377" type="curve" smooth="yes"/>
      <point x="505" y="397"/>
      <point x="481" y="406"/>
      <point x="421" y="406" type="curve"/>
      <point x="55" y="406" type="line"/>
      <point x="49" y="374"/>
      <point x="44" y="339"/>
      <point x="44" y="310" type="curve" smooth="yes"/>
      <point x="44" y="217"/>
      <point x="68" y="194"/>
      <point x="148" y="194" type="curve"/>
    </contour>
    <contour>
      <point x="412" y="47" type="curve"/>
      <point x="412" y="444" type="line" smooth="yes"/>
      <point x="412" y="491"/>
      <point x="405" y="518"/>
      <point x="389" y="534" type="curve" smooth="yes"/>
      <point x="370" y="553"/>
      <point x="339" y="560"/>
      <point x="273" y="560" type="curve" smooth="yes"/>
      <point x="239" y="560"/>
      <point x="207" y="557"/>
      <point x="176" y="550" type="curve"/>
      <point x="183" y="515"/>
      <point x="188" y="473"/>
      <point x="188" y="420" type="curve" smooth="yes"/>
      <point x="188" y="123" type="line" smooth="yes"/>
      <point x="188" y="56"/>
      <point x="215" y="40"/>
      <point x="328" y="40" type="curve" smooth="yes"/>
      <point x="358" y="40"/>
      <point x="386" y="42"/>
    </contour>
  </outline>
</glyph>
<glyph name="comma" format="1">
  <advance width="600"/>
  <unicode hex="002C"/>
  <outline>
    <contour>
      <point x="284" y="-206" type="curve" smooth="yes"/>
      <point x="324" y="-206"/>
      <point x="343" y="-200"/>
      <point x="368" y="-175" type="curve"/>
      <point x="420" y="-123"/>
      <point x="475" y="-11"/>
      <point x="475" y="72" type="curve"/>
      <point x="475" y="146"/>
      <point x="434" y="177"/>
      <point x="302" y="177" type="curve" smooth="yes"/>
      <point x="271" y="177"/>
      <point x="250" y="175"/>
      <point x="208" y="170" type="curve"/>
      <point x="208" y="52"/>
      <point x="190" y="-70"/>
      <point x="141" y="-156" type="curve"/>
      <point x="183" y="-191"/>
      <point x="227" y="-206"/>
    </contour>
  </outline>
</glyph>
<glyph name="zero" format="1">
  <advance width="600"/>
  <unicode hex="0030"/>
  <outline>
    <contour>
      <point x="298" y="720" type="curve" smooth="yes"/>
      <point x="136" y="720"/>
      <point x="27" y="567"/>
      <point x="27" y="339" type="curve" smooth="yes"/>
      <point x="27" y="316" type="line" smooth="yes"/>
      <point x="27" y="111"/>
      <point x="128" y="-20"/>
      <point x="302" y="-20" type="curve"/>
      <point x="365" y="-20"/>
      <point x="414" y="33"/>
      <point x="414" y="101" type="curve"/>
      <point x="268" y="100"/>
      <point x="252" y="124"/>
      <point x="252" y="340" type="curve" smooth="yes"/>
      <point x="252" y="356" type="line" smooth="yes"/>
      <point x="252" y="492"/>
      <point x="262" y="527"/>
      <point x="301" y="527" type="curve" smooth="yes"/>
      <point x="352" y="527"/>
      <point x="372" y="519"/>
      <point x="406" y="484" type="curve"/>
      <point x="459" y="561"/>
      <point x="388" y="720"/>
    </contour>
    <contour>
      <point x="302" y="-20" type="curve" smooth="yes"/>
      <point x="468" y="-20"/>
      <point x="573" y="112"/>
      <point x="573" y="321" type="curve" smooth="yes"/>
      <point x="573" y="344" type="line" smooth="yes"/>
      <point x="573" y="566"/>
      <point x="467" y="720"/>
      <point x="298" y="720" type="curve"/>
      <point x="235" y="720"/>
      <point x="186" y="667"/>
      <point x="186" y="600" type="curve"/>
      <point x="332" y="600"/>
      <point x="348" y="576"/>
      <point x="348" y="360" type="curve" smooth="yes"/>
      <point x="348" y="344" type="line" smooth="yes"/>
      <point x="348" y="209"/>
      <point x="338" y="173"/>
      <point x="299" y="173" type="curve" smooth="yes"/>
      <point x="248" y="173"/>
      <point x="228" y="181"/>
      <point x="194" y="216" type="curve"/>
      <point x="141" y="139"/>
      <point x="212" y="-20"/>
    </contour>
    <contour>
      <point x="202" y="243" type="curve"/>
      <point x="297" y="283"/>
      <point x="346" y="319"/>
      <point x="402" y="384" type="curve"/>
      <point x="418" y="403"/>
      <point x="413" y="414"/>
      <point x="363" y="466" type="curve"/>
      <point x="309" y="397"/>
      <point x="257" y="348"/>
      <point x="197" y="310" type="curve" smooth="yes"/>
      <point x="180" y="298"/>
      <point x="182" y="273"/>
    </contour>
  </outline>
</glyph>
<glyph name="three" format="1">
  <advance width="600"/>
  <unicode hex="0033"/>
  <outline>
    <contour>
      <point x="263" y="496" type="curve" smooth="yes"/>
      <point x="354" y="496"/>
      <point x="395" y="479"/>
      <point x="395" y="453" type="curve" smooth="yes"/>
      <point x="395" y="440"/>
      <point x="394" y="433"/>
      <point x="393" y="427" type="curve"/>
      <point x="488" y="433"/>
      <point x="560" y="489"/>
      <point x="560" y="536" type="curve" smooth="yes"/>
      <point x="560" y="545" type="line" smooth="yes"/>
      <point x="560" y="645"/>
      <point x="475" y="721"/>
      <point x="290" y="721" type="curve" smooth="yes"/>
      <point x="210" y="721"/>
      <point x="142" y="710"/>
      <point x="106" y="674" type="curve" smooth="yes"/>
      <point x="73" y="641"/>
      <point x="61" y="598"/>
      <point x="61" y="527" type="curve" smooth="yes"/>
      <point x="61" y="490"/>
      <point x="64" y="469"/>
      <point x="70" y="450" type="curve"/>
      <point x="74" y="450" type="line"/>
      <point x="142" y="488"/>
      <point x="194" y="496"/>
    </contour>
    <contour>
      <point x="230" y="332" type="curve" smooth="yes"/>
      <point x="472" y="332"/>
      <point x="560" y="417"/>
      <point x="560" y="536" type="curve" smooth="yes"/>
      <point x="560" y="598"/>
      <point x="472" y="620"/>
      <point x="389" y="618" type="curve"/>
      <point x="395" y="607"/>
      <point x="399" y="581"/>
      <point x="399" y="543" type="curve" smooth="yes"/>
      <point x="399" y="445"/>
      <point x="323" y="405"/>
      <point x="169" y="405" type="curve"/>
      <point x="164" y="388"/>
      <point x="162" y="378"/>
      <point x="162" y="350" type="curve" smooth="yes"/>
      <point x="162" y="338"/>
      <point x="181" y="332"/>
    </contour>
    <contour>
      <point x="214" y="272" type="curve" smooth="yes"/>
      <point x="364" y="272"/>
      <point x="435" y="237"/>
      <point x="435" y="176" type="curve" smooth="yes"/>
      <point x="435" y="165"/>
      <point x="435" y="153"/>
      <point x="425" y="130" type="curve"/>
      <point x="513" y="132"/>
      <point x="570" y="161"/>
      <point x="570" y="189" type="curve" smooth="yes"/>
      <point x="570" y="305"/>
      <point x="415" y="374"/>
      <point x="169" y="374" type="curve"/>
      <point x="166" y="369"/>
      <point x="162" y="360"/>
      <point x="162" y="350" type="curve" smooth="yes"/>
      <point x="162" y="292"/>
      <point x="177" y="272"/>
    </contour>
    <contour>
      <point x="263" y="205" type="curve" smooth="yes"/>
      <point x="184" y="205"/>
      <point x="127" y="215"/>
      <point x="50" y="256" type="curve"/>
      <point x="46" y="256" type="line"/>
      <point x="38" y="236"/>
      <point x="33" y="212"/>
      <point x="33" y="171" type="curve" smooth="yes"/>
      <point x="33" y="101"/>
      <point x="44" y="57"/>
      <point x="74" y="27" type="curve" smooth="yes"/>
      <point x="108" y="-7"/>
      <point x="197" y="-20"/>
      <point x="300" y="-20" type="curve" smooth="yes"/>
      <point x="509" y="-20"/>
      <point x="570" y="68"/>
      <point x="570" y="178" type="curve" smooth="yes"/>
      <point x="570" y="189" type="line" smooth="yes"/>
      <point x="570" y="234"/>
      <point x="515" y="290"/>
      <point x="420" y="292" type="curve"/>
      <point x="423" y="281"/>
      <point x="425" y="272"/>
      <point x="425" y="260" type="curve" smooth="yes"/>
      <point x="425" y="216"/>
      <point x="370" y="205"/>
    </contour>
  </outline>
</glyph>
<glyph name="four" format="1">
  <advance width="600"/>
  <unicode hex="0034"/>
  <outline>
    <contour>
      <point x="202" y="273" type="curve"/>
      <point x="270" y="426"/>
      <point x="395" y="545"/>
      <point x="572" y="622" type="curve"/>
      <point x="572" y="626" type="line"/>
      <point x="524" y="695"/>
      <point x="446" y="720"/>
      <point x="365" y="720" type="curve" smooth="yes"/>
      <point x="301" y="720"/>
      <point x="261" y="702"/>
      <point x="209" y="651" type="curve" smooth="yes"/>
      <point x="121" y="565"/>
      <point x="29" y="386"/>
      <point x="29" y="300" type="curve" smooth="yes"/>
      <point x="29" y="278"/>
      <point x="59" y="273"/>
    </contour>
    <contour>
      <point x="579" y="120" type="line"/>
      <point x="585" y="142"/>
      <point x="590" y="178"/>
      <point x="590" y="205" type="curve" smooth="yes"/>
      <point x="590" y="293"/>
      <point x="573" y="335"/>
      <point x="538" y="335" type="curve" smooth="yes"/>
      <point x="388" y="335" type="line"/>
      <point x="274" y="335"/>
      <point x="111" y="319"/>
      <point x="29" y="300" type="curve"/>
      <point x="29" y="291" type="line" smooth="yes"/>
      <point x="29" y="233"/>
      <point x="51" y="166"/>
      <point x="80" y="137" type="curve" smooth="yes"/>
      <point x="93" y="124"/>
      <point x="104" y="120"/>
      <point x="125" y="120" type="curve" smooth="yes"/>
    </contour>
    <contour>
      <point x="535" y="0" type="curve"/>
      <point x="526" y="30"/>
      <point x="522" y="61"/>
      <point x="522" y="100" type="curve" smooth="yes"/>
      <point x="522" y="380" type="line" smooth="yes"/>
      <point x="522" y="410"/>
      <point x="467" y="430"/>
      <point x="384" y="430" type="curve" smooth="yes"/>
      <point x="382" y="430" type="line"/>
      <point x="325" y="366"/>
      <point x="280" y="270"/>
      <point x="280" y="211" type="curve"/>
      <point x="280" y="75" type="line" smooth="yes"/>
      <point x="280" y="15"/>
      <point x="325" y="-7"/>
      <point x="445" y="-7" type="curve" smooth="yes"/>
      <point x="480" y="-7"/>
      <point x="506" y="-5"/>
    </contour>
  </outline>
</glyph>
<glyph name="five" format="1">
  <advance width="600"/>
  <unicode hex="0035"/>
  <outline>
    <contour>
      <point x="62" y="700" type="line"/>
      <point x="58" y="679"/>
      <point x="56" y="662"/>
      <point x="56" y="636" type="curve" smooth="yes"/>
      <point x="56" y="581"/>
      <point x="65" y="547"/>
      <point x="91" y="521" type="curve" smooth="yes"/>
      <point x="114" y="498"/>
      <point x="143" y="490"/>
      <point x="209" y="490" type="curve" smooth="yes"/>
      <point x="546" y="490" type="line"/>
      <point x="552" y="514"/>
      <point x="555" y="538"/>
      <point x="555" y="564" type="curve" smooth="yes"/>
      <point x="555" y="672"/>
      <point x="532" y="700"/>
      <point x="445" y="700" type="curve" smooth="yes"/>
    </contour>
    <contour>
      <point x="249" y="278" type="line"/>
      <point x="357" y="644" type="line" smooth="yes"/>
      <point x="367" y="678"/>
      <point x="292" y="700"/>
      <point x="170" y="700" type="curve" smooth="yes"/>
      <point x="140" y="700" type="line"/>
      <point x="86" y="356" type="line" smooth="yes"/>
      <point x="77" y="301"/>
      <point x="125" y="278"/>
      <point x="246" y="278" type="curve" smooth="yes"/>
    </contour>
    <contour>
      <point x="207" y="431" type="curve"/>
      <point x="207" y="317"/>
      <point x="223" y="278"/>
      <point x="249" y="278" type="curve"/>
      <point x="251" y="278"/>
      <point x="252" y="278"/>
      <point x="254" y="278" type="curve" smooth="yes"/>
      <point x="374" y="278"/>
      <point x="447" y="218"/>
      <point x="447" y="112" type="curve" smooth="yes"/>
      <point x="447" y="98"/>
      <point x="446" y="88"/>
      <point x="442" y="76" type="curve"/>
      <point x="504" y="76"/>
      <point x="570" y="145"/>
      <point x="570" y="210" type="curve" smooth="yes"/>
      <point x="570" y="347"/>
      <point x="445" y="431"/>
      <point x="240" y="431" type="curve" smooth="yes"/>
      <point x="227" y="431"/>
      <point x="221" y="431"/>
    </contour>
    <contour>
      <point x="252" y="-20" type="curve" smooth="yes"/>
      <point x="454" y="-20"/>
      <point x="570" y="60"/>
      <point x="570" y="198" type="curve" smooth="yes"/>
      <point x="570" y="210" type="line" smooth="yes"/>
      <point x="570" y="257"/>
      <point x="502" y="313"/>
      <point x="441" y="315" type="curve"/>
      <point x="445" y="301"/>
      <point x="446" y="294"/>
      <point x="446" y="283" type="curve" smooth="yes"/>
      <point x="446" y="281" type="line" smooth="yes"/>
      <point x="446" y="237"/>
      <point x="355" y="195"/>
      <point x="263" y="195" type="curve" smooth="yes"/>
      <point x="180" y="195"/>
      <point x="116" y="208"/>
      <point x="48" y="240" type="curve"/>
      <point x="44" y="240" type="line"/>
      <point x="35" y="215"/>
      <point x="30" y="189"/>
      <point x="30" y="159" type="curve" smooth="yes"/>
      <point x="30" y="90"/>
      <point x="41" y="50"/>
      <point x="63" y="28" type="curve" smooth="yes"/>
      <point x="93" y="-2"/>
      <point x="165" y="-20"/>
    </contour>
  </outline>
</glyph>
<glyph name="colon" format="1">
  <advance width="600"/>
  <unicode hex="003A"/>
  <outline>
    <contour>
      <point x="430" y="308" type="curve"/>
      <point x="430" y="439" type="line" smooth="yes"/>
      <point x="430" y="528"/>
      <point x="379" y="559"/>
      <point x="280" y="559" type="curve" smooth="yes"/>
      <point x="231" y="559"/>
      <point x="202" y="555"/>
      <point x="170" y="547" type="curve"/>
      <point x="170" y="416" type="line" smooth="yes"/>
      <point x="170" y="327"/>
      <point x="221" y="296"/>
      <point x="320" y="296" type="curve" smooth="yes"/>
      <point x="369" y="296"/>
      <point x="398" y="300"/>
    </contour>
    <contour>
      <point x="430" y="0" type="curve"/>
      <point x="430" y="131" type="line" smooth="yes"/>
      <point x="430" y="220"/>
      <point x="379" y="251"/>
      <point x="280" y="251" type="curve" smooth="yes"/>
      <point x="231" y="251"/>
      <point x="202" y="247"/>
      <point x="170" y="239" type="curve"/>
      <point x="170" y="108" type="line" smooth="yes"/>
      <point x="170" y="19"/>
      <point x="221" y="-12"/>
      <point x="320" y="-12" type="curve" smooth="yes"/>
      <point x="369" y="-12"/>
      <point x="398" y="-8"/>
    </contour>
  </outline>
</glyph>
<glyph name="semicolon" format="1">
  <advance width="600"/>
  <unicode hex="003B"/>
  <outline>
    <contour>
      <point x="430" y="305" type="curve"/>
      <point x="430" y="436" type="line" smooth="yes"/>
      <point x="430" y="525"/>
      <point x="379" y="556"/>
      <point x="280" y="556" type="curve" smooth="yes"/>
      <point x="231" y="556"/>
      <point x="202" y="552"/>
      <point x="170" y="544" type="curve"/>
      <point x="170" y="413" type="line" smooth="yes"/>
      <point x="170" y="324"/>
      <point x="221" y="293"/>
      <point x="320" y="293" type="curve" smooth="yes"/>
      <point x="369" y="293"/>
      <point x="398" y="297"/>
    </contour>
    <contour>
      <point x="264" y="-206" type="curve" smooth="yes"/>
      <point x="304" y="-206"/>
      <point x="323" y="-200"/>
      <point x="348" y="-175" type="curve"/>
      <point x="400" y="-123"/>
      <point x="455" y="-11"/>
      <point x="455" y="72" type="curve"/>
      <point x="455" y="146"/>
      <point x="414" y="177"/>
      <point x="282" y="177" type="curve" smooth="yes"/>
      <point x="251" y="177"/>
      <point x="230" y="175"/>
      <point x="188" y="170" type="curve"/>
      <point x="188" y="52"/>
      <point x="170" y="-70"/>
      <point x="121" y="-156" type="curve"/>
      <point x="163" y="-191"/>
      <point x="207" y="-206"/>
    </contour>
  </outline>
</glyph>
<glyph name="less" format="1">
  <advance width="600"/>
  <unicode hex="003C"/>
  <outline>
    <contour>
      <point x="540" y="431" type="curve"/>
      <point x="540" y="462" type="line"/>
      <point x="540" y="516"/>
      <point x="504" y="613"/>
      <point x="448" y="613" type="curve" smooth="yes"/>
      <point x="435" y="613"/>
      <point x="411" y="607"/>
      <point x="375" y="589" type="curve" smooth="yes"/>
      <point x="262" y="535"/>
      <point x="114" y="412"/>
      <point x="67" y="332" type="curve"/>
      <point x="67" y="315" type="line"/>
      <point x="67" y="257"/>
      <point x="117" y="251"/>
      <point x="258" y="241" type="curve"/>
      <point x="295" y="314"/>
      <point x="396" y="405"/>
    </contour>
    <contour>
      <point x="524" y="-23" type="curve"/>
      <point x="531" y="-2"/>
      <point x="533" y="20"/>
      <point x="533" y="54" type="curve" smooth="yes"/>
      <point x="533" y="133"/>
      <point x="518" y="189"/>
      <point x="482" y="201" type="curve" smooth="yes"/>
      <point x="365" y="244"/>
      <point x="260" y="316"/>
      <point x="206" y="400" type="curve" smooth="yes"/>
      <point x="199" y="409"/>
      <point x="198" y="418"/>
      <point x="198" y="421" type="curve" smooth="yes"/>
      <point x="198" y="429"/>
      <point x="198" y="431"/>
      <point x="198" y="435" type="curve"/>
      <point x="129" y="416"/>
      <point x="67" y="360"/>
      <point x="67" y="318" type="curve" smooth="yes"/>
      <point x="67" y="310" type="line" smooth="yes"/>
      <point x="67" y="275"/>
      <point x="68" y="257"/>
      <point x="124" y="201" type="curve" smooth="yes"/>
      <point x="206" y="115"/>
      <point x="351" y="22"/>
    </contour>
  </outline>
</glyph>
<glyph name="greater" format="1">
  <advance width="600"/>
  <unicode hex="003E"/>
  <outline>
    <contour>
      <point x="60" y="166" type="curve"/>
      <point x="60" y="135" type="line"/>
      <point x="60" y="81"/>
      <point x="96" y="-16"/>
      <point x="152" y="-16" type="curve" smooth="yes"/>
      <point x="165" y="-16"/>
      <point x="189" y="-10"/>
      <point x="225" y="8" type="curve" smooth="yes"/>
      <point x="338" y="62"/>
      <point x="486" y="185"/>
      <point x="533" y="265" type="curve"/>
      <point x="533" y="282" type="line"/>
      <point x="533" y="340"/>
      <point x="483" y="346"/>
      <point x="342" y="356" type="curve"/>
      <point x="305" y="283"/>
      <point x="204" y="192"/>
    </contour>
    <contour>
      <point x="76" y="620" type="curve"/>
      <point x="69" y="599"/>
      <point x="67" y="577"/>
      <point x="67" y="543" type="curve" smooth="yes"/>
      <point x="67" y="464"/>
      <point x="82" y="408"/>
      <point x="118" y="396" type="curve" smooth="yes"/>
      <point x="235" y="353"/>
      <point x="340" y="281"/>
      <point x="394" y="197" type="curve" smooth="yes"/>
      <point x="401" y="188"/>
      <point x="402" y="179"/>
      <point x="402" y="176" type="curve" smooth="yes"/>
      <point x="402" y="168"/>
      <point x="402" y="166"/>
      <point x="402" y="162" type="curve"/>
      <point x="471" y="181"/>
      <point x="533" y="237"/>
      <point x="533" y="279" type="curve" smooth="yes"/>
      <point x="533" y="287" type="line" smooth="yes"/>
      <point x="533" y="322"/>
      <point x="532" y="340"/>
      <point x="476" y="396" type="curve" smooth="yes"/>
      <point x="394" y="482"/>
      <point x="249" y="575"/>
    </contour>
  </outline>
</glyph>
<glyph name="C" format="1">
  <advance width="600"/>
  <unicode hex="0043"/>
  <outline>
    <contour>
      <point x="338" y="534" type="curve" smooth="yes"/>
      <point x="421" y="534"/>
      <point x="475" y="473"/>
      <point x="506" y="385" type="curve"/>
      <point x="562" y="385"/>
      <point x="575" y="394"/>
      <point x="575" y="416" type="curve" smooth="yes"/>
      <point x="575" y="516"/>
      <point x="546" y="600"/>
      <point x="493" y="653" type="curve" smooth="yes"/>
      <point x="453" y="693"/>
      <point x="400" y="720"/>
      <point x="335" y="720" type="curve" smooth="yes"/>
      <point x="176" y="720"/>
      <point x="20" y="607"/>
      <point x="20" y="304" type="curve" smooth="yes"/>
      <point x="20" y="296" type="line" smooth="yes"/>
      <point x="20" y="208"/>
      <point x="127" y="130"/>
      <point x="277" y="130" type="curve"/>
      <point x="267" y="157"/>
      <point x="256" y="217"/>
      <point x="256" y="278" type="curve" smooth="yes"/>
      <point x="256" y="286" type="line" smooth="yes"/>
      <point x="256" y="472"/>
      <point x="292" y="534"/>
    </contour>
    <contour>
      <point x="332" y="-20" type="curve" smooth="yes"/>
      <point x="433" y="-20"/>
      <point x="502" y="0"/>
      <point x="536" y="34" type="curve" smooth="yes"/>
      <point x="565" y="63"/>
      <point x="576" y="119"/>
      <point x="576" y="190" type="curve" smooth="yes"/>
      <point x="576" y="223"/>
      <point x="573" y="249"/>
      <point x="569" y="266" type="curve"/>
      <point x="565" y="266" type="line"/>
      <point x="512" y="218"/>
      <point x="436" y="190"/>
      <point x="350" y="190" type="curve" smooth="yes"/>
      <point x="268" y="190"/>
      <point x="246" y="211"/>
      <point x="246" y="322" type="curve"/>
      <point x="110" y="323"/>
      <point x="20" y="319"/>
      <point x="20" y="296" type="curve" smooth="yes"/>
      <point x="20" y="121"/>
      <point x="121" y="-20"/>
    </contour>
    <contour>
      <point x="575" y="344" type="curve"/>
      <point x="575" y="416" type="line" smooth="yes"/>
      <point x="575" y="564"/>
      <point x="497" y="626"/>
      <point x="396" y="626" type="curve"/>
      <point x="360" y="527"/>
      <point x="350" y="479"/>
      <point x="350" y="417" type="curve" smooth="yes"/>
      <point x="350" y="412" type="line"/>
      <point x="350" y="387"/>
      <point x="355" y="366"/>
      <point x="367" y="354" type="curve" smooth="yes"/>
      <point x="385" y="336"/>
      <point x="417" y="330"/>
      <point x="477" y="330" type="curve"/>
      <point x="516" y="330"/>
      <point x="549" y="337"/>
    </contour>
    <contour>
      <point x="298" y="711" type="move" name="top"/>
    </contour>
    <contour>
      <point x="298" y="-1" type="move" name="bottom"/>
    </contour>
  </outline>
</glyph>
<glyph name="D" format="1">
  <advance width="600"/>
  <unicode hex="0044"/>
  <outline>
    <contour>
      <point x="260" y="30" type="curve"/>
      <point x="260" y="442" type="line" smooth="yes"/>
      <point x="260" y="545"/>
      <point x="176" y="607"/>
      <point x="35" y="607" type="curve"/>
      <point x="35" y="95" type="line" smooth="yes"/>
      <point x="35" y="59"/>
      <point x="134" y="30"/>
    </contour>
    <contour>
      <point x="17" y="690" type="curve"/>
      <point x="10" y="665"/>
      <point x="5" y="630"/>
      <point x="5" y="580" type="curve"/>
      <point x="5" y="520"/>
      <point x="10" y="496"/>
      <point x="20" y="486" type="curve" smooth="yes"/>
      <point x="25" y="481"/>
      <point x="27" y="480"/>
      <point x="35" y="480" type="curve" smooth="yes"/>
      <point x="49" y="480"/>
      <point x="71" y="484"/>
      <point x="112" y="489" type="curve" smooth="yes"/>
      <point x="154" y="495"/>
      <point x="199" y="500"/>
      <point x="270" y="500" type="curve" smooth="yes"/>
      <point x="349" y="500"/>
      <point x="379" y="490"/>
      <point x="423" y="469" type="curve"/>
      <point x="480" y="550"/>
      <point x="402" y="710"/>
      <point x="322" y="710" type="curve" smooth="yes"/>
      <point x="213" y="710"/>
      <point x="105" y="705"/>
    </contour>
    <contour>
      <point x="580" y="409" type="curve" smooth="yes"/>
      <point x="580" y="418" type="line" smooth="yes"/>
      <point x="580" y="582"/>
      <point x="516" y="710"/>
      <point x="322" y="710" type="curve"/>
      <point x="313" y="710"/>
      <point x="290" y="699"/>
      <point x="290" y="553" type="curve"/>
      <point x="344" y="522"/>
      <point x="350" y="492"/>
      <point x="350" y="423" type="curve" smooth="yes"/>
      <point x="350" y="412" type="line" smooth="yes"/>
      <point x="350" y="262"/>
      <point x="316" y="195"/>
      <point x="261" y="195" type="curve" smooth="yes"/>
      <point x="196" y="195"/>
      <point x="151" y="204"/>
      <point x="94" y="218" type="curve"/>
      <point x="61" y="185"/>
      <point x="35" y="141"/>
      <point x="35" y="95" type="curve" smooth="yes"/>
      <point x="35" y="32"/>
      <point x="112" y="-10"/>
      <point x="224" y="-10" type="curve" smooth="yes"/>
      <point x="237" y="-10" type="line" smooth="yes"/>
      <point x="443" y="-10"/>
      <point x="580" y="129"/>
    </contour>
    <contour>
      <point x="292" y="711" type="move" name="top"/>
    </contour>
  </outline>
</glyph>
<glyph name="E" format="1">
  <advance width="600"/>
  <unicode hex="0045"/>
  <outline>
    <contour>
      <point x="11" y="700" type="line"/>
      <point x="7" y="672"/>
      <point x="5" y="643"/>
      <point x="5" y="615" type="curve" smooth="yes"/>
      <point x="5" y="550"/>
      <point x="9" y="517"/>
      <point x="18" y="508" type="curve" smooth="yes"/>
      <point x="25" y="501"/>
      <point x="28" y="500"/>
      <point x="35" y="500" type="curve" smooth="yes"/>
      <point x="574" y="500" type="line"/>
      <point x="579" y="528"/>
      <point x="580" y="542"/>
      <point x="580" y="565" type="curve" smooth="yes"/>
      <point x="580" y="614"/>
      <point x="568" y="656"/>
      <point x="548" y="676" type="curve" smooth="yes"/>
      <point x="529" y="695"/>
      <point x="516" y="700"/>
      <point x="485" y="700" type="curve" smooth="yes"/>
    </contour>
    <contour>
      <point x="260" y="135" type="curve"/>
      <point x="260" y="442" type="line" smooth="yes"/>
      <point x="260" y="535"/>
      <point x="161" y="607"/>
      <point x="35" y="607" type="curve"/>
      <point x="35" y="190" type="line"/>
      <point x="35" y="150"/>
      <point x="98" y="135"/>
    </contour>
    <contour>
      <point x="35" y="200" type="line"/>
      <point x="35" y="175" type="line" smooth="yes"/>
      <point x="35" y="89"/>
      <point x="81" y="0"/>
      <point x="125" y="0" type="curve" smooth="yes"/>
      <point x="571" y="0" type="line"/>
      <point x="577" y="21"/>
      <point x="580" y="43"/>
      <point x="580" y="65" type="curve" smooth="yes"/>
      <point x="580" y="155"/>
      <point x="550" y="200"/>
      <point x="490" y="200" type="curve" smooth="yes"/>
    </contour>
    <contour>
      <point x="149" y="415" type="line"/>
      <point x="149" y="314"/>
      <point x="166" y="265"/>
      <point x="200" y="265" type="curve" smooth="yes"/>
      <point x="491" y="265" type="line"/>
      <point x="497" y="281"/>
      <point x="500" y="302"/>
      <point x="500" y="320" type="curve" smooth="yes"/>
      <point x="500" y="352"/>
      <point x="491" y="378"/>
      <point x="475" y="394" type="curve" smooth="yes"/>
      <point x="458" y="411"/>
      <point x="448" y="415"/>
      <point x="419" y="415" type="curve" smooth="yes"/>
    </contour>
    <contour>
      <point x="292" y="711" type="move" name="top"/>
    </contour>
    <contour>
      <point x="572" y="0" type="move" name="ogonek"/>
    </contour>
    <contour>
      <point x="332" y="-1" type="move" name="bottom"/>
    </contour>
  </outline>
</glyph>
<glyph name="F" format="1">
  <advance width="600"/>
  <unicode hex="0046"/>
  <outline>
    <contour>
      <point x="288" y="-6" type="curve"/>
      <point x="282" y="31"/>
      <point x="280" y="65"/>
      <point x="280" y="96" type="curve" smooth="yes"/>
      <point x="280" y="432" type="line"/>
      <point x="280" y="548"/>
      <point x="182" y="597"/>
      <point x="55" y="597" type="curve"/>
      <point x="55" y="66" type="line" smooth="yes"/>
      <point x="55" y="17"/>
      <point x="122" y="-6"/>
      <point x="273" y="-6" type="curve" smooth="yes"/>
      <point x="278" y="-6"/>
      <point x="283" y="-6"/>
    </contour>
    <contour>
      <point x="11" y="700" type="line"/>
      <point x="7" y="672"/>
      <point x="5" y="643"/>
      <point x="5" y="615" type="curve" smooth="yes"/>
      <point x="5" y="557"/>
      <point x="8" y="508"/>
      <point x="18" y="498" type="curve" smooth="yes"/>
      <point x="24" y="492"/>
      <point x="27" y="490"/>
      <point x="35" y="490" type="curve"/>
      <point x="576" y="490" type="line"/>
      <point x="579" y="507"/>
      <point x="580" y="517"/>
      <point x="580" y="535" type="curve" smooth="yes"/>
      <point x="580" y="590"/>
      <point x="563" y="651"/>
      <point x="530" y="684" type="curve" smooth="yes"/>
      <point x="517" y="697"/>
      <point x="509" y="700"/>
      <point x="491" y="700" type="curve"/>
    </contour>
    <contour>
      <point x="149" y="375" type="line"/>
      <point x="149" y="217"/>
      <point x="154" y="175"/>
      <point x="200" y="175" type="curve"/>
      <point x="494" y="175" type="line"/>
      <point x="498" y="195"/>
      <point x="500" y="220"/>
      <point x="500" y="240" type="curve"/>
      <point x="500" y="272"/>
      <point x="492" y="327"/>
      <point x="460" y="359" type="curve" smooth="yes"/>
      <point x="447" y="372"/>
      <point x="439" y="375"/>
      <point x="419" y="375" type="curve"/>
    </contour>
  </outline>
</glyph>
<glyph name="G" format="1">
  <advance width="600"/>
  <unicode hex="0047"/>
  <outline>
    <contour>
      <point x="343" y="530" type="curve" smooth="yes"/>
      <point x="414" y="530"/>
      <point x="446" y="507"/>
      <point x="467" y="449" type="curve"/>
      <point x="536" y="449"/>
      <point x="575" y="465"/>
      <point x="575" y="481" type="curve" smooth="yes"/>
      <point x="575" y="543"/>
      <point x="559" y="587"/>
      <point x="498" y="648" type="curve" smooth="yes"/>
      <point x="446" y="700"/>
      <point x="400" y="720"/>
      <point x="335" y="720" type="curve" smooth="yes"/>
      <point x="176" y="720"/>
      <point x="20" y="607"/>
      <point x="20" y="304" type="curve" smooth="yes"/>
      <point x="20" y="296" type="line" smooth="yes"/>
      <point x="20" y="208"/>
      <point x="127" y="130"/>
      <point x="277" y="130" type="curve"/>
      <point x="265" y="164"/>
      <point x="256" y="241"/>
      <point x="256" y="318" type="curve" smooth="yes"/>
      <point x="256" y="326" type="line" smooth="yes"/>
      <point x="256" y="494"/>
      <point x="290" y="530"/>
    </contour>
    <contour>
      <point x="340" y="170" type="curve" smooth="yes"/>
      <point x="258" y="170"/>
      <point x="246" y="211"/>
      <point x="246" y="322" type="curve"/>
      <point x="110" y="323"/>
      <point x="20" y="319"/>
      <point x="20" y="296" type="curve" smooth="yes"/>
      <point x="20" y="101"/>
      <point x="121" y="-20"/>
      <point x="331" y="-20" type="curve" smooth="yes"/>
      <point x="473" y="-20"/>
      <point x="572" y="44"/>
      <point x="572" y="136" type="curve" smooth="yes"/>
      <point x="572" y="141" type="line" smooth="yes"/>
      <point x="572" y="219"/>
      <point x="495" y="283"/>
      <point x="421" y="283" type="curve"/>
      <point x="422" y="273"/>
      <point x="423" y="256"/>
      <point x="423" y="242" type="curve" smooth="yes"/>
      <point x="423" y="199"/>
      <point x="395" y="170"/>
    </contour>
    <contour>
      <point x="314" y="385" type="line"/>
      <point x="310" y="370"/>
      <point x="308" y="354"/>
      <point x="308" y="336" type="curve" smooth="yes"/>
      <point x="308" y="296"/>
      <point x="319" y="274"/>
      <point x="335" y="258" type="curve" smooth="yes"/>
      <point x="358" y="235"/>
      <point x="385" y="226"/>
      <point x="465" y="226" type="curve"/>
      <point x="585" y="226" type="line"/>
      <point x="585" y="245" type="line" smooth="yes"/>
      <point x="585" y="351"/>
      <point x="566" y="385"/>
      <point x="507" y="385" type="curve" smooth="yes"/>
    </contour>
    <contour>
      <point x="575" y="434" type="curve"/>
      <point x="575" y="481" type="line" smooth="yes"/>
      <point x="575" y="587"/>
      <point x="493" y="636"/>
      <point x="416" y="636" type="curve"/>
      <point x="366" y="573"/>
      <point x="350" y="537"/>
      <point x="350" y="487" type="curve" smooth="yes"/>
      <point x="350" y="482" type="line" smooth="yes"/>
      <point x="350" y="435"/>
      <point x="377" y="420"/>
      <point x="477" y="420" type="curve" smooth="yes"/>
      <point x="516" y="420"/>
      <point x="549" y="427"/>
    </contour>
    <contour>
      <point x="302" y="711" type="move" name="top"/>
    </contour>
    <contour>
      <point x="302" y="-1" type="move" name="bottom"/>
    </contour>
  </outline>
</glyph>
<glyph name="I" format="1">
  <advance width="600"/>
  <unicode hex="0049"/>
  <outline>
    <contour>
      <point x="413" y="103" type="curve"/>
      <point x="413" y="432" type="line" smooth="yes"/>
      <point x="413" y="548"/>
      <point x="314" y="597"/>
      <point x="187" y="597" type="curve"/>
      <point x="187" y="275" type="line" smooth="yes"/>
      <point x="187" y="155"/>
      <point x="284" y="103"/>
    </contour>
    <contour>
      <point x="38" y="700" type="line"/>
      <point x="34" y="677"/>
      <point x="31" y="649"/>
      <point x="31" y="622" type="curve"/>
      <point x="31" y="588"/>
      <point x="38" y="535"/>
      <point x="59" y="514" type="curve" smooth="yes"/>
      <point x="76" y="497"/>
      <point x="91" y="490"/>
      <point x="139" y="490" type="curve" smooth="yes"/>
      <point x="541" y="490" type="line"/>
      <point x="547" y="509"/>
      <point x="551" y="539"/>
      <point x="551" y="568" type="curve" smooth="yes"/>
      <point x="551" y="641"/>
      <point x="543" y="700"/>
      <point x="489" y="700" type="curve" smooth="yes"/>
    </contour>
    <contour>
      <point x="38" y="210" type="line"/>
      <point x="34" y="187"/>
      <point x="31" y="159"/>
      <point x="31" y="132" type="curve"/>
      <point x="31" y="98"/>
      <point x="38" y="45"/>
      <point x="59" y="24" type="curve" smooth="yes"/>
      <point x="76" y="7"/>
      <point x="91" y="0"/>
      <point x="139" y="0" type="curve" smooth="yes"/>
      <point x="541" y="0" type="line"/>
      <point x="547" y="19"/>
      <point x="551" y="49"/>
      <point x="551" y="78" type="curve" smooth="yes"/>
      <point x="551" y="151"/>
      <point x="543" y="210"/>
      <point x="489" y="210" type="curve" smooth="yes"/>
    </contour>
    <contour>
      <point x="291" y="711" type="move" name="top"/>
    </contour>
    <contour>
      <point x="542" y="0" type="move" name="ogonek"/>
    </contour>
    <contour>
      <point x="300" y="-1" type="move" name="bottom"/>
    </contour>
  </outline>
</glyph>
<glyph name="J" format="1">
  <advance width="600"/>
  <unicode hex="004A"/>
  <outline>
    <contour>
      <point x="48" y="700" type="line"/>
      <point x="44" y="677"/>
      <point x="41" y="649"/>
      <point x="41" y="622" type="curve" smooth="yes"/>
      <point x="41" y="588"/>
      <point x="48" y="535"/>
      <point x="69" y="514" type="curve" smooth="yes"/>
      <point x="86" y="497"/>
      <point x="101" y="490"/>
      <point x="149" y="490" type="curve" smooth="yes"/>
      <point x="431" y="490" type="line"/>
      <point x="431" y="631"/>
      <point x="415" y="700"/>
      <point x="349" y="700" type="curve"/>
    </contour>
    <contour>
      <point x="559" y="230" type="curve" smooth="yes"/>
      <point x="559" y="629" type="line" smooth="yes"/>
      <point x="559" y="680"/>
      <point x="511" y="700"/>
      <point x="390" y="700" type="curve" smooth="yes"/>
      <point x="326" y="700" type="line"/>
      <point x="326" y="240" type="line" smooth="yes"/>
      <point x="326" y="139"/>
      <point x="316" y="95"/>
      <point x="276" y="27" type="curve"/>
      <point x="424" y="-12"/>
      <point x="559" y="109"/>
    </contour>
    <contour>
      <point x="285" y="195" type="curve" smooth="yes"/>
      <point x="180" y="195"/>
      <point x="133" y="204"/>
      <point x="42" y="250" type="curve"/>
      <point x="38" y="250" type="line"/>
      <point x="33" y="223"/>
      <point x="29" y="195"/>
      <point x="29" y="159" type="curve"/>
      <point x="29" y="80"/>
      <point x="40" y="44"/>
      <point x="63" y="21" type="curve" smooth="yes"/>
      <point x="96" y="-12"/>
      <point x="162" y="-20"/>
      <point x="250" y="-20" type="curve" smooth="yes"/>
      <point x="260" y="-20" type="line" smooth="yes"/>
      <point x="475" y="-20"/>
      <point x="559" y="119"/>
      <point x="559" y="230" type="curve"/>
      <point x="559" y="251"/>
      <point x="535" y="273"/>
      <point x="469" y="273" type="curve"/>
      <point x="425" y="220"/>
      <point x="360" y="195"/>
    </contour>
    <contour>
      <point x="294" y="711" type="move" name="top"/>
    </contour>
  </outline>
</glyph>
<glyph name="L" format="1">
  <advance width="600"/>
  <unicode hex="004C"/>
  <outline>
    <contour>
      <point x="260" y="90" type="curve"/>
      <point x="260" y="594" type="line" smooth="yes"/>
      <point x="260" y="641"/>
      <point x="253" y="668"/>
      <point x="237" y="684" type="curve" smooth="yes"/>
      <point x="218" y="703"/>
      <point x="186" y="710"/>
      <point x="120" y="710" type="curve" smooth="yes"/>
      <point x="85" y="710"/>
      <point x="53" y="707"/>
      <point x="23" y="700" type="curve"/>
      <point x="31" y="661"/>
      <point x="35" y="616"/>
      <point x="35" y="560" type="curve" smooth="yes"/>
      <point x="35" y="186" type="line" smooth="yes"/>
      <point x="35" y="119"/>
      <point x="103" y="90"/>
    </contour>
    <contour>
      <point x="35" y="220" type="line"/>
      <point x="35" y="175" type="line" smooth="yes"/>
      <point x="35" y="74"/>
      <point x="79" y="0"/>
      <point x="125" y="0" type="curve" smooth="yes"/>
      <point x="573" y="0" type="line"/>
      <point x="577" y="22"/>
      <point x="580" y="57"/>
      <point x="580" y="89" type="curve" smooth="yes"/>
      <point x="580" y="170"/>
      <point x="549" y="220"/>
      <point x="500" y="220" type="curve" smooth="yes"/>
    </contour>
    <contour>
      <point x="440" y="550" type="move" name="caronslovak"/>
    </contour>
    <contour>
      <point x="141" y="711" type="move" name="top"/>
    </contour>
    <contour>
      <point x="451" y="400" type="move" name="dot"/>
    </contour>
    <contour>
      <point x="301" y="-1" type="move" name="bottom"/>
    </contour>
  </outline>
</glyph>
<glyph name="M" format="1">
  <advance width="600"/>
  <unicode hex="004D"/>
  <outline>
    <contour>
      <point x="238" y="0" type="curve"/>
      <point x="238" y="30"/>
      <point x="238" y="47"/>
      <point x="238" y="76" type="curve" smooth="yes"/>
      <point x="238" y="217"/>
      <point x="156" y="220"/>
      <point x="156" y="650" type="curve" smooth="yes"/>
      <point x="156" y="681"/>
      <point x="153" y="689"/>
      <point x="146" y="696" type="curve" smooth="yes"/>
      <point x="135" y="707"/>
      <point x="129" y="710"/>
      <point x="110" y="710" type="curve" smooth="yes"/>
      <point x="76" y="710"/>
      <point x="44" y="707"/>
      <point x="13" y="700" type="curve"/>
      <point x="21" y="662"/>
      <point x="25" y="617"/>
      <point x="25" y="560" type="curve" smooth="yes"/>
      <point x="25" y="76" type="line" smooth="yes"/>
      <point x="25" y="48"/>
      <point x="29" y="31"/>
      <point x="42" y="18" type="curve" smooth="yes"/>
      <point x="60" y="0"/>
      <point x="96" y="-7"/>
      <point x="159" y="-7" type="curve" smooth="yes"/>
      <point x="194" y="-7"/>
      <point x="208" y="-6"/>
    </contour>
    <contour>
      <point x="587" y="0" type="curve"/>
      <point x="579" y="38"/>
      <point x="575" y="83"/>
      <point x="575" y="140" type="curve" smooth="yes"/>
      <point x="575" y="650" type="line" smooth="yes"/>
      <point x="575" y="667"/>
      <point x="571" y="677"/>
      <point x="560" y="688" type="curve" smooth="yes"/>
      <point x="543" y="704"/>
      <point x="501" y="710"/>
      <point x="453" y="710" type="curve" smooth="yes"/>
      <point x="447" y="710" type="line"/>
      <point x="447" y="705"/>
      <point x="447" y="700"/>
      <point x="447" y="695" type="curve" smooth="yes"/>
      <point x="447" y="246"/>
      <point x="362" y="196"/>
      <point x="362" y="93" type="curve" smooth="yes"/>
      <point x="362" y="88"/>
      <point x="362" y="82"/>
      <point x="362" y="77" type="curve" smooth="yes"/>
      <point x="362" y="45"/>
      <point x="370" y="29"/>
      <point x="384" y="15" type="curve" smooth="yes"/>
      <point x="404" y="-5"/>
      <point x="422" y="-10"/>
      <point x="490" y="-10" type="curve"/>
      <point x="524" y="-10"/>
      <point x="556" y="-7"/>
    </contour>
    <contour>
      <point x="110" y="710" type="line"/>
      <point x="143" y="483"/>
      <point x="251" y="236"/>
      <point x="287" y="200" type="curve"/>
      <point x="291" y="196"/>
      <point x="295" y="195"/>
      <point x="300" y="195" type="curve"/>
      <point x="316" y="195"/>
      <point x="351" y="303"/>
      <point x="351" y="366" type="curve"/>
      <point x="301" y="444"/>
      <point x="270" y="527"/>
      <point x="251" y="663" type="curve"/>
      <point x="247" y="694"/>
      <point x="200" y="710"/>
      <point x="113" y="710" type="curve"/>
    </contour>
    <contour>
      <point x="447" y="710" type="curve" smooth="yes"/>
      <point x="416" y="710"/>
      <point x="385" y="708"/>
      <point x="355" y="701" type="curve"/>
      <point x="344" y="536"/>
      <point x="289" y="428"/>
      <point x="239" y="365" type="curve"/>
      <point x="251" y="300"/>
      <point x="278" y="195"/>
      <point x="300" y="195" type="curve"/>
      <point x="309" y="195" type="line"/>
      <point x="337" y="223"/>
      <point x="461" y="469"/>
      <point x="470" y="664" type="curve"/>
      <point x="471" y="696"/>
      <point x="467" y="710"/>
    </contour>
  </outline>
</glyph>
<glyph name="N" format="1">
  <advance width="600"/>
  <unicode hex="004E"/>
  <outline>
    <contour>
      <point x="245" y="-2" type="curve"/>
      <point x="245" y="58" type="line"/>
      <point x="245" y="224"/>
      <point x="190" y="643"/>
      <point x="131" y="702" type="curve" smooth="yes"/>
      <point x="125" y="708"/>
      <point x="119" y="710"/>
      <point x="112" y="710" type="curve"/>
      <point x="89" y="710"/>
      <point x="54" y="707"/>
      <point x="23" y="700" type="curve"/>
      <point x="31" y="662"/>
      <point x="35" y="617"/>
      <point x="35" y="560" type="curve" smooth="yes"/>
      <point x="35" y="45" type="line"/>
      <point x="35" y="-2"/>
      <point x="112" y="-10"/>
      <point x="174" y="-10" type="curve"/>
      <point x="199" y="-10"/>
      <point x="221" y="-7"/>
    </contour>
    <contour>
      <point x="565" y="-10" type="line"/>
      <point x="565" y="641" type="line"/>
      <point x="565" y="690"/>
      <point x="483" y="710"/>
      <point x="380" y="710" type="curve"/>
      <point x="355" y="710" type="line"/>
      <point x="355" y="655" type="line"/>
      <point x="355" y="447"/>
      <point x="398" y="85"/>
      <point x="463" y="20" type="curve" smooth="yes"/>
      <point x="481" y="2"/>
      <point x="497" y="-10"/>
      <point x="510" y="-10" type="curve"/>
    </contour>
    <contour>
      <point x="112" y="710" type="line"/>
      <point x="136" y="676"/>
      <point x="155" y="628"/>
      <point x="165" y="578" type="curve" smooth="yes"/>
      <point x="207" y="380"/>
      <point x="314" y="107"/>
      <point x="386" y="35" type="curve"/>
      <point x="415" y="6"/>
      <point x="450" y="-10"/>
      <point x="510" y="-10" type="curve" smooth="yes"/>
      <point x="514" y="-10"/>
      <point x="515" y="-10"/>
      <point x="519" y="-10" type="curve"/>
      <point x="545" y="-10"/>
      <point x="556" y="15"/>
      <point x="550" y="45" type="curve"/>
      <point x="391" y="201"/>
      <point x="319" y="431"/>
      <point x="265" y="657" type="curve"/>
      <point x="256" y="695"/>
      <point x="185" y="710"/>
      <point x="122" y="710" type="curve"/>
    </contour>
    <contour>
      <point x="294" y="711" type="move" name="top"/>
    </contour>
    <contour>
      <point x="294" y="-1" type="move" name="bottom"/>
    </contour>
  </outline>
</glyph>
<glyph name="O" format="1">
  <advance width="600"/>
  <unicode hex="004F"/>
  <outline>
    <contour>
      <point x="295" y="720" type="curve" smooth="yes"/>
      <point x="119" y="720"/>
      <point x="20" y="581"/>
      <point x="20" y="360" type="curve" smooth="yes"/>
      <point x="20" y="340" type="line" smooth="yes"/>
      <point x="20" y="104"/>
      <point x="105" y="-20"/>
      <point x="305" y="-20" type="curve" smooth="yes"/>
      <point x="334" y="-20"/>
      <point x="355" y="50"/>
      <point x="355" y="146" type="curve"/>
      <point x="277" y="146"/>
      <point x="248" y="181"/>
      <point x="248" y="347" type="curve" smooth="yes"/>
      <point x="248" y="360" type="line" smooth="yes"/>
      <point x="248" y="462"/>
      <point x="268" y="510"/>
      <point x="308" y="510" type="curve" smooth="yes"/>
      <point x="364" y="510"/>
      <point x="393" y="499"/>
      <point x="432" y="462" type="curve"/>
      <point x="504" y="586"/>
      <point x="417" y="720"/>
    </contour>
    <contour>
      <point x="305" y="-20" type="curve" smooth="yes"/>
      <point x="481" y="-20"/>
      <point x="580" y="120"/>
      <point x="580" y="340" type="curve" smooth="yes"/>
      <point x="580" y="360" type="line" smooth="yes"/>
      <point x="580" y="597"/>
      <point x="495" y="720"/>
      <point x="295" y="720" type="curve" smooth="yes"/>
      <point x="266" y="720"/>
      <point x="245" y="650"/>
      <point x="245" y="554" type="curve"/>
      <point x="323" y="554"/>
      <point x="352" y="524"/>
      <point x="352" y="373" type="curve" smooth="yes"/>
      <point x="352" y="360" type="line" smooth="yes"/>
      <point x="352" y="244"/>
      <point x="332" y="190"/>
      <point x="292" y="190" type="curve" smooth="yes"/>
      <point x="236" y="190"/>
      <point x="207" y="201"/>
      <point x="168" y="238" type="curve"/>
      <point x="113" y="143"/>
      <point x="176" y="-20"/>
    </contour>
    <contour>
      <point x="300" y="711" type="move" name="top"/>
    </contour>
    <contour>
      <point x="418" y="9" type="move" name="ogonek"/>
    </contour>
    <contour>
      <point x="300" y="-1" type="move" name="bottom"/>
    </contour>
  </outline>
</glyph>
<glyph name="Q" format="1">
  <advance width="600"/>
  <unicode hex="0051"/>
  <outline>
    <contour>
      <point x="295" y="720" type="curve" smooth="yes"/>
      <point x="119" y="720"/>
      <point x="20" y="581"/>
      <point x="20" y="360" type="curve" smooth="yes"/>
      <point x="20" y="340" type="line" smooth="yes"/>
      <point x="20" y="104"/>
      <point x="105" y="-20"/>
      <point x="305" y="-20" type="curve" smooth="yes"/>
      <point x="334" y="-20"/>
      <point x="355" y="50"/>
      <point x="355" y="146" type="curve"/>
      <point x="277" y="146"/>
      <point x="248" y="181"/>
      <point x="248" y="347" type="curve" smooth="yes"/>
      <point x="248" y="360" type="line" smooth="yes"/>
      <point x="248" y="462"/>
      <point x="268" y="510"/>
      <point x="308" y="510" type="curve" smooth="yes"/>
      <point x="364" y="510"/>
      <point x="393" y="499"/>
      <point x="432" y="462" type="curve"/>
      <point x="504" y="586"/>
      <point x="417" y="720"/>
    </contour>
    <contour>
      <point x="305" y="-20" type="curve" smooth="yes"/>
      <point x="481" y="-20"/>
      <point x="580" y="120"/>
      <point x="580" y="340" type="curve" smooth="yes"/>
      <point x="580" y="360" type="line" smooth="yes"/>
      <point x="580" y="597"/>
      <point x="495" y="720"/>
      <point x="295" y="720" type="curve" smooth="yes"/>
      <point x="266" y="720"/>
      <point x="245" y="650"/>
      <point x="245" y="554" type="curve"/>
      <point x="323" y="554"/>
      <point x="352" y="524"/>
      <point x="352" y="373" type="curve" smooth="yes"/>
      <point x="352" y="360" type="line" smooth="yes"/>
      <point x="352" y="244"/>
      <point x="332" y="190"/>
      <point x="292" y="190" type="curve" smooth="yes"/>
      <point x="236" y="190"/>
      <point x="207" y="201"/>
      <point x="168" y="238" type="curve"/>
      <point x="113" y="143"/>
      <point x="176" y="-20"/>
    </contour>
    <contour>
      <point x="427" y="148" type="line"/>
      <point x="299" y="53"/>
      <point x="288" y="41"/>
      <point x="299" y="15" type="curve" smooth="yes"/>
      <point x="355" y="-116" type="line" smooth="yes"/>
      <point x="385" y="-186"/>
      <point x="430" y="-220"/>
      <point x="485" y="-220" type="curve" smooth="yes"/>
      <point x="489" y="-220" type="line" smooth="yes"/>
      <point x="547" y="-220"/>
      <point x="583" y="-182"/>
      <point x="583" y="-87" type="curve" smooth="yes"/>
      <point x="583" y="-45"/>
      <point x="581" y="-18"/>
      <point x="574" y="13" type="curve"/>
      <point x="570" y="13" type="line"/>
      <point x="560" y="5"/>
      <point x="549" y="0"/>
      <point x="535" y="0" type="curve" smooth="yes"/>
      <point x="519" y="0"/>
      <point x="508" y="6"/>
      <point x="501" y="19" type="curve" smooth="yes"/>
    </contour>
  </outline>
</glyph>
<glyph name="U" format="1">
  <advance width="600"/>
  <unicode hex="0055"/>
  <outline>
    <contour>
      <point x="23" y="705" type="curve"/>
      <point x="31" y="663"/>
      <point x="35" y="616"/>
      <point x="35" y="560" type="curve" smooth="yes"/>
      <point x="35" y="174" type="line"/>
      <point x="35" y="121"/>
      <point x="136" y="79"/>
      <point x="212" y="79" type="curve"/>
      <point x="258" y="316"/>
      <point x="270" y="436"/>
      <point x="270" y="588" type="curve" smooth="yes"/>
      <point x="270" y="599" type="line"/>
      <point x="270" y="679"/>
      <point x="221" y="710"/>
      <point x="125" y="710" type="curve"/>
      <point x="89" y="710"/>
      <point x="56" y="708"/>
    </contour>
    <contour>
      <point x="193" y="-14" type="curve" smooth="yes"/>
      <point x="247" y="-14"/>
      <point x="306" y="32"/>
      <point x="351" y="103" type="curve" smooth="yes"/>
      <point x="365" y="125"/>
      <point x="378" y="182"/>
      <point x="359" y="255" type="curve"/>
      <point x="329" y="214"/>
      <point x="294" y="196"/>
      <point x="263" y="196" type="curve" smooth="yes"/>
      <point x="243" y="196"/>
      <point x="224" y="208"/>
      <point x="216" y="228" type="curve"/>
      <point x="69" y="223"/>
      <point x="35" y="194"/>
      <point x="35" y="174" type="curve" smooth="yes"/>
      <point x="35" y="88"/>
      <point x="121" y="-14"/>
    </contour>
    <contour>
      <point x="577" y="0" type="curve"/>
      <point x="569" y="38"/>
      <point x="565" y="83"/>
      <point x="565" y="140" type="curve" smooth="yes"/>
      <point x="565" y="624" type="line" smooth="yes"/>
      <point x="565" y="691"/>
      <point x="538" y="707"/>
      <point x="425" y="707" type="curve" smooth="yes"/>
      <point x="395" y="707"/>
      <point x="366" y="705"/>
      <point x="340" y="700" type="curve"/>
      <point x="340" y="106" type="line" smooth="yes"/>
      <point x="340" y="59"/>
      <point x="347" y="32"/>
      <point x="363" y="16" type="curve" smooth="yes"/>
      <point x="382" y="-3"/>
      <point x="414" y="-10"/>
      <point x="480" y="-10" type="curve" smooth="yes"/>
      <point x="514" y="-10"/>
      <point x="546" y="-7"/>
    </contour>
    <contour>
      <point x="300" y="711" type="move" name="top"/>
    </contour>
    <contour>
      <point x="578" y="0" type="move" name="ogonek"/>
    </contour>
    <contour>
      <point x="300" y="711" type="move" name="ring"/>
    </contour>
    <contour>
      <point x="300" y="-1" type="move" name="bottom"/>
    </contour>
  </outline>
</glyph>
<glyph name="V" format="1">
  <advance width="600"/>
  <unicode hex="0056"/>
  <outline>
    <contour>
      <point x="44" y="710" type="curve"/>
      <point x="20" y="710" type="line"/>
      <point x="34" y="250"/>
      <point x="95" y="123"/>
      <point x="181" y="37" type="curve" smooth="yes"/>
      <point x="227" y="-9"/>
      <point x="261" y="-10"/>
      <point x="296" y="-10" type="curve" smooth="yes"/>
      <point x="318" y="-10" type="line" smooth="yes"/>
      <point x="361" y="-10"/>
      <point x="388" y="42"/>
      <point x="403" y="88" type="curve"/>
      <point x="396" y="88"/>
      <point x="393" y="88"/>
      <point x="386" y="88" type="curve" smooth="yes"/>
      <point x="379" y="88"/>
      <point x="372" y="88"/>
      <point x="361" y="97" type="curve"/>
      <point x="294" y="150"/>
      <point x="258" y="277"/>
      <point x="248" y="654" type="curve"/>
      <point x="247" y="692"/>
      <point x="205" y="710"/>
    </contour>
    <contour>
      <point x="377" y="710" type="curve"/>
      <point x="353" y="710" type="line"/>
      <point x="332" y="291"/>
      <point x="328" y="193"/>
      <point x="245" y="125" type="curve"/>
      <point x="216" y="101"/>
      <point x="247" y="-10"/>
      <point x="307" y="-10" type="curve"/>
      <point x="385" y="-10" type="line"/>
      <point x="487" y="76"/>
      <point x="565" y="220"/>
      <point x="575" y="636" type="curve"/>
      <point x="576" y="679"/>
      <point x="528" y="710"/>
    </contour>
  </outline>
</glyph>
<glyph name="W" format="1">
  <advance width="600"/>
  <unicode hex="0057"/>
  <outline>
    <contour>
      <point x="18" y="703" type="curve"/>
      <point x="18" y="233"/>
      <point x="47" y="55"/>
      <point x="90" y="12" type="curve"/>
      <point x="105" y="-3"/>
      <point x="130" y="-10"/>
      <point x="153" y="-10" type="curve"/>
      <point x="186" y="-10" type="line" smooth="yes"/>
      <point x="203" y="-10"/>
      <point x="233" y="48"/>
      <point x="233" y="86" type="curve"/>
      <point x="207" y="101"/>
      <point x="192" y="221"/>
      <point x="192" y="656" type="curve"/>
      <point x="192" y="665"/>
      <point x="190" y="669"/>
      <point x="183" y="678" type="curve" smooth="yes"/>
      <point x="166" y="699"/>
      <point x="131" y="710"/>
      <point x="74" y="710" type="curve"/>
      <point x="56" y="710"/>
      <point x="37" y="708"/>
    </contour>
    <contour>
      <point x="405" y="705" type="curve"/>
      <point x="405" y="178"/>
      <point x="393" y="108"/>
      <point x="378" y="82" type="curve"/>
      <point x="380" y="30"/>
      <point x="398" y="-10"/>
      <point x="438" y="-10" type="curve"/>
      <point x="502" y="-10" type="line"/>
      <point x="548" y="43"/>
      <point x="579" y="239"/>
      <point x="579" y="646" type="curve"/>
      <point x="579" y="662"/>
      <point x="576" y="668"/>
      <point x="570" y="674" type="curve" smooth="yes"/>
      <point x="543" y="701"/>
      <point x="499" y="710"/>
      <point x="451" y="710" type="curve"/>
      <point x="436" y="710"/>
      <point x="420" y="709"/>
    </contour>
    <contour>
      <point x="258" y="610" type="curve"/>
      <point x="246" y="610" type="line"/>
      <point x="246" y="331"/>
      <point x="231" y="180"/>
      <point x="141" y="55" type="curve"/>
      <point x="142" y="18"/>
      <point x="145" y="-10"/>
      <point x="153" y="-10" type="curve"/>
      <point x="228" y="-10" type="line"/>
      <point x="319" y="134"/>
      <point x="319" y="412"/>
      <point x="319" y="560" type="curve"/>
      <point x="319" y="593"/>
      <point x="280" y="610"/>
    </contour>
    <contour>
      <point x="258" y="610" type="curve"/>
      <point x="253" y="610" type="line"/>
      <point x="253" y="480"/>
      <point x="305" y="76"/>
      <point x="362" y="14" type="curve"/>
      <point x="380" y="-5"/>
      <point x="407" y="-10"/>
      <point x="433" y="-10" type="curve"/>
      <point x="443" y="-10" type="line"/>
      <point x="459" y="-10"/>
      <point x="467" y="24"/>
      <point x="467" y="50" type="curve"/>
      <point x="399" y="98"/>
      <point x="351" y="313"/>
      <point x="351" y="570" type="curve"/>
      <point x="351" y="590"/>
      <point x="316" y="610"/>
    </contour>
    <contour>
      <point x="298" y="711" type="move" name="top"/>
    </contour>
  </outline>
</glyph>
<glyph name="Y" format="1">
  <advance width="600"/>
  <unicode hex="0059"/>
  <outline>
    <contour>
      <point x="18" y="710" type="line"/>
      <point x="40" y="470"/>
      <point x="86" y="306"/>
      <point x="165" y="227" type="curve"/>
      <point x="207" y="185"/>
      <point x="241" y="180"/>
      <point x="270" y="180" type="curve"/>
      <point x="340" y="180"/>
      <point x="391" y="227"/>
      <point x="391" y="302" type="curve"/>
      <point x="285" y="362"/>
      <point x="260" y="449"/>
      <point x="243" y="660" type="curve"/>
      <point x="240" y="696"/>
      <point x="148" y="710"/>
      <point x="42" y="710" type="curve" smooth="yes"/>
    </contour>
    <contour>
      <point x="363" y="710" type="line"/>
      <point x="351" y="479"/>
      <point x="326" y="400"/>
      <point x="257" y="344" type="curve"/>
      <point x="171" y="273"/>
      <point x="219" y="180"/>
      <point x="270" y="180" type="curve"/>
      <point x="390" y="180" type="line"/>
      <point x="478" y="255"/>
      <point x="563" y="438"/>
      <point x="577" y="636" type="curve"/>
      <point x="581" y="692"/>
      <point x="499" y="710"/>
      <point x="387" y="710" type="curve"/>
    </contour>
    <contour>
      <point x="426" y="0" type="curve"/>
      <point x="418" y="38"/>
      <point x="414" y="83"/>
      <point x="414" y="140" type="curve" smooth="yes"/>
      <point x="414" y="264" type="line" smooth="yes"/>
      <point x="414" y="349"/>
      <point x="339" y="350"/>
      <point x="188" y="350" type="curve"/>
      <point x="188" y="106" type="line" smooth="yes"/>
      <point x="188" y="59"/>
      <point x="195" y="32"/>
      <point x="211" y="16" type="curve" smooth="yes"/>
      <point x="230" y="-3"/>
      <point x="262" y="-10"/>
      <point x="328" y="-10" type="curve" smooth="yes"/>
      <point x="362" y="-10"/>
      <point x="395" y="-7"/>
    </contour>
    <contour>
      <point x="297" y="711" type="move" name="top"/>
    </contour>
  </outline>
</glyph>
<glyph name="Z" format="1">
  <advance width="600"/>
  <unicode hex="005A"/>
  <outline>
    <contour>
      <point x="67" y="700" type="line"/>
      <point x="62" y="676"/>
      <point x="60" y="649"/>
      <point x="60" y="622" type="curve" smooth="yes"/>
      <point x="60" y="576"/>
      <point x="72" y="530"/>
      <point x="88" y="514" type="curve" smooth="yes"/>
      <point x="107" y="495"/>
      <point x="124" y="490"/>
      <point x="168" y="490" type="curve" smooth="yes"/>
      <point x="234" y="490" type="line" smooth="yes"/>
      <point x="374" y="490"/>
      <point x="455" y="490"/>
      <point x="534" y="490" type="curve" smooth="yes"/>
      <point x="549" y="490"/>
      <point x="564" y="490"/>
      <point x="580" y="490" type="curve"/>
      <point x="580" y="499" type="line" smooth="yes"/>
      <point x="580" y="617"/>
      <point x="540" y="700"/>
      <point x="483" y="700" type="curve" smooth="yes"/>
    </contour>
    <contour>
      <point x="392" y="593" type="curve"/>
      <point x="333" y="396"/>
      <point x="242" y="300"/>
      <point x="18" y="187" type="curve"/>
      <point x="18" y="145"/>
      <point x="103" y="127"/>
      <point x="194" y="150" type="curve" smooth="yes"/>
      <point x="358" y="192"/>
      <point x="580" y="388"/>
      <point x="580" y="490" type="curve"/>
      <point x="580" y="551"/>
      <point x="503" y="593"/>
    </contour>
    <contour>
      <point x="575" y="0" type="line"/>
      <point x="579" y="23"/>
      <point x="582" y="59"/>
      <point x="582" y="89" type="curve" smooth="yes"/>
      <point x="582" y="126"/>
      <point x="567" y="169"/>
      <point x="547" y="189" type="curve" smooth="yes"/>
      <point x="531" y="205"/>
      <point x="518" y="210"/>
      <point x="492" y="210" type="curve" smooth="yes"/>
      <point x="480" y="210" type="line" smooth="yes"/>
      <point x="412" y="210"/>
      <point x="278" y="187"/>
      <point x="18" y="187" type="curve"/>
      <point x="18" y="178" type="line" smooth="yes"/>
      <point x="18" y="55"/>
      <point x="41" y="0"/>
      <point x="93" y="0" type="curve" smooth="yes"/>
    </contour>
    <contour>
      <point x="231" y="412" type="curve"/>
      <point x="231" y="489"/>
      <point x="243" y="590"/>
      <point x="243" y="643" type="curve"/>
      <point x="243" y="684"/>
      <point x="159" y="720"/>
      <point x="62" y="720" type="curve" smooth="yes"/>
      <point x="59" y="720" type="line"/>
      <point x="35" y="646"/>
      <point x="25" y="579"/>
      <point x="25" y="485" type="curve"/>
      <point x="25" y="416"/>
      <point x="48" y="400"/>
      <point x="145" y="400" type="curve" smooth="yes"/>
      <point x="179" y="400"/>
      <point x="207" y="404"/>
    </contour>
    <contour>
      <point x="300" y="711" type="move" name="top"/>
    </contour>
  </outline>
</glyph>
<glyph name="underscore" format="1">
  <advance width="600"/>
  <unicode hex="005F"/>
  <outline>
    <contour>
      <point x="44" y="-20" type="line"/>
      <point x="44" y="-28"/>
      <point x="44" y="-35"/>
      <point x="44" y="-44" type="curve" smooth="yes"/>
      <point x="44" y="-128"/>
      <point x="55" y="-176"/>
      <point x="79" y="-200" type="curve" smooth="yes"/>
      <point x="102" y="-222"/>
      <point x="132" y="-229"/>
      <point x="203" y="-229" type="curve"/>
      <point x="564" y="-229" type="line"/>
      <point x="571" y="-198"/>
      <point x="576" y="-163"/>
      <point x="576" y="-135" type="curve" smooth="yes"/>
      <point x="576" y="-43"/>
      <point x="551" y="-20"/>
      <point x="472" y="-20" type="curve"/>
    </contour>
  </outline>
</glyph>
<glyph name="a" format="1">
  <advance width="600"/>
  <unicode hex="0061"/>
  <outline>
    <contour>
      <point x="291" y="562" type="curve" smooth="yes"/>
      <point x="149" y="562"/>
      <point x="106" y="552"/>
      <point x="74" y="520" type="curve" smooth="yes"/>
      <point x="53" y="499"/>
      <point x="47" y="468"/>
      <point x="47" y="425" type="curve" smooth="yes"/>
      <point x="47" y="395"/>
      <point x="49" y="379"/>
      <point x="54" y="357" type="curve"/>
      <point x="58" y="357" type="line"/>
      <point x="114" y="375"/>
      <point x="174" y="381"/>
      <point x="232" y="381" type="curve" smooth="yes"/>
      <point x="339" y="381"/>
      <point x="432" y="353"/>
      <point x="472" y="303" type="curve"/>
      <point x="523" y="310"/>
      <point x="552" y="327"/>
      <point x="552" y="350" type="curve"/>
      <point x="552" y="460"/>
      <point x="431" y="562"/>
    </contour>
    <contour>
      <point x="376" y="479" type="curve"/>
      <point x="371" y="413"/>
      <point x="362" y="375"/>
      <point x="338" y="300" type="curve" smooth="yes"/>
      <point x="338" y="221"/>
      <point x="338" y="199"/>
      <point x="338" y="136" type="curve" smooth="yes"/>
      <point x="338" y="63"/>
      <point x="454" y="34"/>
      <point x="552" y="34" type="curve"/>
      <point x="552" y="84"/>
      <point x="552" y="96"/>
      <point x="552" y="130" type="curve" smooth="yes"/>
      <point x="552" y="221"/>
      <point x="552" y="276"/>
      <point x="552" y="350" type="curve" smooth="yes"/>
      <point x="552" y="440"/>
      <point x="482" y="479"/>
    </contour>
    <contour>
      <point x="592" y="200" type="line"/>
      <point x="589" y="200" type="line"/>
      <point x="587" y="200"/>
      <point x="586" y="200"/>
      <point x="584" y="200" type="curve" smooth="yes"/>
      <point x="549" y="200"/>
      <point x="522" y="209"/>
      <point x="487" y="239" type="curve"/>
      <point x="396" y="217"/>
      <point x="338" y="183"/>
      <point x="338" y="136" type="curve" smooth="yes"/>
      <point x="338" y="65"/>
      <point x="431" y="-10"/>
      <point x="534" y="-10" type="curve" smooth="yes"/>
      <point x="539" y="-10" type="line" smooth="yes"/>
      <point x="574" y="-10"/>
      <point x="592" y="44"/>
      <point x="592" y="187" type="curve"/>
    </contour>
    <contour>
      <point x="233" y="191" type="curve" smooth="yes"/>
      <point x="233" y="193" type="line" smooth="yes"/>
      <point x="233" y="221"/>
      <point x="242" y="243"/>
      <point x="265" y="261" type="curve"/>
      <point x="132" y="268"/>
      <point x="20" y="237"/>
      <point x="20" y="161" type="curve" smooth="yes"/>
      <point x="20" y="152" type="line" smooth="yes"/>
      <point x="20" y="57"/>
      <point x="81" y="-10"/>
      <point x="188" y="-10" type="curve" smooth="yes"/>
      <point x="273" y="-10"/>
      <point x="344" y="31"/>
      <point x="375" y="83" type="curve" smooth="yes"/>
      <point x="407" y="136"/>
      <point x="392" y="173"/>
      <point x="372" y="195" type="curve"/>
      <point x="332" y="172"/>
      <point x="306" y="165"/>
      <point x="266" y="165" type="curve" smooth="yes"/>
      <point x="263" y="165" type="line" smooth="yes"/>
      <point x="238" y="165"/>
      <point x="233" y="170"/>
    </contour>
    <contour>
      <point x="373" y="284" type="curve" smooth="yes"/>
      <point x="340" y="317"/>
      <point x="280" y="332"/>
      <point x="195" y="332" type="curve" smooth="yes"/>
      <point x="94" y="332"/>
      <point x="20" y="252"/>
      <point x="20" y="161" type="curve" smooth="yes"/>
      <point x="20" y="140"/>
      <point x="34" y="116"/>
      <point x="72" y="106" type="curve"/>
      <point x="151" y="204"/>
      <point x="202" y="225"/>
      <point x="282" y="225" type="curve" smooth="yes"/>
      <point x="318" y="225"/>
      <point x="360" y="220"/>
      <point x="398" y="205" type="curve"/>
      <point x="398" y="248"/>
      <point x="392" y="265"/>
    </contour>
    <contour>
      <point x="306" y="561" type="move" name="top"/>
    </contour>
    <contour>
      <point x="559" y="0" type="move" name="ogonek"/>
    </contour>
    <contour>
      <point x="300" y="-1" type="move" name="bottom"/>
    </contour>
  </outline>
</glyph>
<glyph name="e" format="1">
  <advance width="600"/>
  <unicode hex="0065"/>
  <outline>
    <contour>
      <point x="325" y="386" type="curve" smooth="yes"/>
      <point x="376" y="386"/>
      <point x="413" y="374"/>
      <point x="451" y="343" type="curve"/>
      <point x="464" y="365"/>
      <point x="475" y="387"/>
      <point x="475" y="413" type="curve"/>
      <point x="475" y="480"/>
      <point x="420" y="564"/>
      <point x="340" y="564" type="curve"/>
      <point x="157" y="564"/>
      <point x="30" y="436"/>
      <point x="30" y="261" type="curve" smooth="yes"/>
      <point x="30" y="251" type="line" smooth="yes"/>
      <point x="30" y="90"/>
      <point x="137" y="-14"/>
      <point x="328" y="-14" type="curve" smooth="yes"/>
      <point x="351" y="-14"/>
      <point x="368" y="7"/>
      <point x="370" y="54" type="curve"/>
      <point x="261" y="98"/>
      <point x="242" y="174"/>
      <point x="242" y="244" type="curve" smooth="yes"/>
      <point x="242" y="287" type="line" smooth="yes"/>
      <point x="242" y="350"/>
      <point x="271" y="386"/>
    </contour>
    <contour>
      <point x="526" y="24" type="curve" smooth="yes"/>
      <point x="550" y="48"/>
      <point x="561" y="84"/>
      <point x="561" y="132" type="curve" smooth="yes"/>
      <point x="561" y="157"/>
      <point x="558" y="179"/>
      <point x="552" y="205" type="curve"/>
      <point x="548" y="205" type="line"/>
      <point x="475" y="170"/>
      <point x="420" y="160"/>
      <point x="330" y="160" type="curve" smooth="yes"/>
      <point x="249" y="160"/>
      <point x="186" y="187"/>
      <point x="111" y="248" type="curve"/>
      <point x="44" y="121"/>
      <point x="149" y="-14"/>
      <point x="328" y="-14" type="curve" smooth="yes"/>
      <point x="433" y="-14"/>
      <point x="498" y="-4"/>
    </contour>
    <contour>
      <point x="344" y="217" type="line" smooth="yes"/>
      <point x="526" y="217"/>
      <point x="570" y="278"/>
      <point x="570" y="366" type="curve" smooth="yes"/>
      <point x="570" y="369" type="line" smooth="yes"/>
      <point x="570" y="464"/>
      <point x="477" y="564"/>
      <point x="339" y="564" type="curve" smooth="yes"/>
      <point x="316" y="564"/>
      <point x="299" y="513"/>
      <point x="299" y="440" type="curve"/>
      <point x="351" y="440"/>
      <point x="374" y="410"/>
      <point x="374" y="347" type="curve" smooth="yes"/>
      <point x="374" y="344" type="line" smooth="yes"/>
      <point x="374" y="322"/>
      <point x="356" y="310"/>
      <point x="320" y="310" type="curve" smooth="yes"/>
      <point x="287" y="310"/>
      <point x="257" y="310"/>
      <point x="202" y="334" type="curve"/>
      <point x="192" y="304"/>
      <point x="190" y="279"/>
      <point x="209" y="260" type="curve" smooth="yes"/>
      <point x="233" y="236"/>
      <point x="278" y="217"/>
      <point x="341" y="217" type="curve" smooth="yes"/>
    </contour>
    <contour>
      <point x="300" y="561" type="move" name="top"/>
    </contour>
    <contour>
      <point x="531" y="29" type="move" name="ogonek"/>
    </contour>
    <contour>
      <point x="300" y="-1" type="move" name="bottom"/>
    </contour>
  </outline>
</glyph>
<glyph name="h" format="1">
  <advance width="600"/>
  <unicode hex="0068"/>
  <outline>
    <contour>
      <point x="255" y="0" type="curve"/>
      <point x="255" y="644" type="line" smooth="yes"/>
      <point x="255" y="691"/>
      <point x="248" y="718"/>
      <point x="232" y="734" type="curve" smooth="yes"/>
      <point x="213" y="753"/>
      <point x="183" y="760"/>
      <point x="120" y="760" type="curve" smooth="yes"/>
      <point x="86" y="760"/>
      <point x="54" y="757"/>
      <point x="23" y="750" type="curve"/>
      <point x="31" y="712"/>
      <point x="35" y="667"/>
      <point x="35" y="610" type="curve" smooth="yes"/>
      <point x="35" y="76" type="line" smooth="yes"/>
      <point x="35" y="9"/>
      <point x="61" y="-7"/>
      <point x="170" y="-7" type="curve" smooth="yes"/>
      <point x="200" y="-7"/>
      <point x="229" y="-5"/>
    </contour>
    <contour>
      <point x="402" y="564" type="curve" smooth="yes"/>
      <point x="328" y="564"/>
      <point x="251" y="486"/>
      <point x="227" y="403" type="curve" smooth="yes"/>
      <point x="216" y="366"/>
      <point x="221" y="326"/>
      <point x="249" y="275" type="curve"/>
      <point x="264" y="333"/>
      <point x="298" y="354"/>
      <point x="328" y="354" type="curve" smooth="yes"/>
      <point x="356" y="354"/>
      <point x="380" y="345"/>
      <point x="383" y="322" type="curve"/>
      <point x="535" y="322"/>
      <point x="565" y="356"/>
      <point x="565" y="376" type="curve" smooth="yes"/>
      <point x="565" y="462"/>
      <point x="476" y="564"/>
    </contour>
    <contour>
      <point x="577" y="-5" type="curve"/>
      <point x="569" y="37"/>
      <point x="565" y="84"/>
      <point x="565" y="140" type="curve" smooth="yes"/>
      <point x="565" y="376" type="line"/>
      <point x="565" y="429"/>
      <point x="474" y="471"/>
      <point x="376" y="471" type="curve"/>
      <point x="342" y="308"/>
      <point x="332" y="204"/>
      <point x="332" y="86" type="curve" smooth="yes"/>
      <point x="332" y="82" type="line" smooth="yes"/>
      <point x="332" y="13"/>
      <point x="373" y="-10"/>
      <point x="475" y="-10" type="curve" smooth="yes"/>
      <point x="511" y="-10"/>
      <point x="544" y="-8"/>
    </contour>
    <contour>
      <point x="140" y="730" type="move" name="top"/>
    </contour>
  </outline>
</glyph>
<glyph name="i" format="1">
  <advance width="600"/>
  <unicode hex="0069"/>
  <outline>
    <contour>
      <point x="36" y="550" type="curve"/>
      <point x="29" y="521"/>
      <point x="25" y="494"/>
      <point x="25" y="469" type="curve" smooth="yes"/>
      <point x="25" y="388"/>
      <point x="40" y="328"/>
      <point x="84" y="328" type="curve" smooth="yes"/>
      <point x="127" y="328"/>
      <point x="168" y="339"/>
      <point x="253" y="376" type="curve"/>
      <point x="253" y="490"/>
      <point x="233" y="560"/>
      <point x="200" y="560" type="curve" smooth="yes"/>
      <point x="145" y="560"/>
      <point x="103" y="557"/>
    </contour>
    <contour>
      <point x="407" y="528" type="curve" smooth="yes"/>
      <point x="385" y="550"/>
      <point x="324" y="560"/>
      <point x="210" y="560" type="curve" smooth="yes"/>
      <point x="200" y="560" type="line"/>
      <point x="200" y="281" type="line" smooth="yes"/>
      <point x="200" y="153"/>
      <point x="283" y="77"/>
      <point x="423" y="77" type="curve"/>
      <point x="423" y="489" type="line" smooth="yes"/>
      <point x="423" y="508"/>
      <point x="420" y="515"/>
    </contour>
    <contour>
      <point x="27" y="210" type="line"/>
      <point x="22" y="183"/>
      <point x="19" y="158"/>
      <point x="19" y="131" type="curve" smooth="yes"/>
      <point x="19" y="74"/>
      <point x="28" y="40"/>
      <point x="48" y="20" type="curve" smooth="yes"/>
      <point x="63" y="5"/>
      <point x="82" y="0"/>
      <point x="129" y="0" type="curve"/>
      <point x="573" y="0" type="line"/>
      <point x="578" y="19"/>
      <point x="583" y="44"/>
      <point x="583" y="74" type="curve" smooth="yes"/>
      <point x="583" y="169"/>
      <point x="528" y="210"/>
      <point x="410" y="210" type="curve"/>
    </contour>
    <contour>
      <point x="440" y="622" type="curve"/>
      <point x="440" y="718" type="line" smooth="yes"/>
      <point x="440" y="778"/>
      <point x="374" y="787"/>
      <point x="288" y="787" type="curve" smooth="yes"/>
      <point x="253" y="787"/>
      <point x="208" y="783"/>
      <point x="170" y="777" type="curve"/>
      <point x="170" y="681" type="line" smooth="yes"/>
      <point x="170" y="621"/>
      <point x="236" y="612"/>
      <point x="322" y="612" type="curve" smooth="yes"/>
      <point x="357" y="612"/>
      <point x="402" y="616"/>
    </contour>
    <contour>
      <point x="574" y="0" type="move" name="ogonek"/>
    </contour>
    <contour>
      <point x="301" y="-1" type="move" name="bottom"/>
    </contour>
  </outline>
</glyph>
<glyph name="j" format="1">
  <advance width="600"/>
  <unicode hex="006A"/>
  <outline>
    <contour>
      <point x="66" y="550" type="curve"/>
      <point x="60" y="527"/>
      <point x="55" y="499"/>
      <point x="55" y="469" type="curve" smooth="yes"/>
      <point x="55" y="394"/>
      <point x="74" y="340"/>
      <point x="124" y="340" type="curve" smooth="yes"/>
      <point x="173" y="340"/>
      <point x="251" y="354"/>
      <point x="383" y="383" type="curve"/>
      <point x="383" y="437"/>
      <point x="378" y="560"/>
      <point x="315" y="560" type="curve" smooth="yes"/>
      <point x="220" y="560"/>
      <point x="156" y="560"/>
    </contour>
    <contour>
      <point x="535" y="25" type="curve" smooth="yes"/>
      <point x="535" y="486" type="line" smooth="yes"/>
      <point x="535" y="504"/>
      <point x="530" y="517"/>
      <point x="521" y="526" type="curve" smooth="yes"/>
      <point x="495" y="552"/>
      <point x="395" y="560"/>
      <point x="325" y="560" type="curve" smooth="yes"/>
      <point x="315" y="560" type="line"/>
      <point x="315" y="75" type="line" smooth="yes"/>
      <point x="315" y="-10"/>
      <point x="303" y="-47"/>
      <point x="247" y="-103" type="curve"/>
      <point x="327" y="-202"/>
      <point x="535" y="-107"/>
    </contour>
    <contour>
      <point x="221" y="-35" type="curve" smooth="yes"/>
      <point x="146" y="-35"/>
      <point x="101" y="-17"/>
      <point x="42" y="9" type="curve"/>
      <point x="38" y="9" type="line"/>
      <point x="31" y="-27"/>
      <point x="30" y="-58"/>
      <point x="30" y="-89" type="curve" smooth="yes"/>
      <point x="30" y="-142"/>
      <point x="43" y="-191"/>
      <point x="62" y="-210" type="curve" smooth="yes"/>
      <point x="90" y="-238"/>
      <point x="142" y="-250"/>
      <point x="252" y="-250" type="curve" smooth="yes"/>
      <point x="407" y="-250"/>
      <point x="535" y="-134"/>
      <point x="535" y="25" type="curve" smooth="yes"/>
      <point x="535" y="57"/>
      <point x="513" y="82"/>
      <point x="462" y="82" type="curve"/>
      <point x="412" y="-37"/>
      <point x="285" y="-35"/>
    </contour>
    <contour>
      <point x="550" y="622" type="curve"/>
      <point x="550" y="718" type="line" smooth="yes"/>
      <point x="550" y="778"/>
      <point x="484" y="787"/>
      <point x="398" y="787" type="curve" smooth="yes"/>
      <point x="363" y="787"/>
      <point x="318" y="783"/>
      <point x="280" y="777" type="curve"/>
      <point x="280" y="681" type="line" smooth="yes"/>
      <point x="280" y="621"/>
      <point x="346" y="612"/>
      <point x="432" y="612" type="curve" smooth="yes"/>
      <point x="467" y="612"/>
      <point x="512" y="616"/>
    </contour>
  </outline>
</glyph>
<glyph name="l" format="1">
  <advance width="600"/>
  <unicode hex="006C"/>
  <outline>
    <contour>
      <point x="36" y="750" type="curve"/>
      <point x="29" y="721"/>
      <point x="25" y="694"/>
      <point x="25" y="669" type="curve" smooth="yes"/>
      <point x="25" y="588"/>
      <point x="40" y="528"/>
      <point x="84" y="528" type="curve" smooth="yes"/>
      <point x="127" y="528"/>
      <point x="168" y="539"/>
      <point x="253" y="576" type="curve"/>
      <point x="253" y="690"/>
      <point x="233" y="760"/>
      <point x="200" y="760" type="curve" smooth="yes"/>
      <point x="145" y="760"/>
      <point x="103" y="757"/>
    </contour>
    <contour>
      <point x="407" y="728" type="curve" smooth="yes"/>
      <point x="385" y="750"/>
      <point x="324" y="760"/>
      <point x="210" y="760" type="curve" smooth="yes"/>
      <point x="200" y="760" type="line"/>
      <point x="200" y="281" type="line" smooth="yes"/>
      <point x="200" y="153"/>
      <point x="283" y="77"/>
      <point x="423" y="77" type="curve"/>
      <point x="423" y="689" type="line" smooth="yes"/>
      <point x="423" y="708"/>
      <point x="420" y="715"/>
    </contour>
    <contour>
      <point x="27" y="210" type="line"/>
      <point x="22" y="183"/>
      <point x="19" y="158"/>
      <point x="19" y="131" type="curve" smooth="yes"/>
      <point x="19" y="74"/>
      <point x="28" y="40"/>
      <point x="48" y="20" type="curve" smooth="yes"/>
      <point x="63" y="5"/>
      <point x="82" y="0"/>
      <point x="129" y="0" type="curve"/>
      <point x="573" y="0" type="line"/>
      <point x="578" y="19"/>
      <point x="583" y="44"/>
      <point x="583" y="74" type="curve" smooth="yes"/>
      <point x="583" y="169"/>
      <point x="528" y="210"/>
      <point x="410" y="210" type="curve"/>
    </contour>
    <contour>
      <point x="511" y="661" type="move" name="caronslovak"/>
    </contour>
    <contour>
      <point x="301" y="730" type="move" name="top"/>
    </contour>
    <contour>
      <point x="451" y="400" type="move" name="dot"/>
    </contour>
    <contour>
      <point x="301" y="-1" type="move" name="bottom"/>
    </contour>
  </outline>
</glyph>
<glyph name="n" format="1">
  <advance width="600"/>
  <unicode hex="006E"/>
  <outline>
    <contour>
      <point x="255" y="0" type="curve"/>
      <point x="255" y="444" type="line" smooth="yes"/>
      <point x="255" y="491"/>
      <point x="248" y="518"/>
      <point x="232" y="534" type="curve" smooth="yes"/>
      <point x="213" y="553"/>
      <point x="183" y="560"/>
      <point x="120" y="560" type="curve" smooth="yes"/>
      <point x="86" y="560"/>
      <point x="54" y="557"/>
      <point x="23" y="550" type="curve"/>
      <point x="31" y="512"/>
      <point x="35" y="467"/>
      <point x="35" y="410" type="curve" smooth="yes"/>
      <point x="35" y="76" type="line" smooth="yes"/>
      <point x="35" y="9"/>
      <point x="61" y="-7"/>
      <point x="170" y="-7" type="curve" smooth="yes"/>
      <point x="200" y="-7"/>
      <point x="229" y="-5"/>
    </contour>
    <contour>
      <point x="402" y="564" type="curve" smooth="yes"/>
      <point x="328" y="564"/>
      <point x="251" y="486"/>
      <point x="227" y="403" type="curve" smooth="yes"/>
      <point x="216" y="366"/>
      <point x="221" y="326"/>
      <point x="249" y="275" type="curve"/>
      <point x="264" y="333"/>
      <point x="298" y="354"/>
      <point x="328" y="354" type="curve" smooth="yes"/>
      <point x="356" y="354"/>
      <point x="380" y="345"/>
      <point x="383" y="322" type="curve"/>
      <point x="535" y="322"/>
      <point x="565" y="356"/>
      <point x="565" y="376" type="curve" smooth="yes"/>
      <point x="565" y="462"/>
      <point x="484" y="564"/>
    </contour>
    <contour>
      <point x="577" y="-5" type="curve"/>
      <point x="569" y="37"/>
      <point x="565" y="84"/>
      <point x="565" y="140" type="curve" smooth="yes"/>
      <point x="565" y="376" type="line"/>
      <point x="565" y="429"/>
      <point x="474" y="471"/>
      <point x="376" y="471" type="curve"/>
      <point x="342" y="308"/>
      <point x="332" y="204"/>
      <point x="332" y="86" type="curve" smooth="yes"/>
      <point x="332" y="82" type="line" smooth="yes"/>
      <point x="332" y="13"/>
      <point x="373" y="-10"/>
      <point x="475" y="-10" type="curve" smooth="yes"/>
      <point x="511" y="-10"/>
      <point x="544" y="-8"/>
    </contour>
    <contour>
      <point x="110" y="711" type="move" name="caronslovak"/>
    </contour>
    <contour>
      <point x="300" y="561" type="move" name="top"/>
    </contour>
    <contour>
      <point x="300" y="-1" type="move" name="bottom"/>
    </contour>
  </outline>
</glyph>
<glyph name="p" format="1">
  <advance width="600"/>
  <unicode hex="0070"/>
  <outline>
    <contour>
      <point x="260" y="-193" type="curve"/>
      <point x="260" y="444" type="line" smooth="yes"/>
      <point x="260" y="491"/>
      <point x="253" y="518"/>
      <point x="237" y="534" type="curve" smooth="yes"/>
      <point x="218" y="553"/>
      <point x="186" y="560"/>
      <point x="120" y="560" type="curve"/>
      <point x="86" y="560"/>
      <point x="54" y="557"/>
      <point x="23" y="550" type="curve"/>
      <point x="31" y="512"/>
      <point x="35" y="467"/>
      <point x="35" y="410" type="curve" smooth="yes"/>
      <point x="35" y="-117" type="line" smooth="yes"/>
      <point x="35" y="-184"/>
      <point x="62" y="-200"/>
      <point x="175" y="-200" type="curve"/>
      <point x="205" y="-200"/>
      <point x="234" y="-198"/>
    </contour>
    <contour>
      <point x="420" y="562" type="curve" smooth="yes"/>
      <point x="359" y="562"/>
      <point x="297" y="532"/>
      <point x="255" y="470" type="curve" smooth="yes"/>
      <point x="207" y="399"/>
      <point x="219" y="327"/>
      <point x="253" y="295" type="curve"/>
      <point x="270" y="342"/>
      <point x="296" y="360"/>
      <point x="320" y="360" type="curve" smooth="yes"/>
      <point x="350" y="360"/>
      <point x="373" y="348"/>
      <point x="380" y="320" type="curve"/>
      <point x="408" y="320"/>
      <point x="572" y="346"/>
      <point x="572" y="384" type="curve" smooth="yes"/>
      <point x="572" y="479"/>
      <point x="490" y="562"/>
    </contour>
    <contour>
      <point x="390" y="-10" type="curve" smooth="yes"/>
      <point x="509" y="-10"/>
      <point x="572" y="75"/>
      <point x="572" y="376" type="curve" smooth="yes"/>
      <point x="572" y="384" type="line" smooth="yes"/>
      <point x="572" y="440"/>
      <point x="525" y="489"/>
      <point x="450" y="489" type="curve" smooth="yes"/>
      <point x="390" y="489"/>
      <point x="356" y="478"/>
      <point x="328" y="451" type="curve"/>
      <point x="341" y="416"/>
      <point x="348" y="369"/>
      <point x="348" y="291" type="curve" smooth="yes"/>
      <point x="348" y="284" type="line" smooth="yes"/>
      <point x="348" y="178"/>
      <point x="323" y="165"/>
      <point x="295" y="165" type="curve" smooth="yes"/>
      <point x="260" y="165"/>
      <point x="231" y="175"/>
      <point x="211" y="192" type="curve"/>
      <point x="191" y="158"/>
      <point x="211" y="96"/>
      <point x="255" y="52" type="curve" smooth="yes"/>
      <point x="289" y="18"/>
      <point x="339" y="-10"/>
    </contour>
  </outline>
</glyph>
<glyph name="r" format="1">
  <advance width="600"/>
  <unicode hex="0072"/>
  <outline>
    <contour>
      <point x="19" y="550" type="curve"/>
      <point x="11" y="503"/>
      <point x="8" y="478"/>
      <point x="8" y="447" type="curve" smooth="yes"/>
      <point x="8" y="378"/>
      <point x="24" y="340"/>
      <point x="53" y="340" type="curve" smooth="yes"/>
      <point x="95" y="340"/>
      <point x="185" y="351"/>
      <point x="236" y="363" type="curve"/>
      <point x="236" y="460"/>
      <point x="214" y="560"/>
      <point x="193" y="560" type="curve" smooth="yes"/>
      <point x="122" y="560"/>
      <point x="49" y="556"/>
    </contour>
    <contour>
      <point x="363" y="77" type="curve"/>
      <point x="363" y="397" type="line" smooth="yes"/>
      <point x="363" y="457"/>
      <point x="275" y="560"/>
      <point x="193" y="560" type="curve" smooth="yes"/>
      <point x="175" y="560"/>
      <point x="158" y="556"/>
      <point x="140" y="548" type="curve"/>
      <point x="140" y="281" type="line" smooth="yes"/>
      <point x="140" y="153"/>
      <point x="223" y="77"/>
    </contour>
    <contour>
      <point x="27" y="210" type="line"/>
      <point x="22" y="183"/>
      <point x="19" y="158"/>
      <point x="19" y="131" type="curve" smooth="yes"/>
      <point x="19" y="74"/>
      <point x="28" y="40"/>
      <point x="48" y="20" type="curve" smooth="yes"/>
      <point x="63" y="5"/>
      <point x="82" y="0"/>
      <point x="129" y="0" type="curve"/>
      <point x="523" y="0" type="line"/>
      <point x="528" y="19"/>
      <point x="533" y="44"/>
      <point x="533" y="74" type="curve" smooth="yes"/>
      <point x="533" y="169"/>
      <point x="478" y="210"/>
      <point x="360" y="210" type="curve"/>
    </contour>
    <contour>
      <point x="350" y="255" type="curve"/>
      <point x="369" y="325"/>
      <point x="399" y="350"/>
      <point x="457" y="350" type="curve" smooth="yes"/>
      <point x="499" y="350"/>
      <point x="519" y="346"/>
      <point x="569" y="321" type="curve"/>
      <point x="573" y="321" type="line"/>
      <point x="584" y="354"/>
      <point x="590" y="387"/>
      <point x="590" y="430" type="curve"/>
      <point x="590" y="521"/>
      <point x="559" y="570"/>
      <point x="502" y="570" type="curve" smooth="yes"/>
      <point x="497" y="570" type="line" smooth="yes"/>
      <point x="430" y="570"/>
      <point x="360" y="534"/>
      <point x="326" y="453" type="curve" smooth="yes"/>
      <point x="307" y="410"/>
      <point x="326" y="321"/>
    </contour>
    <contour>
      <point x="299" y="561" type="move" name="top"/>
    </contour>
    <contour>
      <point x="299" y="-1" type="move" name="bottom"/>
    </contour>
  </outline>
</glyph>
<glyph name="s" format="1">
  <advance width="600"/>
  <unicode hex="0073"/>
  <outline>
    <contour>
      <point x="338" y="560" type="curve" smooth="yes"/>
      <point x="327" y="560" type="line" smooth="yes"/>
      <point x="139" y="560"/>
      <point x="40" y="509"/>
      <point x="40" y="395" type="curve" smooth="yes"/>
      <point x="40" y="321"/>
      <point x="133" y="272"/>
      <point x="265" y="272" type="curve"/>
      <point x="250" y="299"/>
      <point x="245" y="331"/>
      <point x="245" y="349" type="curve" smooth="yes"/>
      <point x="245" y="363"/>
      <point x="252" y="372"/>
      <point x="304" y="372" type="curve" smooth="yes"/>
      <point x="432" y="372"/>
      <point x="510" y="357"/>
      <point x="550" y="336" type="curve"/>
      <point x="554" y="336" type="line"/>
      <point x="558" y="357"/>
      <point x="560" y="379"/>
      <point x="560" y="398" type="curve"/>
      <point x="560" y="467"/>
      <point x="553" y="488"/>
      <point x="526" y="515" type="curve" smooth="yes"/>
      <point x="500" y="541"/>
      <point x="447" y="560"/>
    </contour>
    <contour>
      <point x="378" y="314" type="curve" smooth="yes"/>
      <point x="300" y="324" type="line" smooth="yes"/>
      <point x="256" y="330"/>
      <point x="245" y="338"/>
      <point x="245" y="349" type="curve" smooth="yes"/>
      <point x="245" y="385"/>
      <point x="250" y="415"/>
      <point x="266" y="443" type="curve"/>
      <point x="80" y="442"/>
      <point x="40" y="425"/>
      <point x="40" y="395" type="curve"/>
      <point x="40" y="298"/>
      <point x="93" y="259"/>
      <point x="261" y="234" type="curve" smooth="yes"/>
      <point x="334" y="223" type="line" smooth="yes"/>
      <point x="367" y="218"/>
      <point x="379" y="212"/>
      <point x="379" y="193" type="curve" smooth="yes"/>
      <point x="379" y="153"/>
      <point x="377" y="119"/>
      <point x="363" y="84" type="curve"/>
      <point x="526" y="84"/>
      <point x="580" y="108"/>
      <point x="580" y="148" type="curve" smooth="yes"/>
      <point x="580" y="243"/>
      <point x="522" y="296"/>
    </contour>
    <contour>
      <point x="304" y="180" type="curve" smooth="yes"/>
      <point x="175" y="180"/>
      <point x="117" y="188"/>
      <point x="39" y="221" type="curve"/>
      <point x="35" y="221" type="line"/>
      <point x="27" y="195"/>
      <point x="25" y="171"/>
      <point x="25" y="138" type="curve" smooth="yes"/>
      <point x="25" y="84"/>
      <point x="34" y="61"/>
      <point x="56" y="39" type="curve" smooth="yes"/>
      <point x="81" y="14"/>
      <point x="135" y="-10"/>
      <point x="295" y="-10" type="curve" smooth="yes"/>
      <point x="307" y="-10" type="line" smooth="yes"/>
      <point x="524" y="-10"/>
      <point x="580" y="52"/>
      <point x="580" y="148" type="curve" smooth="yes"/>
      <point x="580" y="178"/>
      <point x="528" y="227"/>
      <point x="393" y="227" type="curve"/>
      <point x="398" y="217"/>
      <point x="400" y="209"/>
      <point x="400" y="201" type="curve" smooth="yes"/>
      <point x="400" y="188"/>
      <point x="369" y="180"/>
    </contour>
    <contour>
      <point x="302" y="561" type="move" name="top"/>
    </contour>
    <contour>
      <point x="302" y="-1" type="move" name="bottom"/>
    </contour>
  </outline>
</glyph>
<glyph name="t" format="1">
  <advance width="600"/>
  <unicode hex="0074"/>
  <outline>
    <contour>
      <point x="140" y="702" type="curve"/>
      <point x="140" y="195" type="line" smooth="yes"/>
      <point x="140" y="132"/>
      <point x="242" y="66"/>
      <point x="402" y="137" type="curve"/>
      <point x="374" y="161"/>
      <point x="365" y="191"/>
      <point x="365" y="246" type="curve" smooth="yes"/>
      <point x="365" y="626" type="line" smooth="yes"/>
      <point x="365" y="693"/>
      <point x="349" y="709"/>
      <point x="227" y="709" type="curve" smooth="yes"/>
      <point x="197" y="709"/>
      <point x="166" y="707"/>
    </contour>
    <contour>
      <point x="562" y="234" type="curve"/>
      <point x="558" y="234" type="line"/>
      <point x="502" y="209"/>
      <point x="454" y="200"/>
      <point x="379" y="200" type="curve" smooth="yes"/>
      <point x="331" y="200"/>
      <point x="250" y="215"/>
      <point x="210" y="248" type="curve"/>
      <point x="156" y="253"/>
      <point x="140" y="224"/>
      <point x="140" y="195" type="curve" smooth="yes"/>
      <point x="140" y="99"/>
      <point x="233" y="-10"/>
      <point x="360" y="-10" type="curve" smooth="yes"/>
      <point x="370" y="-10" type="line" smooth="yes"/>
      <point x="441" y="-10"/>
      <point x="511" y="6"/>
      <point x="537" y="32" type="curve" smooth="yes"/>
      <point x="562" y="57"/>
      <point x="570" y="108"/>
      <point x="570" y="161" type="curve" smooth="yes"/>
      <point x="570" y="184"/>
      <point x="568" y="205"/>
    </contour>
    <contour>
      <point x="21" y="550" type="line"/>
      <point x="21" y="544"/>
      <point x="21" y="538"/>
      <point x="21" y="531" type="curve" smooth="yes"/>
      <point x="21" y="454"/>
      <point x="24" y="406"/>
      <point x="48" y="382" type="curve" smooth="yes"/>
      <point x="73" y="357"/>
      <point x="106" y="340"/>
      <point x="197" y="340" type="curve" smooth="yes"/>
      <point x="565" y="340" type="line"/>
      <point x="570" y="360"/>
      <point x="572" y="396"/>
      <point x="572" y="423" type="curve" smooth="yes"/>
      <point x="572" y="520"/>
      <point x="555" y="550"/>
      <point x="499" y="550" type="curve" smooth="yes"/>
    </contour>
    <contour>
      <point x="501" y="711" type="move" name="caronslovak"/>
    </contour>
    <contour>
      <point x="366" y="-1" type="move" name="bottom"/>
    </contour>
  </outline>
</glyph>
<glyph name="v" format="1">
  <advance width="600"/>
  <unicode hex="0076"/>
  <outline>
    <contour>
      <point x="384" y="560" type="curve" smooth="yes"/>
      <point x="360" y="560" type="line"/>
      <point x="329" y="231"/>
      <point x="315" y="172"/>
      <point x="232" y="104" type="curve"/>
      <point x="203" y="80"/>
      <point x="239" y="-10"/>
      <point x="299" y="-10" type="curve"/>
      <point x="385" y="-10" type="line"/>
      <point x="487" y="76"/>
      <point x="555" y="270"/>
      <point x="575" y="486" type="curve"/>
      <point x="579" y="529"/>
      <point x="551" y="560"/>
    </contour>
    <contour>
      <point x="44" y="560" type="curve" smooth="yes"/>
      <point x="20" y="560" type="line"/>
      <point x="44" y="300"/>
      <point x="91" y="130"/>
      <point x="184" y="37" type="curve"/>
      <point x="224" y="-3"/>
      <point x="253" y="-10"/>
      <point x="288" y="-10" type="curve" smooth="yes"/>
      <point x="314" y="-10" type="line" smooth="yes"/>
      <point x="353" y="-10"/>
      <point x="398" y="18"/>
      <point x="414" y="67" type="curve"/>
      <point x="407" y="67"/>
      <point x="404" y="67"/>
      <point x="397" y="67" type="curve" smooth="yes"/>
      <point x="390" y="67"/>
      <point x="383" y="67"/>
      <point x="372" y="76" type="curve"/>
      <point x="305" y="129"/>
      <point x="280" y="222"/>
      <point x="250" y="492" type="curve"/>
      <point x="246" y="533"/>
      <point x="212" y="560"/>
    </contour>
  </outline>
</glyph>
<glyph name="w" format="1">
  <advance width="600"/>
  <unicode hex="0077"/>
  <outline>
    <contour>
      <point x="28" y="555" type="curve"/>
      <point x="28" y="245"/>
      <point x="43" y="89"/>
      <point x="120" y="12" type="curve" smooth="yes"/>
      <point x="135" y="-3"/>
      <point x="160" y="-10"/>
      <point x="183" y="-10" type="curve" smooth="yes"/>
      <point x="186" y="-10" type="line" smooth="yes"/>
      <point x="203" y="-10"/>
      <point x="233" y="48"/>
      <point x="233" y="86" type="curve" smooth="yes"/>
      <point x="197" y="107"/>
      <point x="192" y="210"/>
      <point x="192" y="506" type="curve"/>
      <point x="192" y="515"/>
      <point x="190" y="519"/>
      <point x="183" y="528" type="curve" smooth="yes"/>
      <point x="166" y="549"/>
      <point x="131" y="560"/>
      <point x="74" y="560" type="curve"/>
      <point x="59" y="560"/>
      <point x="43" y="559"/>
    </contour>
    <contour>
      <point x="258" y="490" type="curve" smooth="yes"/>
      <point x="246" y="490" type="line"/>
      <point x="246" y="271"/>
      <point x="217" y="161"/>
      <point x="141" y="55" type="curve"/>
      <point x="142" y="18"/>
      <point x="155" y="-10"/>
      <point x="183" y="-10" type="curve"/>
      <point x="228" y="-10" type="line"/>
      <point x="304" y="111"/>
      <point x="319" y="323"/>
      <point x="319" y="440" type="curve" smooth="yes"/>
      <point x="319" y="473"/>
      <point x="280" y="490"/>
    </contour>
    <contour>
      <point x="258" y="490" type="curve" smooth="yes"/>
      <point x="253" y="490" type="line"/>
      <point x="253" y="387"/>
      <point x="311" y="69"/>
      <point x="362" y="14" type="curve" smooth="yes"/>
      <point x="380" y="-5"/>
      <point x="407" y="-10"/>
      <point x="433" y="-10" type="curve" smooth="yes"/>
      <point x="443" y="-10" type="line" smooth="yes"/>
      <point x="462" y="-10"/>
      <point x="471" y="24"/>
      <point x="471" y="50" type="curve" smooth="yes"/>
      <point x="404" y="97"/>
      <point x="351" y="284"/>
      <point x="351" y="450" type="curve" smooth="yes"/>
      <point x="351" y="470"/>
      <point x="316" y="490"/>
    </contour>
    <contour>
      <point x="405" y="555" type="curve"/>
      <point x="405" y="153"/>
      <point x="399" y="118"/>
      <point x="378" y="82" type="curve"/>
      <point x="380" y="30"/>
      <point x="398" y="-10"/>
      <point x="438" y="-10" type="curve"/>
      <point x="472" y="-10" type="line"/>
      <point x="558" y="94"/>
      <point x="569" y="245"/>
      <point x="569" y="496" type="curve"/>
      <point x="569" y="512"/>
      <point x="566" y="518"/>
      <point x="560" y="524" type="curve" smooth="yes"/>
      <point x="534" y="550"/>
      <point x="495" y="560"/>
      <point x="451" y="560" type="curve"/>
      <point x="436" y="560"/>
      <point x="420" y="559"/>
    </contour>
    <contour>
      <point x="298" y="561" type="move" name="top"/>
    </contour>
  </outline>
</glyph>
<glyph name="y" format="1">
  <advance width="600"/>
  <unicode hex="0079"/>
  <outline>
    <contour>
      <point x="436" y="556" type="curve" smooth="yes"/>
      <point x="410" y="556"/>
      <point x="394" y="554"/>
      <point x="375" y="550" type="curve"/>
      <point x="335" y="159"/>
      <point x="292" y="84"/>
      <point x="226" y="9" type="curve" smooth="yes"/>
      <point x="186" y="-36"/>
      <point x="120" y="-60"/>
      <point x="72" y="-60" type="curve" smooth="yes"/>
      <point x="47" y="-60" type="line"/>
      <point x="47" y="-64" type="line" smooth="yes"/>
      <point x="47" y="-147"/>
      <point x="70" y="-250"/>
      <point x="146" y="-250" type="curve" smooth="yes"/>
      <point x="148" y="-250" type="line" smooth="yes"/>
      <point x="212" y="-250"/>
      <point x="285" y="-221"/>
      <point x="339" y="-167" type="curve" smooth="yes"/>
      <point x="445" y="-61"/>
      <point x="533" y="105"/>
      <point x="566" y="478" type="curve" smooth="yes"/>
      <point x="571" y="534"/>
      <point x="519" y="556"/>
    </contour>
    <contour>
      <point x="96" y="557" type="curve" smooth="yes"/>
      <point x="69" y="557"/>
      <point x="51" y="555"/>
      <point x="29" y="550" type="curve"/>
      <point x="51" y="265"/>
      <point x="99" y="151"/>
      <point x="171" y="79" type="curve" smooth="yes"/>
      <point x="215" y="35"/>
      <point x="276" y="10"/>
      <point x="333" y="10" type="curve" smooth="yes"/>
      <point x="340" y="10" type="line" smooth="yes"/>
      <point x="384" y="10"/>
      <point x="420" y="38"/>
      <point x="421" y="120" type="curve"/>
      <point x="396" y="130" type="line"/>
      <point x="372" y="145"/>
      <point x="351" y="161"/>
      <point x="334" y="178" type="curve" smooth="yes"/>
      <point x="285" y="227"/>
      <point x="264" y="294"/>
      <point x="245" y="493" type="curve" smooth="yes"/>
      <point x="241" y="539"/>
      <point x="174" y="557"/>
    </contour>
    <contour>
      <point x="297" y="561" type="move" name="top"/>
    </contour>
  </outline>
</glyph>
<glyph name="braceleft" format="1">
  <advance width="600"/>
  <unicode hex="007B"/>
  <outline>
    <contour>
      <point x="464" y="557" type="curve" smooth="yes"/>
      <point x="500" y="557"/>
      <point x="533" y="553"/>
      <point x="550" y="549" type="curve"/>
      <point x="554" y="549" type="line"/>
      <point x="560" y="572"/>
      <point x="562" y="590"/>
      <point x="562" y="623" type="curve"/>
      <point x="562" y="708"/>
      <point x="524" y="770"/>
      <point x="472" y="770" type="curve" smooth="yes"/>
      <point x="469" y="770" type="line" smooth="yes"/>
      <point x="310" y="770"/>
      <point x="205" y="708"/>
      <point x="205" y="633" type="curve" smooth="yes"/>
      <point x="205" y="631" type="line" smooth="yes"/>
      <point x="205" y="583"/>
      <point x="264" y="547"/>
      <point x="332" y="540" type="curve"/>
      <point x="384" y="553"/>
      <point x="429" y="557"/>
    </contour>
    <contour>
      <point x="436" y="416" type="curve" smooth="yes"/>
      <point x="436" y="505"/>
      <point x="377" y="566"/>
      <point x="377" y="609" type="curve" smooth="yes"/>
      <point x="377" y="629"/>
      <point x="382" y="645"/>
      <point x="389" y="665" type="curve"/>
      <point x="289" y="698"/>
      <point x="205" y="682"/>
      <point x="205" y="631" type="curve" smooth="yes"/>
      <point x="205" y="629" type="line" smooth="yes"/>
      <point x="205" y="594"/>
      <point x="238" y="528"/>
      <point x="238" y="473" type="curve" smooth="yes"/>
      <point x="238" y="423"/>
      <point x="197" y="396"/>
      <point x="87" y="396" type="curve" smooth="yes"/>
      <point x="52" y="396" type="line"/>
      <point x="52" y="366" type="line" smooth="yes"/>
      <point x="52" y="317"/>
      <point x="92" y="275"/>
      <point x="137" y="275" type="curve" smooth="yes"/>
      <point x="145" y="275" type="line" smooth="yes"/>
      <point x="346" y="275"/>
      <point x="436" y="342"/>
    </contour>
    <contour>
      <point x="436" y="184" type="curve" smooth="yes"/>
      <point x="436" y="258"/>
      <point x="346" y="325"/>
      <point x="145" y="325" type="curve" smooth="yes"/>
      <point x="114" y="325"/>
      <point x="83" y="325"/>
      <point x="52" y="385" type="curve"/>
      <point x="52" y="350" type="line" smooth="yes"/>
      <point x="52" y="276"/>
      <point x="79" y="204"/>
      <point x="127" y="204" type="curve" smooth="yes"/>
      <point x="131" y="204" type="line" smooth="yes"/>
      <point x="209" y="204"/>
      <point x="238" y="176"/>
      <point x="238" y="127" type="curve" smooth="yes"/>
      <point x="238" y="71"/>
      <point x="205" y="4"/>
      <point x="205" y="-31" type="curve" smooth="yes"/>
      <point x="205" y="-33" type="line" smooth="yes"/>
      <point x="205" y="-81"/>
      <point x="290" y="-98"/>
      <point x="389" y="-65" type="curve"/>
      <point x="382" y="-45"/>
      <point x="377" y="-29"/>
      <point x="377" y="-9" type="curve" smooth="yes"/>
      <point x="377" y="34"/>
      <point x="436" y="95"/>
    </contour>
    <contour>
      <point x="460" y="41" type="curve" smooth="yes"/>
      <point x="410" y="41"/>
      <point x="372" y="48"/>
      <point x="314" y="76" type="curve"/>
      <point x="242" y="33"/>
      <point x="205" y="-1"/>
      <point x="205" y="-31" type="curve" smooth="yes"/>
      <point x="205" y="-33" type="line" smooth="yes"/>
      <point x="205" y="-104"/>
      <point x="256" y="-172"/>
      <point x="452" y="-172" type="curve" smooth="yes"/>
      <point x="457" y="-172" type="line" smooth="yes"/>
      <point x="524" y="-172"/>
      <point x="561" y="-90"/>
      <point x="561" y="47" type="curve"/>
      <point x="561" y="55" type="line"/>
      <point x="557" y="55" type="line"/>
      <point x="524" y="46"/>
      <point x="495" y="41"/>
    </contour>
  </outline>
</glyph>
<glyph name="braceright" format="1">
  <advance width="600"/>
  <unicode hex="007D"/>
  <outline>
    <contour>
      <point x="136" y="41" type="curve" smooth="yes"/>
      <point x="100" y="41"/>
      <point x="67" y="45"/>
      <point x="50" y="49" type="curve"/>
      <point x="46" y="49" type="line"/>
      <point x="40" y="26"/>
      <point x="38" y="8"/>
      <point x="38" y="-25" type="curve"/>
      <point x="38" y="-110"/>
      <point x="76" y="-172"/>
      <point x="128" y="-172" type="curve" smooth="yes"/>
      <point x="131" y="-172" type="line" smooth="yes"/>
      <point x="290" y="-172"/>
      <point x="395" y="-110"/>
      <point x="395" y="-35" type="curve" smooth="yes"/>
      <point x="395" y="-33" type="line" smooth="yes"/>
      <point x="395" y="15"/>
      <point x="336" y="51"/>
      <point x="268" y="58" type="curve"/>
      <point x="216" y="45"/>
      <point x="171" y="41"/>
    </contour>
    <contour>
      <point x="164" y="182" type="curve" smooth="yes"/>
      <point x="164" y="93"/>
      <point x="223" y="32"/>
      <point x="223" y="-11" type="curve" smooth="yes"/>
      <point x="223" y="-31"/>
      <point x="218" y="-47"/>
      <point x="211" y="-67" type="curve"/>
      <point x="311" y="-100"/>
      <point x="395" y="-84"/>
      <point x="395" y="-33" type="curve" smooth="yes"/>
      <point x="395" y="-31" type="line" smooth="yes"/>
      <point x="395" y="4"/>
      <point x="362" y="70"/>
      <point x="362" y="125" type="curve" smooth="yes"/>
      <point x="362" y="175"/>
      <point x="403" y="202"/>
      <point x="513" y="202" type="curve" smooth="yes"/>
      <point x="548" y="202" type="line"/>
      <point x="548" y="232" type="line" smooth="yes"/>
      <point x="548" y="281"/>
      <point x="508" y="323"/>
      <point x="463" y="323" type="curve" smooth="yes"/>
      <point x="455" y="323" type="line" smooth="yes"/>
      <point x="254" y="323"/>
      <point x="164" y="256"/>
    </contour>
    <contour>
      <point x="164" y="414" type="curve" smooth="yes"/>
      <point x="164" y="340"/>
      <point x="254" y="273"/>
      <point x="455" y="273" type="curve" smooth="yes"/>
      <point x="486" y="273"/>
      <point x="517" y="273"/>
      <point x="548" y="213" type="curve"/>
      <point x="548" y="248" type="line" smooth="yes"/>
      <point x="548" y="322"/>
      <point x="521" y="394"/>
      <point x="473" y="394" type="curve" smooth="yes"/>
      <point x="469" y="394" type="line" smooth="yes"/>
      <point x="391" y="394"/>
      <point x="362" y="422"/>
      <point x="362" y="471" type="curve" smooth="yes"/>
      <point x="362" y="527"/>
      <point x="395" y="594"/>
      <point x="395" y="629" type="curve" smooth="yes"/>
      <point x="395" y="631" type="line" smooth="yes"/>
      <point x="395" y="679"/>
      <point x="310" y="696"/>
      <point x="211" y="663" type="curve"/>
      <point x="218" y="643"/>
      <point x="223" y="627"/>
      <point x="223" y="607" type="curve" smooth="yes"/>
      <point x="223" y="564"/>
      <point x="164" y="503"/>
    </contour>
    <contour>
      <point x="140" y="557" type="curve" smooth="yes"/>
      <point x="190" y="557"/>
      <point x="228" y="550"/>
      <point x="286" y="522" type="curve"/>
      <point x="358" y="565"/>
      <point x="395" y="599"/>
      <point x="395" y="629" type="curve" smooth="yes"/>
      <point x="395" y="631" type="line" smooth="yes"/>
      <point x="395" y="702"/>
      <point x="344" y="770"/>
      <point x="148" y="770" type="curve" smooth="yes"/>
      <point x="143" y="770" type="line" smooth="yes"/>
      <point x="76" y="770"/>
      <point x="39" y="688"/>
      <point x="39" y="551" type="curve"/>
      <point x="39" y="543" type="line"/>
      <point x="43" y="543" type="line"/>
      <point x="76" y="552"/>
      <point x="105" y="557"/>
    </contour>
  </outline>
</glyph>
<glyph name="exclamdown" format="1">
  <advance width="600"/>
  <unicode hex="00A1"/>
  <outline>
    <contour>
      <point x="225" y="228" type="line"/>
      <point x="197" y="165"/>
      <point x="175" y="90"/>
      <point x="175" y="-17" type="curve"/>
      <point x="175" y="-70" type="line" smooth="yes"/>
      <point x="175" y="-133"/>
      <point x="258" y="-161"/>
      <point x="340" y="-161" type="curve" smooth="yes"/>
      <point x="380" y="-161"/>
      <point x="407" y="-158"/>
      <point x="440" y="-151" type="curve"/>
      <point x="430" y="-115"/>
      <point x="424" y="-77"/>
      <point x="424" y="-35" type="curve" smooth="yes"/>
      <point x="424" y="-27" type="line"/>
      <point x="424" y="50"/>
      <point x="405" y="157"/>
      <point x="372" y="190" type="curve" smooth="yes"/>
      <point x="345" y="217"/>
      <point x="312" y="228"/>
      <point x="247" y="228" type="curve"/>
    </contour>
    <contour>
      <point x="170" y="549" type="curve"/>
      <point x="170" y="418" type="line" smooth="yes"/>
      <point x="170" y="329"/>
      <point x="221" y="298"/>
      <point x="320" y="298" type="curve" smooth="yes"/>
      <point x="369" y="298"/>
      <point x="398" y="302"/>
      <point x="430" y="310" type="curve"/>
      <point x="430" y="441" type="line" smooth="yes"/>
      <point x="430" y="530"/>
      <point x="379" y="561"/>
      <point x="280" y="561" type="curve" smooth="yes"/>
      <point x="231" y="561"/>
      <point x="202" y="557"/>
    </contour>
  </outline>
</glyph>
<glyph name="sterling" format="1">
  <advance width="600"/>
  <unicode hex="00A3"/>
  <outline>
    <contour>
      <point x="358" y="496" type="curve" smooth="yes"/>
      <point x="427" y="496"/>
      <point x="479" y="488"/>
      <point x="547" y="450" type="curve"/>
      <point x="551" y="450" type="line"/>
      <point x="557" y="469"/>
      <point x="560" y="490"/>
      <point x="560" y="527" type="curve" smooth="yes"/>
      <point x="560" y="598"/>
      <point x="548" y="641"/>
      <point x="515" y="674" type="curve" smooth="yes"/>
      <point x="479" y="710"/>
      <point x="411" y="721"/>
      <point x="331" y="721" type="curve" smooth="yes"/>
      <point x="146" y="721"/>
      <point x="61" y="645"/>
      <point x="61" y="545" type="curve" smooth="yes"/>
      <point x="61" y="536" type="line" smooth="yes"/>
      <point x="61" y="489"/>
      <point x="135" y="446"/>
      <point x="229" y="440" type="curve"/>
      <point x="229" y="479"/>
      <point x="247" y="496"/>
    </contour>
    <contour>
      <point x="61" y="536" type="curve" smooth="yes"/>
      <point x="61" y="430"/>
      <point x="169" y="346"/>
      <point x="169" y="239" type="curve" smooth="yes"/>
      <point x="169" y="196"/>
      <point x="129" y="163"/>
      <point x="58" y="163" type="curve" smooth="yes"/>
      <point x="56" y="163"/>
      <point x="54" y="163"/>
      <point x="52" y="163" type="curve"/>
      <point x="48" y="163" type="line"/>
      <point x="42" y="136"/>
      <point x="39" y="114"/>
      <point x="39" y="80" type="curve" smooth="yes"/>
      <point x="39" y="15"/>
      <point x="57" y="-20"/>
      <point x="102" y="-20" type="curve" smooth="yes"/>
      <point x="110" y="-20" type="line" smooth="yes"/>
      <point x="227" y="-20"/>
      <point x="336" y="53"/>
      <point x="336" y="178" type="curve" smooth="yes"/>
      <point x="336" y="270"/>
      <point x="280" y="357"/>
      <point x="280" y="449" type="curve" smooth="yes"/>
      <point x="280" y="490"/>
      <point x="287" y="523"/>
      <point x="321" y="568" type="curve"/>
      <point x="157" y="568"/>
      <point x="61" y="556"/>
    </contour>
    <contour>
      <point x="236" y="124" type="curve"/>
      <point x="318" y="13"/>
      <point x="390" y="-20"/>
      <point x="474" y="-20" type="curve" smooth="yes"/>
      <point x="479" y="-20" type="line" smooth="yes"/>
      <point x="546" y="-20"/>
      <point x="570" y="19"/>
      <point x="570" y="117" type="curve"/>
      <point x="570" y="155"/>
      <point x="566" y="188"/>
      <point x="555" y="217" type="curve"/>
      <point x="551" y="217" type="line"/>
      <point x="530" y="199"/>
      <point x="503" y="191"/>
      <point x="462" y="191" type="curve" smooth="yes"/>
      <point x="402" y="191"/>
      <point x="337" y="201"/>
      <point x="272" y="225" type="curve"/>
      <point x="223" y="192"/>
      <point x="222" y="148"/>
    </contour>
    <contour>
      <point x="40" y="410" type="line"/>
      <point x="40" y="404"/>
      <point x="40" y="398"/>
      <point x="40" y="391" type="curve" smooth="yes"/>
      <point x="40" y="332"/>
      <point x="48" y="298"/>
      <point x="66" y="280" type="curve" smooth="yes"/>
      <point x="81" y="265"/>
      <point x="101" y="260"/>
      <point x="147" y="260" type="curve" smooth="yes"/>
      <point x="485" y="260" type="line"/>
      <point x="489" y="281"/>
      <point x="492" y="304"/>
      <point x="492" y="323" type="curve" smooth="yes"/>
      <point x="492" y="389"/>
      <point x="475" y="410"/>
      <point x="419" y="410" type="curve" smooth="yes"/>
    </contour>
  </outline>
</glyph>
<glyph name="yen" format="1">
  <advance width="600"/>
  <unicode hex="00A5"/>
  <outline>
    <contour>
      <point x="5" y="430" type="line"/>
      <point x="5" y="424"/>
      <point x="5" y="418"/>
      <point x="5" y="411" type="curve" smooth="yes"/>
      <point x="5" y="352"/>
      <point x="13" y="318"/>
      <point x="31" y="300" type="curve" smooth="yes"/>
      <point x="46" y="285"/>
      <point x="66" y="280"/>
      <point x="112" y="280" type="curve"/>
      <point x="165" y="280" type="line"/>
      <point x="169" y="301"/>
      <point x="172" y="324"/>
      <point x="172" y="343" type="curve" smooth="yes"/>
      <point x="172" y="409"/>
      <point x="155" y="430"/>
      <point x="99" y="430" type="curve"/>
    </contour>
    <contour>
      <point x="393" y="430" type="line"/>
      <point x="393" y="424"/>
      <point x="393" y="418"/>
      <point x="393" y="411" type="curve" smooth="yes"/>
      <point x="393" y="318"/>
      <point x="426" y="280"/>
      <point x="465" y="280" type="curve"/>
      <point x="588" y="280" type="line"/>
      <point x="592" y="301"/>
      <point x="595" y="324"/>
      <point x="595" y="343" type="curve" smooth="yes"/>
      <point x="595" y="409"/>
      <point x="578" y="430"/>
      <point x="522" y="430" type="curve"/>
    </contour>
    <contour>
      <point x="585" y="75" type="line"/>
      <point x="585" y="81"/>
      <point x="585" y="87"/>
      <point x="585" y="94" type="curve" smooth="yes"/>
      <point x="585" y="153"/>
      <point x="577" y="187"/>
      <point x="559" y="205" type="curve" smooth="yes"/>
      <point x="544" y="220"/>
      <point x="524" y="225"/>
      <point x="478" y="225" type="curve"/>
      <point x="22" y="225" type="line"/>
      <point x="18" y="204"/>
      <point x="15" y="181"/>
      <point x="15" y="162" type="curve" smooth="yes"/>
      <point x="15" y="96"/>
      <point x="32" y="75"/>
      <point x="88" y="75" type="curve"/>
    </contour>
    <contour>
      <point x="18" y="710" type="line"/>
      <point x="40" y="470"/>
      <point x="86" y="306"/>
      <point x="165" y="227" type="curve"/>
      <point x="207" y="185"/>
      <point x="241" y="180"/>
      <point x="270" y="180" type="curve"/>
      <point x="340" y="180"/>
      <point x="391" y="227"/>
      <point x="391" y="302" type="curve"/>
      <point x="285" y="362"/>
      <point x="260" y="449"/>
      <point x="243" y="660" type="curve"/>
      <point x="240" y="696"/>
      <point x="148" y="710"/>
      <point x="42" y="710" type="curve" smooth="yes"/>
    </contour>
    <contour>
      <point x="363" y="710" type="line"/>
      <point x="351" y="479"/>
      <point x="326" y="400"/>
      <point x="257" y="344" type="curve"/>
      <point x="171" y="273"/>
      <point x="219" y="180"/>
      <point x="270" y="180" type="curve"/>
      <point x="390" y="180" type="line"/>
      <point x="478" y="255"/>
      <point x="563" y="438"/>
      <point x="577" y="636" type="curve"/>
      <point x="581" y="692"/>
      <point x="499" y="710"/>
      <point x="387" y="710" type="curve"/>
    </contour>
    <contour>
      <point x="426" y="0" type="curve"/>
      <point x="418" y="38"/>
      <point x="414" y="83"/>
      <point x="414" y="140" type="curve" smooth="yes"/>
      <point x="414" y="264" type="line" smooth="yes"/>
      <point x="414" y="349"/>
      <point x="339" y="350"/>
      <point x="188" y="350" type="curve"/>
      <point x="188" y="106" type="line" smooth="yes"/>
      <point x="188" y="59"/>
      <point x="195" y="32"/>
      <point x="211" y="16" type="curve" smooth="yes"/>
      <point x="230" y="-3"/>
      <point x="262" y="-10"/>
      <point x="328" y="-10" type="curve" smooth="yes"/>
      <point x="362" y="-10"/>
      <point x="395" y="-7"/>
    </contour>
  </outline>
</glyph>
<glyph name="logicalnot" format="1">
  <advance width="600"/>
  <unicode hex="00AC"/>
  <outline>
    <contour>
      <point x="55" y="455" type="line"/>
      <point x="49" y="423"/>
      <point x="44" y="388"/>
      <point x="44" y="359" type="curve" smooth="yes"/>
      <point x="44" y="311"/>
      <point x="50" y="282"/>
      <point x="67" y="265" type="curve" smooth="yes"/>
      <point x="83" y="249"/>
      <point x="109" y="243"/>
      <point x="148" y="243" type="curve"/>
      <point x="541" y="243" type="line"/>
      <point x="541" y="257" type="line"/>
      <point x="541" y="400"/>
      <point x="522" y="455"/>
      <point x="401" y="455" type="curve"/>
    </contour>
    <contour>
      <point x="541" y="110" type="curve"/>
      <point x="541" y="257" type="line" smooth="yes"/>
      <point x="541" y="312"/>
      <point x="433" y="323"/>
      <point x="342" y="323" type="curve"/>
      <point x="317" y="323" type="line"/>
      <point x="317" y="186" type="line" smooth="yes"/>
      <point x="317" y="119"/>
      <point x="344" y="103"/>
      <point x="457" y="103" type="curve" smooth="yes"/>
      <point x="487" y="103"/>
      <point x="515" y="105"/>
    </contour>
  </outline>
</glyph>
<glyph name="uni00AD" format="1">
  <advance width="600"/>
  <unicode hex="00AD"/>
  <outline>
    <contour>
      <point x="94" y="405" type="line"/>
      <point x="94" y="397"/>
      <point x="94" y="390"/>
      <point x="94" y="380" type="curve" smooth="yes"/>
      <point x="94" y="295"/>
      <point x="105" y="249"/>
      <point x="129" y="225" type="curve" smooth="yes"/>
      <point x="152" y="202"/>
      <point x="182" y="195"/>
      <point x="253" y="195" type="curve"/>
      <point x="514" y="195" type="line"/>
      <point x="521" y="227"/>
      <point x="526" y="262"/>
      <point x="526" y="291" type="curve" smooth="yes"/>
      <point x="526" y="383"/>
      <point x="501" y="405"/>
      <point x="422" y="405" type="curve"/>
    </contour>
  </outline>
</glyph>
<glyph name="registered" format="1">
  <advance width="600"/>
  <unicode hex="00AE"/>
  <outline>
    <contour>
      <point x="286" y="331" type="curve"/>
      <point x="281" y="355"/>
      <point x="279" y="379"/>
      <point x="279" y="404" type="curve"/>
      <point x="279" y="531" type="line"/>
      <point x="279" y="566"/>
      <point x="244" y="579"/>
      <point x="183" y="579" type="curve"/>
      <point x="183" y="361" type="line" smooth="yes"/>
      <point x="183" y="340"/>
      <point x="202" y="324"/>
      <point x="241" y="324" type="curve" smooth="yes"/>
      <point x="252" y="324"/>
      <point x="274" y="324"/>
    </contour>
    <contour>
      <point x="175" y="630" type="curve"/>
      <point x="168" y="618"/>
      <point x="166" y="601"/>
      <point x="166" y="587" type="curve"/>
      <point x="166" y="559"/>
      <point x="173" y="545"/>
      <point x="182" y="545" type="curve"/>
      <point x="186" y="545"/>
      <point x="191" y="546"/>
      <point x="199" y="548" type="curve" smooth="yes"/>
      <point x="227" y="553"/>
      <point x="263" y="556"/>
      <point x="308" y="556" type="curve" smooth="yes"/>
      <point x="332" y="556"/>
      <point x="340" y="552"/>
      <point x="353" y="539" type="curve"/>
      <point x="401" y="568"/>
      <point x="364" y="641"/>
      <point x="317" y="641" type="curve" smooth="yes"/>
      <point x="276" y="641"/>
      <point x="228" y="638"/>
    </contour>
    <contour>
      <point x="435" y="536" type="curve" smooth="yes"/>
      <point x="435" y="544" type="line" smooth="yes"/>
      <point x="435" y="592"/>
      <point x="399" y="641"/>
      <point x="317" y="641" type="curve"/>
      <point x="292" y="641"/>
      <point x="264" y="620"/>
      <point x="264" y="586" type="curve"/>
      <point x="319" y="586"/>
      <point x="336" y="573"/>
      <point x="336" y="542" type="curve" smooth="yes"/>
      <point x="336" y="536" type="line" smooth="yes"/>
      <point x="336" y="505"/>
      <point x="310" y="493"/>
      <point x="268" y="493" type="curve" smooth="yes"/>
      <point x="236" y="493"/>
      <point x="232" y="493"/>
      <point x="228" y="493" type="curve"/>
      <point x="226" y="483"/>
      <point x="221" y="477"/>
      <point x="221" y="458" type="curve" smooth="yes"/>
      <point x="221" y="432"/>
      <point x="227" y="405"/>
      <point x="250" y="405" type="curve" smooth="yes"/>
      <point x="252" y="405" type="line" smooth="yes"/>
      <point x="350" y="405"/>
      <point x="435" y="460"/>
    </contour>
    <contour>
      <point x="362" y="487" type="line"/>
      <point x="301" y="469"/>
      <point x="290" y="441"/>
      <point x="297" y="424" type="curve" smooth="yes"/>
      <point x="316" y="374" type="line" smooth="yes"/>
      <point x="327" y="344"/>
      <point x="348" y="324"/>
      <point x="377" y="324" type="curve" smooth="yes"/>
      <point x="382" y="324" type="line" smooth="yes"/>
      <point x="412" y="324"/>
      <point x="430" y="341"/>
      <point x="430" y="376" type="curve"/>
      <point x="430" y="392"/>
      <point x="428" y="403"/>
      <point x="423" y="417" type="curve"/>
      <point x="421" y="417" type="line"/>
      <point x="416" y="413"/>
      <point x="412" y="412"/>
      <point x="406" y="412" type="curve"/>
      <point x="394" y="412"/>
      <point x="389" y="415"/>
      <point x="379" y="441" type="curve" smooth="yes"/>
    </contour>
    <contour>
      <point x="300" y="760" type="curve" smooth="yes"/>
      <point x="110" y="760"/>
      <point x="12" y="675"/>
      <point x="12" y="498" type="curve" smooth="yes"/>
      <point x="12" y="473" type="line" smooth="yes"/>
      <point x="12" y="290"/>
      <point x="115" y="202"/>
      <point x="300" y="202" type="curve" smooth="yes"/>
      <point x="332" y="202"/>
      <point x="341" y="231"/>
      <point x="341" y="255" type="curve"/>
      <point x="189" y="255"/>
      <point x="105" y="313"/>
      <point x="105" y="463" type="curve" smooth="yes"/>
      <point x="105" y="504" type="line" smooth="yes"/>
      <point x="105" y="634"/>
      <point x="160" y="681"/>
      <point x="300" y="681" type="curve" smooth="yes"/>
      <point x="370" y="681"/>
      <point x="421" y="672"/>
      <point x="481" y="640" type="curve"/>
      <point x="496" y="706"/>
      <point x="408" y="760"/>
    </contour>
    <contour>
      <point x="300" y="202" type="curve" smooth="yes"/>
      <point x="490" y="202"/>
      <point x="588" y="287"/>
      <point x="588" y="464" type="curve" smooth="yes"/>
      <point x="588" y="489" type="line" smooth="yes"/>
      <point x="588" y="672"/>
      <point x="485" y="760"/>
      <point x="300" y="760" type="curve" smooth="yes"/>
      <point x="268" y="760"/>
      <point x="259" y="731"/>
      <point x="259" y="707" type="curve"/>
      <point x="411" y="707"/>
      <point x="495" y="649"/>
      <point x="495" y="499" type="curve" smooth="yes"/>
      <point x="495" y="458" type="line" smooth="yes"/>
      <point x="495" y="328"/>
      <point x="440" y="281"/>
      <point x="300" y="281" type="curve" smooth="yes"/>
      <point x="230" y="281"/>
      <point x="179" y="289"/>
      <point x="119" y="318" type="curve"/>
      <point x="104" y="252"/>
      <point x="192" y="202"/>
    </contour>
  </outline>
</glyph>
<glyph name="degree" format="1">
  <advance width="600"/>
  <unicode hex="00B0"/>
  <outline>
    <contour>
      <point x="318" y="428" type="curve"/>
      <point x="261" y="428"/>
      <point x="226" y="465"/>
      <point x="226" y="525" type="curve" smooth="yes"/>
      <point x="226" y="533" type="line" smooth="yes"/>
      <point x="226" y="584"/>
      <point x="254" y="612"/>
      <point x="307" y="612" type="curve" smooth="yes"/>
      <point x="334" y="612"/>
      <point x="353" y="605"/>
      <point x="379" y="580" type="curve"/>
      <point x="403" y="636"/>
      <point x="375" y="710"/>
      <point x="302" y="710" type="curve"/>
      <point x="199" y="710"/>
      <point x="125" y="637"/>
      <point x="125" y="533" type="curve" smooth="yes"/>
      <point x="125" y="525" type="line" smooth="yes"/>
      <point x="125" y="423"/>
      <point x="198" y="355"/>
      <point x="296" y="355" type="curve"/>
      <point x="314" y="355"/>
      <point x="318" y="382"/>
    </contour>
    <contour>
      <point x="280" y="627" type="curve"/>
      <point x="337" y="627"/>
      <point x="372" y="594"/>
      <point x="372" y="540" type="curve" smooth="yes"/>
      <point x="372" y="532" type="line" smooth="yes"/>
      <point x="372" y="481"/>
      <point x="344" y="453"/>
      <point x="291" y="453" type="curve" smooth="yes"/>
      <point x="264" y="453"/>
      <point x="245" y="460"/>
      <point x="219" y="485" type="curve"/>
      <point x="195" y="429"/>
      <point x="223" y="355"/>
      <point x="296" y="355" type="curve"/>
      <point x="399" y="355"/>
      <point x="473" y="428"/>
      <point x="473" y="532" type="curve" smooth="yes"/>
      <point x="473" y="540" type="line" smooth="yes"/>
      <point x="473" y="642"/>
      <point x="400" y="710"/>
      <point x="302" y="710" type="curve"/>
      <point x="284" y="710"/>
      <point x="280" y="692"/>
    </contour>
  </outline>
</glyph>
<glyph name="uni00B5" format="1">
  <advance width="600"/>
  <unicode hex="00B5"/>
  <outline>
    <contour>
      <point x="23" y="555" type="curve"/>
      <point x="31" y="513"/>
      <point x="35" y="466"/>
      <point x="35" y="410" type="curve" smooth="yes"/>
      <point x="35" y="174" type="line"/>
      <point x="35" y="121"/>
      <point x="126" y="79"/>
      <point x="224" y="79" type="curve"/>
      <point x="258" y="242"/>
      <point x="268" y="346"/>
      <point x="268" y="464" type="curve" smooth="yes"/>
      <point x="268" y="468" type="line" smooth="yes"/>
      <point x="268" y="537"/>
      <point x="227" y="560"/>
      <point x="125" y="560" type="curve" smooth="yes"/>
      <point x="89" y="560"/>
      <point x="56" y="558"/>
    </contour>
    <contour>
      <point x="248" y="-14" type="curve" smooth="yes"/>
      <point x="301" y="-14"/>
      <point x="349" y="66"/>
      <point x="366" y="149" type="curve" smooth="yes"/>
      <point x="375" y="186"/>
      <point x="375" y="227"/>
      <point x="351" y="275" type="curve"/>
      <point x="336" y="217"/>
      <point x="302" y="196"/>
      <point x="272" y="196" type="curve" smooth="yes"/>
      <point x="244" y="196"/>
      <point x="220" y="205"/>
      <point x="217" y="228" type="curve"/>
      <point x="65" y="228"/>
      <point x="35" y="194"/>
      <point x="35" y="174" type="curve" smooth="yes"/>
      <point x="35" y="88"/>
      <point x="151" y="-14"/>
    </contour>
    <contour>
      <point x="565" y="551" type="line"/>
      <point x="539" y="557"/>
      <point x="513" y="560"/>
      <point x="480" y="560" type="curve" smooth="yes"/>
      <point x="368" y="560"/>
      <point x="341" y="544"/>
      <point x="341" y="477" type="curve" smooth="yes"/>
      <point x="341" y="156" type="line" smooth="yes"/>
      <point x="341" y="116"/>
      <point x="442" y="86"/>
      <point x="576" y="100" type="curve"/>
      <point x="568" y="136"/>
      <point x="565" y="166"/>
      <point x="565" y="204" type="curve"/>
    </contour>
    <contour>
      <point x="592" y="200" type="line"/>
      <point x="589" y="200" type="line"/>
      <point x="587" y="200"/>
      <point x="586" y="200"/>
      <point x="584" y="200" type="curve" smooth="yes"/>
      <point x="549" y="200"/>
      <point x="522" y="209"/>
      <point x="487" y="239" type="curve"/>
      <point x="399" y="217"/>
      <point x="341" y="194"/>
      <point x="341" y="156" type="curve" smooth="yes"/>
      <point x="341" y="75"/>
      <point x="433" y="-10"/>
      <point x="534" y="-10" type="curve" smooth="yes"/>
      <point x="539" y="-10" type="line" smooth="yes"/>
      <point x="574" y="-10"/>
      <point x="592" y="44"/>
      <point x="592" y="187" type="curve"/>
    </contour>
    <contour>
      <point x="74" y="127" type="line"/>
      <point x="43" y="51"/>
      <point x="30" y="-14"/>
      <point x="30" y="-86" type="curve" smooth="yes"/>
      <point x="30" y="-169"/>
      <point x="95" y="-204"/>
      <point x="166" y="-204" type="curve" smooth="yes"/>
      <point x="206" y="-204"/>
      <point x="230" y="-203"/>
      <point x="253" y="-193" type="curve"/>
      <point x="253" y="-183"/>
      <point x="253" y="-179"/>
      <point x="253" y="-165" type="curve" smooth="yes"/>
      <point x="253" y="-74"/>
      <point x="155" y="127"/>
      <point x="80" y="127" type="curve" smooth="yes"/>
    </contour>
  </outline>
</glyph>
<glyph name="paragraph" format="1">
  <advance width="600"/>
  <unicode hex="00B6"/>
  <outline>
    <contour>
      <point x="382" y="-150" type="curve"/>
      <point x="382" y="405" type="line"/>
      <point x="382" y="544"/>
      <point x="326" y="575"/>
      <point x="246" y="575" type="curve" smooth="yes"/>
      <point x="231" y="575"/>
      <point x="223" y="571"/>
      <point x="210" y="562" type="curve"/>
      <point x="210" y="-74" type="line" smooth="yes"/>
      <point x="210" y="-131"/>
      <point x="240" y="-160"/>
      <point x="327" y="-160" type="curve" smooth="yes"/>
      <point x="349" y="-160"/>
      <point x="363" y="-158"/>
    </contour>
    <contour>
      <point x="548" y="-153" type="curve"/>
      <point x="539" y="-117"/>
      <point x="535" y="-80"/>
      <point x="535" y="-40" type="curve" smooth="yes"/>
      <point x="535" y="509" type="line" smooth="yes"/>
      <point x="535" y="553"/>
      <point x="508" y="576"/>
      <point x="450" y="576" type="curve" smooth="yes"/>
      <point x="442" y="576"/>
      <point x="437" y="576"/>
      <point x="433" y="576" type="curve"/>
      <point x="433" y="-70" type="line" smooth="yes"/>
      <point x="433" y="-134"/>
      <point x="457" y="-160"/>
      <point x="512" y="-160" type="curve" smooth="yes"/>
      <point x="527" y="-160"/>
      <point x="535" y="-157"/>
    </contour>
    <contour>
      <point x="377" y="710" type="line" smooth="yes"/>
      <point x="172" y="710"/>
      <point x="31" y="581"/>
      <point x="31" y="392" type="curve" smooth="yes"/>
      <point x="31" y="382" type="line" smooth="yes"/>
      <point x="31" y="263"/>
      <point x="109" y="185"/>
      <point x="219" y="185" type="curve" smooth="yes"/>
      <point x="225" y="185" type="line" smooth="yes"/>
      <point x="303" y="185"/>
      <point x="340" y="249"/>
      <point x="341" y="321" type="curve"/>
      <point x="333" y="321" type="line" smooth="yes"/>
      <point x="266" y="321"/>
      <point x="238" y="340"/>
      <point x="238" y="386" type="curve" smooth="yes"/>
      <point x="238" y="394" type="line" smooth="yes"/>
      <point x="238" y="465"/>
      <point x="291" y="518"/>
      <point x="374" y="518" type="curve" smooth="yes"/>
      <point x="450" y="518"/>
      <point x="503" y="511"/>
      <point x="568" y="489" type="curve"/>
      <point x="572" y="489" type="line"/>
      <point x="581" y="524"/>
      <point x="586" y="547"/>
      <point x="586" y="578" type="curve" smooth="yes"/>
      <point x="586" y="618"/>
      <point x="576" y="647"/>
      <point x="554" y="669" type="curve" smooth="yes"/>
      <point x="529" y="694"/>
      <point x="479" y="710"/>
      <point x="382" y="710" type="curve" smooth="yes"/>
    </contour>
  </outline>
</glyph>
<glyph name="periodcentered" format="1">
  <advance width="600"/>
  <unicode hex="00B7"/>
  <outline>
    <contour>
      <point x="430" y="179" type="curve"/>
      <point x="430" y="310" type="line" smooth="yes"/>
      <point x="430" y="399"/>
      <point x="379" y="430"/>
      <point x="280" y="430" type="curve" smooth="yes"/>
      <point x="231" y="430"/>
      <point x="202" y="426"/>
      <point x="170" y="418" type="curve"/>
      <point x="170" y="287" type="line" smooth="yes"/>
      <point x="170" y="198"/>
      <point x="221" y="167"/>
      <point x="320" y="167" type="curve" smooth="yes"/>
      <point x="369" y="167"/>
      <point x="398" y="171"/>
    </contour>
  </outline>
</glyph>
<glyph name="cedilla" format="1">
  <advance width="600"/>
  <unicode hex="00B8"/>
  <outline>
    <contour>
      <point x="419" y="-112" type="curve" smooth="yes"/>
      <point x="419" y="-23"/>
      <point x="343" y="37"/>
      <point x="297" y="53" type="curve"/>
      <point x="297" y="66"/>
      <point x="299" y="84"/>
      <point x="305" y="104" type="curve"/>
      <point x="237" y="104"/>
      <point x="240" y="103"/>
      <point x="234" y="96" type="curve" smooth="yes"/>
      <point x="221" y="81"/>
      <point x="214" y="65"/>
      <point x="214" y="49" type="curve" smooth="yes"/>
      <point x="214" y="41"/>
      <point x="216" y="37"/>
      <point x="225" y="33" type="curve" smooth="yes"/>
      <point x="253" y="21"/>
      <point x="265" y="-2"/>
      <point x="265" y="-41" type="curve" smooth="yes"/>
      <point x="265" y="-71"/>
      <point x="244" y="-87"/>
      <point x="212" y="-87" type="curve" smooth="yes"/>
      <point x="186" y="-87"/>
      <point x="168" y="-82"/>
      <point x="150" y="-72" type="curve"/>
      <point x="146" y="-72" type="line"/>
      <point x="140" y="-89"/>
      <point x="138" y="-102"/>
      <point x="138" y="-122" type="curve" smooth="yes"/>
      <point x="138" y="-191"/>
      <point x="179" y="-254"/>
      <point x="260" y="-254" type="curve" smooth="yes"/>
      <point x="377" y="-254"/>
      <point x="419" y="-183"/>
    </contour>
  </outline>
</glyph>
<glyph name="ordmasculine" format="1">
  <advance width="600"/>
  <unicode hex="00BA"/>
  <outline>
    <contour>
      <point x="299" y="762" type="curve" smooth="yes"/>
      <point x="155" y="762"/>
      <point x="71" y="670"/>
      <point x="71" y="512" type="curve" smooth="yes"/>
      <point x="71" y="500" type="line" smooth="yes"/>
      <point x="71" y="356"/>
      <point x="162" y="280"/>
      <point x="301" y="280" type="curve" smooth="yes"/>
      <point x="341" y="280"/>
      <point x="343" y="392"/>
      <point x="343" y="423" type="curve"/>
      <point x="271" y="423"/>
      <point x="258" y="435"/>
      <point x="258" y="500" type="curve" smooth="yes"/>
      <point x="258" y="511" type="line" smooth="yes"/>
      <point x="258" y="578"/>
      <point x="271" y="604"/>
      <point x="301" y="604" type="curve" smooth="yes"/>
      <point x="328" y="604"/>
      <point x="339" y="601"/>
      <point x="370" y="580" type="curve"/>
      <point x="465" y="637"/>
      <point x="385" y="762"/>
    </contour>
    <contour>
      <point x="301" y="280" type="curve" smooth="yes"/>
      <point x="445" y="280"/>
      <point x="529" y="360"/>
      <point x="529" y="500" type="curve" smooth="yes"/>
      <point x="529" y="512" type="line" smooth="yes"/>
      <point x="529" y="675"/>
      <point x="438" y="762"/>
      <point x="299" y="762" type="curve" smooth="yes"/>
      <point x="259" y="762"/>
      <point x="257" y="649"/>
      <point x="257" y="618" type="curve"/>
      <point x="329" y="618"/>
      <point x="342" y="602"/>
      <point x="342" y="512" type="curve" smooth="yes"/>
      <point x="342" y="501" type="line" smooth="yes"/>
      <point x="342" y="455"/>
      <point x="329" y="438"/>
      <point x="299" y="438" type="curve" smooth="yes"/>
      <point x="272" y="438"/>
      <point x="261" y="441"/>
      <point x="230" y="462" type="curve"/>
      <point x="135" y="405"/>
      <point x="215" y="280"/>
    </contour>
  </outline>
</glyph>
<glyph name="onequarter" format="1">
  <advance width="600"/>
  <unicode hex="00BC"/>
  <outline>
    <contour>
      <point x="253" y="428" type="curve"/>
      <point x="253" y="510"/>
      <point x="253" y="595"/>
      <point x="253" y="674" type="curve" smooth="yes"/>
      <point x="253" y="701"/>
      <point x="199" y="710"/>
      <point x="116" y="710" type="curve" smooth="yes"/>
      <point x="113" y="710" type="line"/>
      <point x="113" y="643"/>
      <point x="113" y="572"/>
      <point x="113" y="507" type="curve" smooth="yes"/>
      <point x="113" y="444"/>
      <point x="172" y="428"/>
    </contour>
    <contour>
      <point x="20" y="487" type="line"/>
      <point x="17" y="476"/>
      <point x="15" y="461"/>
      <point x="15" y="449" type="curve" smooth="yes"/>
      <point x="15" y="390"/>
      <point x="33" y="366"/>
      <point x="92" y="366" type="curve" smooth="yes"/>
      <point x="304" y="366" type="line"/>
      <point x="307" y="378"/>
      <point x="309" y="395"/>
      <point x="309" y="411" type="curve" smooth="yes"/>
      <point x="309" y="469"/>
      <point x="297" y="487"/>
      <point x="257" y="487" type="curve" smooth="yes"/>
    </contour>
    <contour>
      <point x="58" y="531" type="curve" smooth="yes"/>
      <point x="107" y="531"/>
      <point x="170" y="629"/>
      <point x="170" y="660" type="curve" smooth="yes"/>
      <point x="170" y="685"/>
      <point x="171" y="710"/>
      <point x="114" y="710" type="curve"/>
      <point x="97" y="710" type="line"/>
      <point x="75" y="678"/>
      <point x="52" y="660"/>
      <point x="17" y="643" type="curve"/>
      <point x="17" y="634" type="line" smooth="yes"/>
      <point x="17" y="590"/>
      <point x="33" y="531"/>
    </contour>
    <contour>
      <point x="377" y="120" type="curve"/>
      <point x="389" y="192"/>
      <point x="471" y="269"/>
      <point x="562" y="309" type="curve"/>
      <point x="562" y="312" type="line"/>
      <point x="536" y="333"/>
      <point x="490" y="344"/>
      <point x="435" y="344" type="curve" smooth="yes"/>
      <point x="389" y="344"/>
      <point x="366" y="330"/>
      <point x="341" y="305" type="curve" smooth="yes"/>
      <point x="289" y="253"/>
      <point x="265" y="189"/>
      <point x="265" y="137" type="curve" smooth="yes"/>
      <point x="265" y="125"/>
      <point x="306" y="120"/>
    </contour>
    <contour>
      <point x="588" y="51" type="line"/>
      <point x="593" y="65"/>
      <point x="592" y="84"/>
      <point x="592" y="99" type="curve" smooth="yes"/>
      <point x="592" y="134"/>
      <point x="585" y="167"/>
      <point x="559" y="167" type="curve" smooth="yes"/>
      <point x="471" y="167" type="line" smooth="yes"/>
      <point x="416" y="167"/>
      <point x="326" y="156"/>
      <point x="265" y="137" type="curve"/>
      <point x="265" y="133" type="line" smooth="yes"/>
      <point x="265" y="101"/>
      <point x="283" y="51"/>
      <point x="306" y="51" type="curve" smooth="yes"/>
    </contour>
    <contour>
      <point x="565" y="-10" type="curve"/>
      <point x="560" y="8"/>
      <point x="558" y="22"/>
      <point x="558" y="41" type="curve" smooth="yes"/>
      <point x="558" y="192" type="line" smooth="yes"/>
      <point x="558" y="216"/>
      <point x="516" y="233"/>
      <point x="482" y="233" type="curve" smooth="yes"/>
      <point x="480" y="233" type="line"/>
      <point x="448" y="197"/>
      <point x="433" y="154"/>
      <point x="433" y="121" type="curve" smooth="yes"/>
      <point x="433" y="25" type="line" smooth="yes"/>
      <point x="433" y="-1"/>
      <point x="480" y="-13"/>
      <point x="522" y="-13" type="curve" smooth="yes"/>
      <point x="534" y="-13"/>
      <point x="555" y="-12"/>
    </contour>
    <contour>
      <point x="332" y="397" type="curve"/>
      <point x="352" y="387"/>
      <point x="377" y="381"/>
      <point x="411" y="381" type="curve" smooth="yes"/>
      <point x="453" y="381"/>
      <point x="482" y="392"/>
      <point x="519" y="429" type="curve" smooth="yes"/>
      <point x="574" y="484"/>
      <point x="591" y="570"/>
      <point x="591" y="630" type="curve" smooth="yes"/>
      <point x="591" y="690"/>
      <point x="546" y="717"/>
      <point x="473" y="717" type="curve" smooth="yes"/>
      <point x="438" y="717"/>
      <point x="424" y="715"/>
      <point x="394" y="708" type="curve"/>
      <point x="394" y="593"/>
      <point x="375" y="484"/>
    </contour>
    <contour>
      <point x="268" y="303" type="curve"/>
      <point x="248" y="313"/>
      <point x="223" y="319"/>
      <point x="189" y="319" type="curve" smooth="yes"/>
      <point x="147" y="319"/>
      <point x="118" y="308"/>
      <point x="81" y="271" type="curve" smooth="yes"/>
      <point x="26" y="216"/>
      <point x="9" y="130"/>
      <point x="9" y="70" type="curve" smooth="yes"/>
      <point x="9" y="10"/>
      <point x="54" y="-17"/>
      <point x="127" y="-17" type="curve" smooth="yes"/>
      <point x="162" y="-17"/>
      <point x="176" y="-15"/>
      <point x="206" y="-8" type="curve"/>
      <point x="206" y="107"/>
      <point x="225" y="215"/>
    </contour>
  </outline>
</glyph>
<glyph name="Agrave" format="1">
  <advance width="600"/>
  <unicode hex="00C0"/>
  <outline>
    <contour>
      <point x="231" y="-1" type="curve"/>
      <point x="243" y="404"/>
      <point x="280" y="526"/>
      <point x="369" y="596" type="curve"/>
      <point x="405" y="624"/>
      <point x="358" y="710"/>
      <point x="199" y="710" type="curve"/>
      <point x="169" y="710" type="line"/>
      <point x="101" y="601"/>
      <point x="25" y="350"/>
      <point x="25" y="59" type="curve"/>
      <point x="25" y="11"/>
      <point x="89" y="-7"/>
      <point x="160" y="-7" type="curve" smooth="yes"/>
      <point x="189" y="-7"/>
      <point x="213" y="-5"/>
    </contour>
    <contour>
      <point x="583" y="-4" type="curve"/>
      <point x="575" y="248"/>
      <point x="552" y="435"/>
      <point x="498" y="563" type="curve"/>
      <point x="477" y="612"/>
      <point x="458" y="635"/>
      <point x="432" y="661" type="curve" smooth="yes"/>
      <point x="396" y="697"/>
      <point x="336" y="710"/>
      <point x="199" y="710" type="curve"/>
      <point x="189" y="710"/>
      <point x="170" y="652"/>
      <point x="170" y="613" type="curve"/>
      <point x="181" y="613"/>
      <point x="189" y="613"/>
      <point x="198" y="613" type="curve" smooth="yes"/>
      <point x="225" y="613"/>
      <point x="235" y="609"/>
      <point x="244" y="597" type="curve"/>
      <point x="328" y="494"/>
      <point x="345" y="412"/>
      <point x="370" y="70" type="curve"/>
      <point x="372" y="43"/>
      <point x="375" y="29"/>
      <point x="388" y="16" type="curve" smooth="yes"/>
      <point x="403" y="1"/>
      <point x="450" y="-10"/>
      <point x="516" y="-10" type="curve" smooth="yes"/>
      <point x="540" y="-10"/>
      <point x="562" y="-8"/>
    </contour>
    <contour>
      <point x="3" y="280" type="line"/>
      <point x="3" y="245" type="line" smooth="yes"/>
      <point x="3" y="185"/>
      <point x="13" y="136"/>
      <point x="41" y="108" type="curve" smooth="yes"/>
      <point x="47" y="102"/>
      <point x="50" y="100"/>
      <point x="58" y="100" type="curve"/>
      <point x="428" y="100" type="line"/>
      <point x="428" y="211"/>
      <point x="371" y="280"/>
      <point x="259" y="280" type="curve" smooth="yes"/>
    </contour>
    <contour>
      <point x="394" y="775" type="curve"/>
      <point x="333" y="834"/>
      <point x="303" y="868"/>
      <point x="282" y="944" type="curve"/>
      <point x="236" y="944"/>
      <point x="175" y="942"/>
      <point x="128" y="926" type="curve" smooth="yes"/>
      <point x="107" y="919"/>
      <point x="103" y="901"/>
      <point x="109" y="886" type="curve" smooth="yes"/>
      <point x="133" y="826"/>
      <point x="162" y="801"/>
      <point x="211" y="775" type="curve" smooth="yes"/>
      <point x="226" y="767"/>
      <point x="252" y="761"/>
      <point x="284" y="761" type="curve" smooth="yes"/>
      <point x="313" y="761"/>
      <point x="362" y="764"/>
    </contour>
  </outline>
</glyph>
<glyph name="Ccedilla" format="1">
  <advance width="600"/>
  <unicode hex="00C7"/>
  <outline>
    <contour>
      <point x="338" y="534" type="curve" smooth="yes"/>
      <point x="421" y="534"/>
      <point x="475" y="473"/>
      <point x="506" y="385" type="curve"/>
      <point x="562" y="385"/>
      <point x="575" y="394"/>
      <point x="575" y="416" type="curve" smooth="yes"/>
      <point x="575" y="516"/>
      <point x="546" y="600"/>
      <point x="493" y="653" type="curve" smooth="yes"/>
      <point x="453" y="693"/>
      <point x="400" y="720"/>
      <point x="335" y="720" type="curve" smooth="yes"/>
      <point x="176" y="720"/>
      <point x="20" y="607"/>
      <point x="20" y="304" type="curve" smooth="yes"/>
      <point x="20" y="296" type="line" smooth="yes"/>
      <point x="20" y="208"/>
      <point x="127" y="130"/>
      <point x="277" y="130" type="curve"/>
      <point x="267" y="157"/>
      <point x="256" y="217"/>
      <point x="256" y="278" type="curve" smooth="yes"/>
      <point x="256" y="286" type="line" smooth="yes"/>
      <point x="256" y="472"/>
      <point x="292" y="534"/>
    </contour>
    <contour>
      <point x="332" y="-20" type="curve" smooth="yes"/>
      <point x="433" y="-20"/>
      <point x="502" y="0"/>
      <point x="536" y="34" type="curve" smooth="yes"/>
      <point x="565" y="63"/>
      <point x="576" y="119"/>
      <point x="576" y="190" type="curve" smooth="yes"/>
      <point x="576" y="223"/>
      <point x="573" y="249"/>
      <point x="569" y="266" type="curve"/>
      <point x="565" y="266" type="line"/>
      <point x="512" y="218"/>
      <point x="436" y="190"/>
      <point x="350" y="190" type="curve" smooth="yes"/>
      <point x="268" y="190"/>
      <point x="246" y="211"/>
      <point x="246" y="322" type="curve"/>
      <point x="110" y="323"/>
      <point x="20" y="319"/>
      <point x="20" y="296" type="curve" smooth="yes"/>
      <point x="20" y="121"/>
      <point x="121" y="-20"/>
    </contour>
    <contour>
      <point x="575" y="344" type="curve"/>
      <point x="575" y="416" type="line" smooth="yes"/>
      <point x="575" y="564"/>
      <point x="497" y="626"/>
      <point x="396" y="626" type="curve"/>
      <point x="360" y="527"/>
      <point x="350" y="479"/>
      <point x="350" y="417" type="curve" smooth="yes"/>
      <point x="350" y="412" type="line"/>
      <point x="350" y="387"/>
      <point x="355" y="366"/>
      <point x="367" y="354" type="curve" smooth="yes"/>
      <point x="385" y="336"/>
      <point x="417" y="330"/>
      <point x="477" y="330" type="curve"/>
      <point x="516" y="330"/>
      <point x="549" y="337"/>
    </contour>
    <contour>
      <point x="437" y="-114" type="curve" smooth="yes"/>
      <point x="437" y="-10"/>
      <point x="344" y="35"/>
      <point x="293" y="51" type="curve"/>
      <point x="293" y="63"/>
      <point x="296" y="77"/>
      <point x="301" y="90" type="curve"/>
      <point x="229" y="90"/>
      <point x="220" y="86"/>
      <point x="214" y="79" type="curve" smooth="yes"/>
      <point x="201" y="64"/>
      <point x="197" y="56"/>
      <point x="197" y="45" type="curve" smooth="yes"/>
      <point x="197" y="41"/>
      <point x="199" y="37"/>
      <point x="204" y="35" type="curve" smooth="yes"/>
      <point x="256" y="18"/>
      <point x="273" y="-6"/>
      <point x="273" y="-42" type="curve" smooth="yes"/>
      <point x="273" y="-72"/>
      <point x="248" y="-88"/>
      <point x="210" y="-88" type="curve" smooth="yes"/>
      <point x="184" y="-88"/>
      <point x="166" y="-83"/>
      <point x="148" y="-73" type="curve"/>
      <point x="144" y="-73" type="line"/>
      <point x="138" y="-90"/>
      <point x="136" y="-103"/>
      <point x="136" y="-126" type="curve" smooth="yes"/>
      <point x="136" y="-196"/>
      <point x="168" y="-255"/>
      <point x="264" y="-255" type="curve" smooth="yes"/>
      <point x="385" y="-255"/>
      <point x="437" y="-195"/>
    </contour>
  </outline>
</glyph>
<glyph name="Egrave" format="1">
  <advance width="600"/>
  <unicode hex="00C8"/>
  <outline>
    <contour>
      <point x="11" y="700" type="line"/>
      <point x="7" y="672"/>
      <point x="5" y="643"/>
      <point x="5" y="615" type="curve" smooth="yes"/>
      <point x="5" y="550"/>
      <point x="9" y="517"/>
      <point x="18" y="508" type="curve" smooth="yes"/>
      <point x="25" y="501"/>
      <point x="28" y="500"/>
      <point x="35" y="500" type="curve" smooth="yes"/>
      <point x="574" y="500" type="line"/>
      <point x="579" y="528"/>
      <point x="580" y="542"/>
      <point x="580" y="565" type="curve" smooth="yes"/>
      <point x="580" y="614"/>
      <point x="568" y="656"/>
      <point x="548" y="676" type="curve" smooth="yes"/>
      <point x="529" y="695"/>
      <point x="516" y="700"/>
      <point x="485" y="700" type="curve" smooth="yes"/>
    </contour>
    <contour>
      <point x="260" y="135" type="curve"/>
      <point x="260" y="442" type="line" smooth="yes"/>
      <point x="260" y="535"/>
      <point x="161" y="607"/>
      <point x="35" y="607" type="curve"/>
      <point x="35" y="190" type="line"/>
      <point x="35" y="150"/>
      <point x="98" y="135"/>
    </contour>
    <contour>
      <point x="35" y="200" type="line"/>
      <point x="35" y="175" type="line" smooth="yes"/>
      <point x="35" y="89"/>
      <point x="81" y="0"/>
      <point x="125" y="0" type="curve" smooth="yes"/>
      <point x="571" y="0" type="line"/>
      <point x="577" y="21"/>
      <point x="580" y="43"/>
      <point x="580" y="65" type="curve" smooth="yes"/>
      <point x="580" y="155"/>
      <point x="550" y="200"/>
      <point x="490" y="200" type="curve" smooth="yes"/>
    </contour>
    <contour>
      <point x="149" y="415" type="line"/>
      <point x="149" y="314"/>
      <point x="166" y="265"/>
      <point x="200" y="265" type="curve" smooth="yes"/>
      <point x="491" y="265" type="line"/>
      <point x="497" y="281"/>
      <point x="500" y="302"/>
      <point x="500" y="320" type="curve" smooth="yes"/>
      <point x="500" y="352"/>
      <point x="491" y="378"/>
      <point x="475" y="394" type="curve" smooth="yes"/>
      <point x="458" y="411"/>
      <point x="448" y="415"/>
      <point x="419" y="415" type="curve" smooth="yes"/>
    </contour>
    <contour>
      <point x="386" y="775" type="curve"/>
      <point x="325" y="834"/>
      <point x="295" y="868"/>
      <point x="274" y="944" type="curve"/>
      <point x="228" y="944"/>
      <point x="167" y="942"/>
      <point x="120" y="926" type="curve" smooth="yes"/>
      <point x="99" y="919"/>
      <point x="95" y="901"/>
      <point x="101" y="886" type="curve" smooth="yes"/>
      <point x="125" y="826"/>
      <point x="154" y="801"/>
      <point x="203" y="775" type="curve" smooth="yes"/>
      <point x="218" y="767"/>
      <point x="244" y="761"/>
      <point x="276" y="761" type="curve" smooth="yes"/>
      <point x="305" y="761"/>
      <point x="354" y="764"/>
    </contour>
  </outline>
</glyph>
<glyph name="Eacute" format="1">
  <advance width="600"/>
  <unicode hex="00C9"/>
  <outline>
    <contour>
      <point x="11" y="700" type="line"/>
      <point x="7" y="672"/>
      <point x="5" y="643"/>
      <point x="5" y="615" type="curve" smooth="yes"/>
      <point x="5" y="550"/>
      <point x="9" y="517"/>
      <point x="18" y="508" type="curve" smooth="yes"/>
      <point x="25" y="501"/>
      <point x="28" y="500"/>
      <point x="35" y="500" type="curve" smooth="yes"/>
      <point x="574" y="500" type="line"/>
      <point x="579" y="528"/>
      <point x="580" y="542"/>
      <point x="580" y="565" type="curve" smooth="yes"/>
      <point x="580" y="614"/>
      <point x="568" y="656"/>
      <point x="548" y="676" type="curve" smooth="yes"/>
      <point x="529" y="695"/>
      <point x="516" y="700"/>
      <point x="485" y="700" type="curve" smooth="yes"/>
    </contour>
    <contour>
      <point x="260" y="135" type="curve"/>
      <point x="260" y="442" type="line" smooth="yes"/>
      <point x="260" y="535"/>
      <point x="161" y="607"/>
      <point x="35" y="607" type="curve"/>
      <point x="35" y="190" type="line"/>
      <point x="35" y="150"/>
      <point x="98" y="135"/>
    </contour>
    <contour>
      <point x="35" y="200" type="line"/>
      <point x="35" y="175" type="line" smooth="yes"/>
      <point x="35" y="89"/>
      <point x="81" y="0"/>
      <point x="125" y="0" type="curve" smooth="yes"/>
      <point x="571" y="0" type="line"/>
      <point x="577" y="21"/>
      <point x="580" y="43"/>
      <point x="580" y="65" type="curve" smooth="yes"/>
      <point x="580" y="155"/>
      <point x="550" y="200"/>
      <point x="490" y="200" type="curve" smooth="yes"/>
    </contour>
    <contour>
      <point x="149" y="415" type="line"/>
      <point x="149" y="314"/>
      <point x="166" y="265"/>
      <point x="200" y="265" type="curve" smooth="yes"/>
      <point x="491" y="265" type="line"/>
      <point x="497" y="281"/>
      <point x="500" y="302"/>
      <point x="500" y="320" type="curve" smooth="yes"/>
      <point x="500" y="352"/>
      <point x="491" y="378"/>
      <point x="475" y="394" type="curve" smooth="yes"/>
      <point x="458" y="411"/>
      <point x="448" y="415"/>
      <point x="419" y="415" type="curve" smooth="yes"/>
    </contour>
    <contour>
      <point x="308" y="761" type="curve" smooth="yes"/>
      <point x="340" y="761"/>
      <point x="366" y="767"/>
      <point x="381" y="775" type="curve" smooth="yes"/>
      <point x="430" y="801"/>
      <point x="459" y="826"/>
      <point x="483" y="886" type="curve" smooth="yes"/>
      <point x="489" y="901"/>
      <point x="485" y="919"/>
      <point x="464" y="926" type="curve" smooth="yes"/>
      <point x="417" y="942"/>
      <point x="356" y="944"/>
      <point x="310" y="944" type="curve"/>
      <point x="289" y="868"/>
      <point x="259" y="834"/>
      <point x="198" y="775" type="curve"/>
      <point x="230" y="764"/>
      <point x="279" y="761"/>
    </contour>
  </outline>
</glyph>
<glyph name="Ecircumflex" format="1">
  <advance width="600"/>
  <unicode hex="00CA"/>
  <outline>
    <contour>
      <point x="11" y="700" type="line"/>
      <point x="7" y="672"/>
      <point x="5" y="643"/>
      <point x="5" y="615" type="curve" smooth="yes"/>
      <point x="5" y="550"/>
      <point x="9" y="517"/>
      <point x="18" y="508" type="curve" smooth="yes"/>
      <point x="25" y="501"/>
      <point x="28" y="500"/>
      <point x="35" y="500" type="curve" smooth="yes"/>
      <point x="574" y="500" type="line"/>
      <point x="579" y="528"/>
      <point x="580" y="542"/>
      <point x="580" y="565" type="curve" smooth="yes"/>
      <point x="580" y="614"/>
      <point x="568" y="656"/>
      <point x="548" y="676" type="curve" smooth="yes"/>
      <point x="529" y="695"/>
      <point x="516" y="700"/>
      <point x="485" y="700" type="curve" smooth="yes"/>
    </contour>
    <contour>
      <point x="260" y="135" type="curve"/>
      <point x="260" y="442" type="line" smooth="yes"/>
      <point x="260" y="535"/>
      <point x="161" y="607"/>
      <point x="35" y="607" type="curve"/>
      <point x="35" y="190" type="line"/>
      <point x="35" y="150"/>
      <point x="98" y="135"/>
    </contour>
    <contour>
      <point x="35" y="200" type="line"/>
      <point x="35" y="175" type="line" smooth="yes"/>
      <point x="35" y="89"/>
      <point x="81" y="0"/>
      <point x="125" y="0" type="curve" smooth="yes"/>
      <point x="571" y="0" type="line"/>
      <point x="577" y="21"/>
      <point x="580" y="43"/>
      <point x="580" y="65" type="curve" smooth="yes"/>
      <point x="580" y="155"/>
      <point x="550" y="200"/>
      <point x="490" y="200" type="curve" smooth="yes"/>
    </contour>
    <contour>
      <point x="149" y="415" type="line"/>
      <point x="149" y="314"/>
      <point x="166" y="265"/>
      <point x="200" y="265" type="curve" smooth="yes"/>
      <point x="491" y="265" type="line"/>
      <point x="497" y="281"/>
      <point x="500" y="302"/>
      <point x="500" y="320" type="curve" smooth="yes"/>
      <point x="500" y="352"/>
      <point x="491" y="378"/>
      <point x="475" y="394" type="curve" smooth="yes"/>
      <point x="458" y="411"/>
      <point x="448" y="415"/>
      <point x="419" y="415" type="curve" smooth="yes"/>
    </contour>
    <contour>
      <point x="225" y="765" type="line"/>
      <point x="253" y="813"/>
      <point x="307" y="855"/>
      <point x="372" y="874" type="curve"/>
      <point x="372" y="926"/>
      <point x="322" y="954"/>
      <point x="277" y="954" type="curve"/>
      <point x="253" y="954" type="line"/>
      <point x="208" y="935"/>
      <point x="143" y="886"/>
      <point x="114" y="846" type="curve" smooth="yes"/>
      <point x="98" y="823"/>
      <point x="91" y="807"/>
      <point x="91" y="800" type="curve" smooth="yes"/>
      <point x="91" y="779"/>
      <point x="169" y="765"/>
      <point x="219" y="765" type="curve"/>
    </contour>
    <contour>
      <point x="507" y="779" type="curve"/>
      <point x="476" y="841"/>
      <point x="434" y="891"/>
      <point x="385" y="924" type="curve" smooth="yes"/>
      <point x="342" y="953"/>
      <point x="312" y="954"/>
      <point x="282" y="954" type="curve" smooth="yes"/>
      <point x="274" y="954" type="line"/>
      <point x="255" y="954"/>
      <point x="218" y="928"/>
      <point x="206" y="872" type="curve"/>
      <point x="281" y="851"/>
      <point x="310" y="827"/>
      <point x="342" y="787" type="curve" smooth="yes"/>
      <point x="354" y="770"/>
      <point x="370" y="761"/>
      <point x="403" y="761" type="curve" smooth="yes"/>
      <point x="437" y="761"/>
      <point x="482" y="769"/>
    </contour>
  </outline>
</glyph>
<glyph name="Iacute" format="1">
  <advance width="600"/>
  <unicode hex="00CD"/>
  <outline>
    <contour>
      <point x="413" y="103" type="curve"/>
      <point x="413" y="432" type="line" smooth="yes"/>
      <point x="413" y="548"/>
      <point x="314" y="597"/>
      <point x="187" y="597" type="curve"/>
      <point x="187" y="275" type="line" smooth="yes"/>
      <point x="187" y="155"/>
      <point x="284" y="103"/>
    </contour>
    <contour>
      <point x="38" y="700" type="line"/>
      <point x="34" y="677"/>
      <point x="31" y="649"/>
      <point x="31" y="622" type="curve"/>
      <point x="31" y="588"/>
      <point x="38" y="535"/>
      <point x="59" y="514" type="curve" smooth="yes"/>
      <point x="76" y="497"/>
      <point x="91" y="490"/>
      <point x="139" y="490" type="curve" smooth="yes"/>
      <point x="541" y="490" type="line"/>
      <point x="547" y="509"/>
      <point x="551" y="539"/>
      <point x="551" y="568" type="curve" smooth="yes"/>
      <point x="551" y="641"/>
      <point x="543" y="700"/>
      <point x="489" y="700" type="curve" smooth="yes"/>
    </contour>
    <contour>
      <point x="38" y="210" type="line"/>
      <point x="34" y="187"/>
      <point x="31" y="159"/>
      <point x="31" y="132" type="curve"/>
      <point x="31" y="98"/>
      <point x="38" y="45"/>
      <point x="59" y="24" type="curve" smooth="yes"/>
      <point x="76" y="7"/>
      <point x="91" y="0"/>
      <point x="139" y="0" type="curve" smooth="yes"/>
      <point x="541" y="0" type="line"/>
      <point x="547" y="19"/>
      <point x="551" y="49"/>
      <point x="551" y="78" type="curve" smooth="yes"/>
      <point x="551" y="151"/>
      <point x="543" y="210"/>
      <point x="489" y="210" type="curve" smooth="yes"/>
    </contour>
    <contour>
      <point x="307" y="761" type="curve" smooth="yes"/>
      <point x="339" y="761"/>
      <point x="365" y="767"/>
      <point x="380" y="775" type="curve" smooth="yes"/>
      <point x="429" y="801"/>
      <point x="458" y="826"/>
      <point x="482" y="886" type="curve" smooth="yes"/>
      <point x="488" y="901"/>
      <point x="484" y="919"/>
      <point x="463" y="926" type="curve" smooth="yes"/>
      <point x="416" y="942"/>
      <point x="355" y="944"/>
      <point x="309" y="944" type="curve"/>
      <point x="288" y="868"/>
      <point x="258" y="834"/>
      <point x="197" y="775" type="curve"/>
      <point x="229" y="764"/>
      <point x="278" y="761"/>
    </contour>
  </outline>
</glyph>
<glyph name="Icircumflex" format="1">
  <advance width="600"/>
  <unicode hex="00CE"/>
  <outline>
    <contour>
      <point x="413" y="103" type="curve"/>
      <point x="413" y="432" type="line" smooth="yes"/>
      <point x="413" y="548"/>
      <point x="314" y="597"/>
      <point x="187" y="597" type="curve"/>
      <point x="187" y="275" type="line" smooth="yes"/>
      <point x="187" y="155"/>
      <point x="284" y="103"/>
    </contour>
    <contour>
      <point x="38" y="700" type="line"/>
      <point x="34" y="677"/>
      <point x="31" y="649"/>
      <point x="31" y="622" type="curve"/>
      <point x="31" y="588"/>
      <point x="38" y="535"/>
      <point x="59" y="514" type="curve" smooth="yes"/>
      <point x="76" y="497"/>
      <point x="91" y="490"/>
      <point x="139" y="490" type="curve" smooth="yes"/>
      <point x="541" y="490" type="line"/>
      <point x="547" y="509"/>
      <point x="551" y="539"/>
      <point x="551" y="568" type="curve" smooth="yes"/>
      <point x="551" y="641"/>
      <point x="543" y="700"/>
      <point x="489" y="700" type="curve" smooth="yes"/>
    </contour>
    <contour>
      <point x="38" y="210" type="line"/>
      <point x="34" y="187"/>
      <point x="31" y="159"/>
      <point x="31" y="132" type="curve"/>
      <point x="31" y="98"/>
      <point x="38" y="45"/>
      <point x="59" y="24" type="curve" smooth="yes"/>
      <point x="76" y="7"/>
      <point x="91" y="0"/>
      <point x="139" y="0" type="curve" smooth="yes"/>
      <point x="541" y="0" type="line"/>
      <point x="547" y="19"/>
      <point x="551" y="49"/>
      <point x="551" y="78" type="curve" smooth="yes"/>
      <point x="551" y="151"/>
      <point x="543" y="210"/>
      <point x="489" y="210" type="curve" smooth="yes"/>
    </contour>
    <contour>
      <point x="224" y="765" type="line"/>
      <point x="252" y="813"/>
      <point x="306" y="855"/>
      <point x="371" y="874" type="curve"/>
      <point x="371" y="926"/>
      <point x="321" y="954"/>
      <point x="276" y="954" type="curve"/>
      <point x="252" y="954" type="line"/>
      <point x="207" y="935"/>
      <point x="142" y="886"/>
      <point x="113" y="846" type="curve" smooth="yes"/>
      <point x="97" y="823"/>
      <point x="90" y="807"/>
      <point x="90" y="800" type="curve" smooth="yes"/>
      <point x="90" y="779"/>
      <point x="168" y="765"/>
      <point x="218" y="765" type="curve"/>
    </contour>
    <contour>
      <point x="506" y="779" type="curve"/>
      <point x="475" y="841"/>
      <point x="433" y="891"/>
      <point x="384" y="924" type="curve" smooth="yes"/>
      <point x="341" y="953"/>
      <point x="311" y="954"/>
      <point x="281" y="954" type="curve" smooth="yes"/>
      <point x="273" y="954" type="line"/>
      <point x="254" y="954"/>
      <point x="217" y="928"/>
      <point x="205" y="872" type="curve"/>
      <point x="280" y="851"/>
      <point x="309" y="827"/>
      <point x="341" y="787" type="curve" smooth="yes"/>
      <point x="353" y="770"/>
      <point x="369" y="761"/>
      <point x="402" y="761" type="curve" smooth="yes"/>
      <point x="436" y="761"/>
      <point x="481" y="769"/>
    </contour>
  </outline>
</glyph>
<glyph name="Idieresis" format="1">
  <advance width="600"/>
  <unicode hex="00CF"/>
  <outline>
    <contour>
      <point x="413" y="103" type="curve"/>
      <point x="413" y="432" type="line" smooth="yes"/>
      <point x="413" y="548"/>
      <point x="314" y="597"/>
      <point x="187" y="597" type="curve"/>
      <point x="187" y="275" type="line" smooth="yes"/>
      <point x="187" y="155"/>
      <point x="284" y="103"/>
    </contour>
    <contour>
      <point x="38" y="700" type="line"/>
      <point x="34" y="677"/>
      <point x="31" y="649"/>
      <point x="31" y="622" type="curve"/>
      <point x="31" y="588"/>
      <point x="38" y="535"/>
      <point x="59" y="514" type="curve" smooth="yes"/>
      <point x="76" y="497"/>
      <point x="91" y="490"/>
      <point x="139" y="490" type="curve" smooth="yes"/>
      <point x="541" y="490" type="line"/>
      <point x="547" y="509"/>
      <point x="551" y="539"/>
      <point x="551" y="568" type="curve" smooth="yes"/>
      <point x="551" y="641"/>
      <point x="543" y="700"/>
      <point x="489" y="700" type="curve" smooth="yes"/>
    </contour>
    <contour>
      <point x="38" y="210" type="line"/>
      <point x="34" y="187"/>
      <point x="31" y="159"/>
      <point x="31" y="132" type="curve"/>
      <point x="31" y="98"/>
      <point x="38" y="45"/>
      <point x="59" y="24" type="curve" smooth="yes"/>
      <point x="76" y="7"/>
      <point x="91" y="0"/>
      <point x="139" y="0" type="curve" smooth="yes"/>
      <point x="541" y="0" type="line"/>
      <point x="547" y="19"/>
      <point x="551" y="49"/>
      <point x="551" y="78" type="curve" smooth="yes"/>
      <point x="551" y="151"/>
      <point x="543" y="210"/>
      <point x="489" y="210" type="curve" smooth="yes"/>
    </contour>
    <contour>
      <point x="259" y="789" type="curve"/>
      <point x="259" y="887" type="line" smooth="yes"/>
      <point x="259" y="931"/>
      <point x="210" y="936"/>
      <point x="167" y="936" type="curve" smooth="yes"/>
      <point x="149" y="936"/>
      <point x="124" y="935"/>
      <point x="103" y="933" type="curve"/>
      <point x="103" y="836" type="line" smooth="yes"/>
      <point x="103" y="792"/>
      <point x="152" y="785"/>
      <point x="194" y="785" type="curve" smooth="yes"/>
      <point x="213" y="785"/>
      <point x="238" y="785"/>
    </contour>
    <contour>
      <point x="479" y="789" type="curve"/>
      <point x="479" y="887" type="line" smooth="yes"/>
      <point x="479" y="931"/>
      <point x="430" y="936"/>
      <point x="387" y="936" type="curve" smooth="yes"/>
      <point x="369" y="936"/>
      <point x="344" y="935"/>
      <point x="323" y="933" type="curve"/>
      <point x="323" y="836" type="line" smooth="yes"/>
      <point x="323" y="792"/>
      <point x="372" y="785"/>
      <point x="414" y="785" type="curve" smooth="yes"/>
      <point x="433" y="785"/>
      <point x="458" y="785"/>
    </contour>
  </outline>
</glyph>
<glyph name="Eth" format="1">
  <advance width="600"/>
  <unicode hex="00D0"/>
  <outline>
    <contour>
      <point x="8" y="403" type="line"/>
      <point x="4" y="391"/>
      <point x="2" y="379"/>
      <point x="2" y="358" type="curve" smooth="yes"/>
      <point x="2" y="315"/>
      <point x="13" y="301"/>
      <point x="30" y="301" type="curve" smooth="yes"/>
      <point x="308" y="301" type="line"/>
      <point x="312" y="315"/>
      <point x="314" y="331"/>
      <point x="314" y="344" type="curve" smooth="yes"/>
      <point x="314" y="388"/>
      <point x="306" y="403"/>
      <point x="279" y="403" type="curve"/>
    </contour>
    <contour>
      <point x="260" y="30" type="curve"/>
      <point x="260" y="442" type="line" smooth="yes"/>
      <point x="260" y="545"/>
      <point x="176" y="607"/>
      <point x="35" y="607" type="curve"/>
      <point x="35" y="95" type="line" smooth="yes"/>
      <point x="35" y="59"/>
      <point x="134" y="30"/>
    </contour>
    <contour>
      <point x="17" y="690" type="curve"/>
      <point x="10" y="665"/>
      <point x="5" y="630"/>
      <point x="5" y="580" type="curve"/>
      <point x="5" y="520"/>
      <point x="10" y="496"/>
      <point x="20" y="486" type="curve" smooth="yes"/>
      <point x="25" y="481"/>
      <point x="27" y="480"/>
      <point x="35" y="480" type="curve" smooth="yes"/>
      <point x="49" y="480"/>
      <point x="71" y="484"/>
      <point x="112" y="489" type="curve" smooth="yes"/>
      <point x="154" y="495"/>
      <point x="199" y="500"/>
      <point x="270" y="500" type="curve" smooth="yes"/>
      <point x="349" y="500"/>
      <point x="379" y="490"/>
      <point x="423" y="469" type="curve"/>
      <point x="480" y="550"/>
      <point x="402" y="710"/>
      <point x="322" y="710" type="curve" smooth="yes"/>
      <point x="213" y="710"/>
      <point x="105" y="705"/>
    </contour>
    <contour>
      <point x="580" y="409" type="curve" smooth="yes"/>
      <point x="580" y="418" type="line" smooth="yes"/>
      <point x="580" y="582"/>
      <point x="516" y="710"/>
      <point x="322" y="710" type="curve"/>
      <point x="313" y="710"/>
      <point x="290" y="699"/>
      <point x="290" y="553" type="curve"/>
      <point x="344" y="522"/>
      <point x="350" y="492"/>
      <point x="350" y="423" type="curve" smooth="yes"/>
      <point x="350" y="412" type="line" smooth="yes"/>
      <point x="350" y="262"/>
      <point x="316" y="195"/>
      <point x="261" y="195" type="curve" smooth="yes"/>
      <point x="196" y="195"/>
      <point x="151" y="204"/>
      <point x="94" y="218" type="curve"/>
      <point x="61" y="185"/>
      <point x="35" y="141"/>
      <point x="35" y="95" type="curve" smooth="yes"/>
      <point x="35" y="32"/>
      <point x="112" y="-10"/>
      <point x="224" y="-10" type="curve" smooth="yes"/>
      <point x="237" y="-10" type="line" smooth="yes"/>
      <point x="443" y="-10"/>
      <point x="580" y="129"/>
    </contour>
  </outline>
</glyph>
<glyph name="Ntilde" format="1">
  <advance width="600"/>
  <unicode hex="00D1"/>
  <outline>
    <contour>
      <point x="245" y="-2" type="curve"/>
      <point x="245" y="58" type="line"/>
      <point x="245" y="224"/>
      <point x="190" y="643"/>
      <point x="131" y="702" type="curve" smooth="yes"/>
      <point x="125" y="708"/>
      <point x="119" y="710"/>
      <point x="112" y="710" type="curve"/>
      <point x="89" y="710"/>
      <point x="54" y="707"/>
      <point x="23" y="700" type="curve"/>
      <point x="31" y="662"/>
      <point x="35" y="617"/>
      <point x="35" y="560" type="curve" smooth="yes"/>
      <point x="35" y="45" type="line"/>
      <point x="35" y="-2"/>
      <point x="112" y="-10"/>
      <point x="174" y="-10" type="curve"/>
      <point x="199" y="-10"/>
      <point x="221" y="-7"/>
    </contour>
    <contour>
      <point x="565" y="-10" type="line"/>
      <point x="565" y="641" type="line"/>
      <point x="565" y="690"/>
      <point x="483" y="710"/>
      <point x="380" y="710" type="curve"/>
      <point x="355" y="710" type="line"/>
      <point x="355" y="655" type="line"/>
      <point x="355" y="447"/>
      <point x="398" y="85"/>
      <point x="463" y="20" type="curve" smooth="yes"/>
      <point x="481" y="2"/>
      <point x="497" y="-10"/>
      <point x="510" y="-10" type="curve"/>
    </contour>
    <contour>
      <point x="112" y="710" type="line"/>
      <point x="136" y="676"/>
      <point x="155" y="628"/>
      <point x="165" y="578" type="curve" smooth="yes"/>
      <point x="207" y="380"/>
      <point x="314" y="107"/>
      <point x="386" y="35" type="curve"/>
      <point x="415" y="6"/>
      <point x="450" y="-10"/>
      <point x="510" y="-10" type="curve" smooth="yes"/>
      <point x="514" y="-10"/>
      <point x="515" y="-10"/>
      <point x="519" y="-10" type="curve"/>
      <point x="545" y="-10"/>
      <point x="556" y="15"/>
      <point x="550" y="45" type="curve"/>
      <point x="391" y="201"/>
      <point x="319" y="431"/>
      <point x="265" y="657" type="curve"/>
      <point x="256" y="695"/>
      <point x="185" y="710"/>
      <point x="122" y="710" type="curve"/>
    </contour>
    <contour>
      <point x="390" y="922" type="curve" smooth="yes"/>
      <point x="320" y="922"/>
      <point x="255" y="974"/>
      <point x="184" y="974" type="curve" smooth="yes"/>
      <point x="158" y="974"/>
      <point x="136" y="967"/>
      <point x="119" y="950" type="curve" smooth="yes"/>
      <point x="99" y="930"/>
      <point x="87" y="896"/>
      <point x="87" y="843" type="curve" smooth="yes"/>
      <point x="87" y="811"/>
      <point x="91" y="786"/>
      <point x="99" y="764" type="curve"/>
      <point x="103" y="764" type="line"/>
      <point x="137" y="792"/>
      <point x="158" y="802"/>
      <point x="198" y="802" type="curve" smooth="yes"/>
      <point x="268" y="802"/>
      <point x="333" y="750"/>
      <point x="404" y="750" type="curve" smooth="yes"/>
      <point x="430" y="750"/>
      <point x="452" y="757"/>
      <point x="469" y="774" type="curve" smooth="yes"/>
      <point x="489" y="794"/>
      <point x="501" y="828"/>
      <point x="501" y="881" type="curve" smooth="yes"/>
      <point x="501" y="913"/>
      <point x="497" y="938"/>
      <point x="489" y="960" type="curve"/>
      <point x="485" y="960" type="line"/>
      <point x="451" y="932"/>
      <point x="430" y="922"/>
    </contour>
  </outline>
</glyph>
<glyph name="Ograve" format="1">
  <advance width="600"/>
  <unicode hex="00D2"/>
  <outline>
    <contour>
      <point x="295" y="720" type="curve" smooth="yes"/>
      <point x="119" y="720"/>
      <point x="20" y="581"/>
      <point x="20" y="360" type="curve" smooth="yes"/>
      <point x="20" y="340" type="line" smooth="yes"/>
      <point x="20" y="104"/>
      <point x="105" y="-20"/>
      <point x="305" y="-20" type="curve" smooth="yes"/>
      <point x="334" y="-20"/>
      <point x="355" y="50"/>
      <point x="355" y="146" type="curve"/>
      <point x="277" y="146"/>
      <point x="248" y="181"/>
      <point x="248" y="347" type="curve" smooth="yes"/>
      <point x="248" y="360" type="line" smooth="yes"/>
      <point x="248" y="462"/>
      <point x="268" y="510"/>
      <point x="308" y="510" type="curve" smooth="yes"/>
      <point x="364" y="510"/>
      <point x="393" y="499"/>
      <point x="432" y="462" type="curve"/>
      <point x="504" y="586"/>
      <point x="417" y="720"/>
    </contour>
    <contour>
      <point x="305" y="-20" type="curve" smooth="yes"/>
      <point x="481" y="-20"/>
      <point x="580" y="120"/>
      <point x="580" y="340" type="curve" smooth="yes"/>
      <point x="580" y="360" type="line" smooth="yes"/>
      <point x="580" y="597"/>
      <point x="495" y="720"/>
      <point x="295" y="720" type="curve" smooth="yes"/>
      <point x="266" y="720"/>
      <point x="245" y="650"/>
      <point x="245" y="554" type="curve"/>
      <point x="323" y="554"/>
      <point x="352" y="524"/>
      <point x="352" y="373" type="curve" smooth="yes"/>
      <point x="352" y="360" type="line" smooth="yes"/>
      <point x="352" y="244"/>
      <point x="332" y="190"/>
      <point x="292" y="190" type="curve" smooth="yes"/>
      <point x="236" y="190"/>
      <point x="207" y="201"/>
      <point x="168" y="238" type="curve"/>
      <point x="113" y="143"/>
      <point x="176" y="-20"/>
    </contour>
    <contour>
      <point x="394" y="775" type="curve"/>
      <point x="333" y="834"/>
      <point x="303" y="868"/>
      <point x="282" y="944" type="curve"/>
      <point x="236" y="944"/>
      <point x="175" y="942"/>
      <point x="128" y="926" type="curve" smooth="yes"/>
      <point x="107" y="919"/>
      <point x="103" y="901"/>
      <point x="109" y="886" type="curve" smooth="yes"/>
      <point x="133" y="826"/>
      <point x="162" y="801"/>
      <point x="211" y="775" type="curve" smooth="yes"/>
      <point x="226" y="767"/>
      <point x="252" y="761"/>
      <point x="284" y="761" type="curve" smooth="yes"/>
      <point x="313" y="761"/>
      <point x="362" y="764"/>
    </contour>
  </outline>
</glyph>
